<?xml version="1.0" encoding="iso-8859-1"?>
<!-- Generator: Adobe Illustrator 17.1.0, SVG Export Plug-In . SVG Version: 6.00 Build 0)  -->
<!DOCTYPE svg PUBLIC "-//W3C//DTD SVG 1.1//EN" "http://www.w3.org/Graphics/SVG/1.1/DTD/svg11.dtd">
<svg version="1.1" id="Capa_1" xmlns="http://www.w3.org/2000/svg" xmlns:xlink="http://www.w3.org/1999/xlink" x="0px" y="0px"
	 viewBox="0 0 419.566 419.566" style="enable-background:new 0 0 419.566 419.566;" xml:space="preserve">
<path id="XMLID_1744_" d="M28.994,152.316c-2.526-18.993,2.496-37.832,14.14-53.047c13.265-17.331,33.768-27.567,55.279-28.11
	c0.078-15.512,5.169-30.493,14.778-43.051C137.227-3.301,182.336-9.299,213.748,14.74c7.855,6.011,14.361,13.562,19.125,22.139
	c21.852-6.507,45.74-2.275,64.102,11.774c3.947,3.021,4.698,8.669,1.678,12.617c-3.021,3.945-8.67,4.697-12.617,1.678
	c-15.491-11.856-36.242-14.376-54.156-6.58c-2.227,0.968-4.749,0.996-6.995,0.08c-2.247-0.918-4.028-2.705-4.939-4.955
	c-3.585-8.858-9.511-16.624-17.136-22.458c-23.529-18.007-57.318-13.514-75.322,10.012c-8.853,11.568-12.585,25.883-10.511,40.305
	c0.4,2.781-0.521,5.59-2.492,7.593s-4.761,2.969-7.551,2.617c-18.944-2.411-37.915,5.504-49.504,20.647
	c-8.723,11.396-12.483,25.508-10.592,39.734s9.211,26.864,20.608,35.587c11.396,8.723,25.504,12.481,39.733,10.594
	c14.227-1.892,26.865-9.21,35.588-20.607c3.021-3.948,8.671-4.698,12.617-1.678c3.947,3.021,4.698,8.67,1.678,12.617
	c-11.646,15.216-28.518,24.985-47.511,27.511c-3.209,0.427-6.416,0.638-9.601,0.638c-15.657,0-30.802-5.104-43.444-14.779
	C41.29,188.181,31.519,171.308,28.994,152.316z M378.135,167.054c-4.795-5.923-10.675-10.838-17.283-14.488
	c4.266-17.655,0.166-36.512-11.448-50.863c-9.888-12.214-23.939-19.847-39.567-21.492c-15.623-1.646-30.96,2.894-43.173,12.78
	c-3.863,3.128-4.46,8.795-1.332,12.658c3.127,3.861,8.793,4.461,12.658,1.332c8.476-6.861,19.116-10.014,29.962-8.869
	c10.847,1.143,20.6,6.439,27.461,14.916c9.325,11.522,11.67,27.235,6.117,41.004c-0.908,2.252-0.868,4.774,0.111,6.996
	s2.814,3.954,5.09,4.803c6.799,2.536,12.821,6.876,17.413,12.548c14.162,17.502,11.449,43.263-6.048,57.426
	c-8.601,6.963-19.394,10.099-30.4,8.817c-2.79-0.324-5.573,0.675-7.521,2.699s-2.84,4.843-2.409,7.619
	c2.222,14.343-3.396,28.916-14.662,38.033c-17.499,14.162-43.259,11.45-57.424-6.047c-14.163-17.499-11.45-43.26,6.049-57.425
	c3.863-3.127,4.46-8.795,1.332-12.658c-3.126-3.862-8.792-4.46-12.658-1.332c-25.212,20.409-29.121,57.526-8.713,82.74
	c11.611,14.343,28.626,21.791,45.783,21.79c13.001-0.001,26.086-4.279,36.955-13.076c13.449-10.885,21.313-27.163,21.791-44.176
	c12.077-0.753,23.591-5.214,33.203-12.995C394.631,229.389,398.542,192.271,378.135,167.054z M291.88,401.564H108.168l18.679-39.839
	c8.868,0.397,18.297-3.992,23.925-15.944l65.13-138.334c2.117-4.497,0.188-9.859-4.309-11.977
	c-4.498-2.117-9.858-0.188-11.977,4.309l-65.13,138.334c-2.411,5.119-5.617,6.783-9.524,4.953c-2.356-1.105-4.421-3.538-3.616-5.262
	L217.351,132.2c1.943-4.165,5.222-3.718,7.634-2.604c0.971,0.447,5.697,2.933,3.427,7.917l-12.04,26.445
	c-1.186,0.039-2.382,0.315-3.523,0.852c-4.498,2.113-6.433,7.474-4.318,11.973c3.896,8.295,9.43,13.605,16.444,15.782
	c13.165,4.084,27.015-4.027,40.409-11.871c9.108-5.333,20.439-11.965,26.061-10.229c2.012,0.625,3.881,2.75,5.558,6.317
	c2.113,4.498,7.471,6.432,11.973,4.318c4.499-2.113,6.433-7.474,4.318-11.973c-3.915-8.335-9.472-13.669-16.514-15.854
	c-13.201-4.101-27.073,4.028-40.491,11.887c-8.835,5.173-19.779,11.571-25.499,10.338c0.236-0.367,0.45-0.756,0.636-1.165
	l13.369-29.361c6.372-13.99-1.566-26.786-12.271-31.723c-10.707-4.939-24.96-2.631-31.482,11.334l-96.005,205.604
	c-3.896,8.347-1.534,17.921,5.272,24.408l-22.021,46.967H55.219c-4.971,0-9,4.029-9,9s4.029,9,9,9h38.586
	c0.065,0.001,0.131,0.002,0.196,0.002s0.131-0.001,0.196-0.002H291.88c4.971,0,9-4.029,9-9S296.851,401.564,291.88,401.564z"/>
<g>
</g>
<g>
</g>
<g>
</g>
<g>
</g>
<g>
</g>
<g>
</g>
<g>
</g>
<g>
</g>
<g>
</g>
<g>
</g>
<g>
</g>
<g>
</g>
<g>
</g>
<g>
</g>
<g>
</g>
</svg>
