<?xml version="1.0" encoding="iso-8859-1"?>
<!-- Generator: Adobe Illustrator 17.1.0, SVG Export Plug-In . SVG Version: 6.00 Build 0)  -->
<!DOCTYPE svg PUBLIC "-//W3C//DTD SVG 1.1//EN" "http://www.w3.org/Graphics/SVG/1.1/DTD/svg11.dtd">
<svg version="1.1" id="Capa_1" xmlns="http://www.w3.org/2000/svg" xmlns:xlink="http://www.w3.org/1999/xlink" x="0px" y="0px"
	 viewBox="0 0 412.135 412.135" style="enable-background:new 0 0 412.135 412.135;" xml:space="preserve">
<path id="XMLID_976_" d="M345.446,164.361c-2.993-1.094-6.337-0.522-8.799,1.498c-22.564,18.528-44.967,54.05-59.929,95.021
	c-8.496,23.269-14.023,46.74-16.24,67.938c-15.581-26.626-38.094-55.629-64.663-82.788c-40.33-41.226-85.118-73.206-119.81-85.548
	c-3.239-1.153-6.852-0.358-9.31,2.046s-3.331,5.999-2.25,9.263c9.887,29.855,33.935,67.389,65.871,103.393
	c-27.783-7.723-53.949-10.808-74.559-8.426c-3.164,0.365-5.898,2.375-7.192,5.285c-1.293,2.911-0.952,6.288,0.897,8.881
	c18.708,26.235,56.183,53.589,100.246,73.17c37.779,16.789,76.55,26.152,107.019,26.152c5.066,0,9.915-0.201,14.473-0.786
	c2.555-0.328,4.635-1.948,4.698-2c22.556-18.534,44.952-54.048,59.908-95.004c14.959-40.97,20.717-82.568,15.402-111.277
	C350.628,168.045,348.437,165.453,345.446,164.361z M89.896,186.242c28.662,14.859,62.064,40.697,93.052,72.374
	c22.181,22.674,41.343,46.518,55.661,68.868c-17.572-13.045-38.585-25.241-61.36-35.362c-3.362-1.494-6.732-2.93-10.104-4.304
	c-2.366-2.328-4.696-4.662-6.939-6.956C129.218,249.186,104.121,215.224,89.896,186.242z M157.018,337.643
	c-33.442-14.861-62.597-34.178-81.453-53.604c23.972,0.867,53.303,7.791,82.939,19.695c0.162,0.071,0.326,0.137,0.49,0.198
	c3.647,1.471,7.299,3.019,10.945,4.639c33.443,14.862,62.598,34.179,81.453,53.604C224.338,361.198,190.46,352.504,157.018,337.643z
	 M318.897,276.281c-10.935,29.943-25.855,56.516-41.547,74.563c-0.371-23.912,5.342-53.847,16.276-83.791
	c10.935-29.944,25.855-56.518,41.548-74.564C335.544,216.402,329.83,246.336,318.897,276.281z M210.535,152.129
	c3.963,25.917,5.182,55.521,3.526,85.615c-0.118,2.146,0.535,4.263,1.842,5.969l18.572,24.24c1.772,2.313,4.446,3.526,7.15,3.526
	c1.91,0,3.834-0.604,5.467-1.855c3.946-3.023,4.693-8.673,1.67-12.618l-16.557-21.61c1.268-26.262,0.421-52.134-2.458-75.651h32.881
	c-2.566,20.9-3.485,43.337-2.733,66.851c0.159,4.969,4.302,8.856,9.284,8.707c4.968-0.159,8.866-4.315,8.708-9.283
	c-0.844-26.341,0.488-51.204,3.958-73.895c0.011-0.071,0.033-0.229,0.033-0.229c0.12-0.928,0.094-1.84-0.061-2.716
	c-0.662-4.348-1.249-8.847-1.757-13.467c18.943-9.072,39.215-27.49,55.354-50.541c17.937-25.615,28.751-54.063,28.93-76.098
	c0.024-2.963-1.411-5.747-3.838-7.446c-2.427-1.699-5.534-2.095-8.309-1.059c-20.645,7.706-43.677,27.599-61.611,53.213
	c-4.74,6.769-8.983,13.736-12.664,20.73c0.535-15.458,1.866-30.392,3.927-43.856c0.397-2.595-0.358-5.232-2.068-7.225
	c-1.71-1.991-4.204-3.137-6.829-3.137h-53.524c-2.625,0-5.119,1.146-6.828,3.137c-1.71,1.992-2.465,4.63-2.068,7.225
	c2.744,17.931,4.195,38.459,4.195,59.363c0,20.826-1.44,41.279-4.164,59.161C210.408,150.051,210.522,152.046,210.535,152.129z
	 M305.33,64.106c11.71-16.726,25.556-30.586,38.968-39.328c-3.627,15.593-11.917,33.344-23.628,50.069
	c-11.71,16.725-25.555,30.585-38.968,39.327C285.329,98.58,293.618,80.83,305.33,64.106z M229.741,38.294h32.898
	c-1.959,16.159-2.984,33.83-2.984,51.725c0,17.896,1.025,35.566,2.984,51.726h-32.898c1.959-16.163,2.985-33.832,2.985-51.726
	C232.726,72.126,231.7,54.457,229.741,38.294z M281.952,403.135c0,4.971-4.029,9-9,9h-53.524c-4.971,0-9-4.029-9-9s4.029-9,9-9
	h53.524C277.923,394.135,281.952,398.164,281.952,403.135z M120.866,151.806c0,0,1.513,10.833,2.081,16.31
	c0.512,4.943,4.927,8.528,9.879,8.024c4.944-0.512,8.537-4.936,8.025-9.879c-0.227-2.189-0.472-4.364-0.733-6.517h32.893
	c-1.451,11.923-2.382,24.559-2.773,37.699c-0.148,4.968,3.76,9.115,8.729,9.264c0.091,0.003,0.182,0.004,0.272,0.004
	c4.847,0,8.846-3.855,8.991-8.732c0.485-16.283,1.828-31.714,3.992-45.861c0.008-0.051,0.128-2.047-0.029-2.937
	c-2.724-17.879-4.163-38.332-4.163-59.162c0-20.909,1.45-41.437,4.194-59.363c0.397-2.595-0.358-5.232-2.068-7.225
	c-1.709-1.991-4.204-3.137-6.828-3.137h-53.524c-2.625,0-5.119,1.146-6.828,3.137c-1.71,1.991-2.465,4.63-2.068,7.225
	c2.743,17.926,4.193,38.453,4.193,59.363c0,20.831-1.439,41.283-4.162,59.16C120.788,150.028,120.76,150.91,120.866,151.806z
	 M140.116,38.294h32.898c-1.959,16.159-2.984,33.83-2.984,51.725c0,17.896,1.025,35.566,2.984,51.726h-32.898
	c1.958-16.159,2.983-33.83,2.983-51.726S142.075,54.453,140.116,38.294z M192.224,401.774c0.397,2.595-0.358,5.233-2.068,7.225
	c-1.709,1.991-4.204,3.137-6.828,3.137h-53.524c-2.625,0-5.119-1.146-6.828-3.137c-1.71-1.991-2.465-4.63-2.068-7.225
	c1.724-11.268,2.934-23.45,3.598-36.209c0.258-4.963,4.507-8.749,9.455-8.521c4.964,0.259,8.779,4.492,8.521,9.456
	c-0.496,9.546-1.288,18.802-2.361,27.635h32.894c-0.266-2.188-0.514-4.397-0.742-6.618c-0.509-4.944,3.086-9.365,8.031-9.875
	c4.95-0.505,9.365,3.087,9.875,8.031C190.743,391.178,191.432,396.595,192.224,401.774z"/>
<g>
</g>
<g>
</g>
<g>
</g>
<g>
</g>
<g>
</g>
<g>
</g>
<g>
</g>
<g>
</g>
<g>
</g>
<g>
</g>
<g>
</g>
<g>
</g>
<g>
</g>
<g>
</g>
<g>
</g>
</svg>
