<?xml version="1.0" encoding="iso-8859-1"?>
<!-- Generator: Adobe Illustrator 17.1.0, SVG Export Plug-In . SVG Version: 6.00 Build 0)  -->
<!DOCTYPE svg PUBLIC "-//W3C//DTD SVG 1.1//EN" "http://www.w3.org/Graphics/SVG/1.1/DTD/svg11.dtd">
<svg version="1.1" id="Capa_1" xmlns="http://www.w3.org/2000/svg" xmlns:xlink="http://www.w3.org/1999/xlink" x="0px" y="0px"
	 viewBox="0 0 394.315 394.315" style="enable-background:new 0 0 394.315 394.315;" xml:space="preserve">
<path id="XMLID_351_" d="M217.396,41.216c4.804,1.275,7.664,6.204,6.388,11.008c-1.276,4.804-6.202,7.666-11.009,6.388
	c-6.475-1.719-13.256-2.591-20.154-2.591c-10.583,0-21.052,2.105-30.275,6.089c-1.163,0.502-2.374,0.74-3.564,0.74
	c-3.483,0-6.798-2.034-8.267-5.434c-1.971-4.563,0.131-9.86,4.694-11.831c11.458-4.949,24.396-7.564,37.412-7.564
	C201.079,38.021,209.414,39.096,217.396,41.216z M334.242,63.543c-3.721-3.294-9.408-2.951-12.705,0.77l-13.28,14.993
	c-3.296,3.721-2.951,9.409,0.77,12.705c1.713,1.517,3.843,2.263,5.965,2.263c2.486,0,4.962-1.025,6.74-3.033l13.28-14.993
	C338.307,72.527,337.963,66.839,334.242,63.543z M140.896,29.063C153.149,22.136,172.486,18,192.621,18
	c20.135,0,39.47,4.136,51.723,11.063c1.399,0.792,2.921,1.167,4.422,1.167c3.139,0,6.188-1.645,7.843-4.572
	c2.446-4.327,0.921-9.817-3.405-12.264C238.146,4.882,216.065,0,192.621,0c-23.446,0-45.528,4.882-60.583,13.394
	c-4.327,2.446-5.852,7.937-3.405,12.264C131.079,29.985,136.571,31.51,140.896,29.063z M366.569,87.729L170.033,320.493
	l-25.421,34.205c2.913,9.217,1.322,19.438-4.557,27.35c-5.965,8.024-15.16,12.267-24.464,12.267c-6.31,0-12.668-1.95-18.109-5.993
	l-25.891-19.242c-13.466-10.008-16.278-29.105-6.271-42.571c5.878-7.912,15.199-12.406,24.874-12.254l25.42-34.207L281.808,24.733
	c6.583-10.114,17.601-14.981,31.01-13.707c22.764,2.165,49.293,21.881,57.932,43.054C375.841,66.558,374.356,78.508,366.569,87.729z
	 M150.385,316.755l-25.525-18.971l-23.281,31.328c-2.108,2.837-5.683,4.178-9.137,3.426c-0.89-0.194-1.787-0.288-2.674-0.288
	c-3.899,0-7.638,1.815-10,4.995c-4.088,5.501-2.939,13.301,2.56,17.388l25.891,19.241c5.499,4.086,13.3,2.937,17.391-2.563
	c2.898-3.902,3.232-9.2,0.849-13.493c-1.716-3.091-1.463-6.9,0.645-9.737L150.385,316.755z M354.084,60.881
	c-6.076-14.893-26.959-30.412-42.97-31.935c-9.96-0.952-13.165,3.985-14.22,5.606L135.162,283.014l26.395,19.618L352.816,76.116
	C354.064,74.638,357.862,70.141,354.084,60.881z M78.479,137.962c-31.918,0-57.886-25.967-57.886-57.886S46.561,22.19,78.479,22.19
	c31.918,0,57.885,25.968,57.885,57.886S110.397,137.962,78.479,137.962z M78.479,119.962c21.993,0,39.885-17.893,39.885-39.886
	S100.472,40.19,78.479,40.19c-21.993,0-39.886,17.893-39.886,39.886S56.486,119.962,78.479,119.962z"/>
<g>
</g>
<g>
</g>
<g>
</g>
<g>
</g>
<g>
</g>
<g>
</g>
<g>
</g>
<g>
</g>
<g>
</g>
<g>
</g>
<g>
</g>
<g>
</g>
<g>
</g>
<g>
</g>
<g>
</g>
</svg>
