<?xml version="1.0" encoding="iso-8859-1"?>
<!-- Generator: Adobe Illustrator 17.1.0, SVG Export Plug-In . SVG Version: 6.00 Build 0)  -->
<!DOCTYPE svg PUBLIC "-//W3C//DTD SVG 1.1//EN" "http://www.w3.org/Graphics/SVG/1.1/DTD/svg11.dtd">
<svg version="1.1" id="Capa_1" xmlns="http://www.w3.org/2000/svg" xmlns:xlink="http://www.w3.org/1999/xlink" x="0px" y="0px"
	 viewBox="0 0 426.612 426.612" style="enable-background:new 0 0 426.612 426.612;" xml:space="preserve">
<path id="XMLID_2097_" d="M18.74,216.661c-7.699,10.326-10.902,22.479-8.107,32.733c0.689,2.529,2.448,4.633,4.815,5.76
	c9.586,4.562,22.096,3.568,33.643-2.189c5.092,11.833,14.015,20.684,24.295,23.391c0.755,0.199,1.525,0.297,2.291,0.297
	c1.805,0,3.588-0.543,5.104-1.587c8.756-6.027,14.154-17.376,14.938-30.229c12.784,1.511,24.913-1.798,32.395-9.346
	c1.846-1.862,2.788-4.437,2.58-7.051c-0.844-10.596-7.971-20.942-18.71-28.049c7.696-10.324,10.898-22.474,8.104-32.728
	c-0.689-2.53-2.448-4.634-4.816-5.761c-9.593-4.565-22.11-3.568-33.644,2.183c-5.093-11.83-14.016-20.68-24.294-23.385
	c-2.534-0.667-5.234-0.195-7.394,1.289c-8.75,6.023-14.147,17.359-14.932,30.229c-12.793-1.506-24.918,1.798-32.401,9.348
	c-1.845,1.861-2.787,4.435-2.579,7.048C0.87,199.205,7.99,209.548,18.74,216.661z M41.289,192.104l0.195,0.073
	c3.032,1.137,6.441,0.559,8.927-1.518c2.486-2.075,3.666-5.325,3.089-8.512l-0.027-0.15c-1.612-9.234,0.276-17.104,3.453-21.805
	c4.57,3.34,9.004,10.083,10.625,19.288l0.021,0.135c0.512,3.206,2.709,5.888,5.753,7.019c3.042,1.132,6.459,0.536,8.94-1.559
	l0.128-0.108c7.19-6.014,14.942-8.31,20.608-7.911c-0.607,5.639-4.238,12.862-11.401,18.854l-0.162,0.134
	c-2.497,2.066-3.69,5.316-3.122,8.508c0.567,3.191,2.807,5.831,5.863,6.911l0.144,0.051c8.779,3.224,14.634,8.784,17.113,13.878
	c-5.187,2.293-13.255,2.762-22.009-0.442l-0.196-0.073c-3.02-1.129-6.414-0.558-8.896,1.5c-2.482,2.058-3.675,5.286-3.125,8.464
	l0.038,0.22c1.612,9.234-0.276,17.104-3.452,21.803c-4.58-3.345-9.021-10.102-10.626-19.299l-0.035-0.205
	c-0.54-3.196-2.757-5.854-5.804-6.96c-1-0.363-2.038-0.54-3.069-0.54c-2.111,0-4.192,0.743-5.848,2.158l-0.083,0.071
	c-7.193,6.015-14.948,8.319-20.611,7.913c0.607-5.639,4.237-12.861,11.395-18.848l0.16-0.132c2.494-2.06,3.691-5.298,3.136-8.483
	c-0.555-3.187-2.775-5.83-5.818-6.925l-0.151-0.055c-8.804-3.222-14.675-8.792-17.156-13.893
	C24.469,189.369,32.536,188.901,41.289,192.104z M129.889,262.772c4.971,0,9,4.029,9,9v55.971c0,4.971-4.029,9-9,9
	c-4.971,0-9-4.029-9-9v-55.971C120.889,266.801,124.918,262.772,129.889,262.772z M214.157,50.208
	c-1.97-14.051,3.605-25.146,16.124-32.085c4.348-2.41,9.825-0.839,12.235,3.509s0.839,9.825-3.508,12.235
	c-11.179,6.196-8.874,15.691,3.728,41.079c5.401,10.881,10.985,22.133,12.477,32.827c1.964,14.086-3.639,25.213-16.205,32.178
	c-1.382,0.766-2.879,1.13-4.354,1.13c-3.166,0-6.236-1.674-7.88-4.639c-2.41-4.348-0.839-9.825,3.509-12.235
	c11.277-6.25,8.975-15.783-3.67-41.258C221.223,72.092,215.651,60.867,214.157,50.208z M178.622,50.208
	c-1.97-14.051,3.606-25.146,16.125-32.085c4.348-2.41,9.825-0.839,12.235,3.509c2.41,4.348,0.839,9.825-3.508,12.235
	c-11.179,6.196-8.875,15.691,3.727,41.079c5.401,10.882,10.986,22.133,12.477,32.827c1.964,14.086-3.639,25.213-16.205,32.178
	c-1.382,0.766-2.879,1.13-4.354,1.13c-3.166,0-6.236-1.674-7.88-4.639c-2.41-4.348-0.839-9.825,3.509-12.235
	c11.277-6.25,8.974-15.783-3.67-41.258C185.688,72.093,180.117,60.867,178.622,50.208z M86.468,283.51c4.971,0,9,4.029,9,9v28.946
	c0,4.971-4.029,9-9,9s-9-4.029-9-9V292.51C77.468,287.54,81.497,283.51,86.468,283.51z M394.125,335.131
	c0.021-1.22,0.037-2.663,0.037-4.513V203.945c0-0.889-0.129-1.747-0.369-2.558c-2.086-12.757-20.142-21.964-56.35-28.833
	c-32.284-6.124-75.09-9.497-120.534-9.497c-2.029,0-6.751,0.023-7.094,0.027c-22.608,0.174-44.416,1.184-64.928,3.006
	c-4.951,0.44-8.608,4.811-8.168,9.762c0.44,4.95,4.805,8.595,9.762,8.168c19.931-1.771,41.142-2.756,63.148-2.934
	c0.012,0,1.974-0.012,2.258-0.012c37.503,0,61.989,10.982,71.647,20.537c2.835,2.804,4.528,5.682,4.528,7.696
	c0,5.889-26.168,17.149-67.195,17.149c-22.314,0-36.019-6.472-39.748-10.173c2.627-1.559,10.345-4.674,30.021-4.674
	c4.971,0,9-4.029,9-9s-4.029-9-9-9c-14.289,0-25.599,1.525-33.618,4.534c-13.233,4.966-15.209,13.18-15.209,17.633
	c0,3.364,1.066,6.559,3.05,9.51c-3.211-0.198-6.396-0.416-9.552-0.652c-4.96-0.392-9.276,3.345-9.647,8.302
	c-0.372,4.957,3.346,9.276,8.302,9.647c19.907,1.492,40.917,2.248,62.443,2.248c45.445,0,88.251-3.373,120.534-9.497
	c16.692-3.166,29.528-6.83,38.718-11.109v106.393c0,3.175-0.106,7.26-0.112,7.507c-5.297,2.276-19.833,6.81-49.274,11.326
	c-33.595,5.153-72.614,7.992-109.87,7.992c-40.474,0-79.445-2.103-109.735-5.921c-35.356-4.457-46.421-9.642-49.349-11.452v-50.513
	c0-4.971-4.029-9-9-9s-9,4.029-9,9v45.536c-15.515,5.083-32.601,13.252-32.601,27.452c0,13.573,15.873,20.692,21.088,23.032
	c10.749,4.821,25.895,9.104,45.016,12.732c38.441,7.292,89.436,11.309,143.59,11.309c54.154,0,105.149-4.017,143.591-11.309
	c19.122-3.628,34.268-7.911,45.017-12.732c5.216-2.34,21.088-9.459,21.088-23.032C426.612,348.383,409.612,340.218,394.125,335.131z
	 M328.116,218.729c-8.335,1.431-17.352,2.686-26.893,3.753c3.076-3.772,4.84-8.139,4.84-13.174c0-7.021-3.413-14.107-9.87-20.494
	c-1.56-1.543-3.271-3.028-5.12-4.453c13.334,1.263,25.805,2.872,37.042,4.8c31.513,5.408,43.888,11.784,47.219,14.784
	C372.003,206.945,359.629,213.321,328.116,218.729z M352.099,381.551c-36.749,6.493-84.758,10.068-135.183,10.068
	s-98.434-3.575-135.182-10.068c-40.963-7.237-54.153-15.719-56.322-18.963c0.928-1.222,4.884-5.237,19.138-10.078
	c4.575,4.321,11.29,6.6,14.59,7.72c8.989,3.051,21.652,5.761,37.636,8.056c32.157,4.616,74.821,7.158,120.131,7.158
	c55.865,0,99.381-5.918,120.348-9.446c14.984-2.521,27.835-5.363,37.165-8.221c5.012-1.534,9.963-3.238,13.632-5.679
	c15.261,5.023,19.417,9.233,20.371,10.49C406.252,365.833,393.063,374.314,352.099,381.551z M346.994,330.457c-4.971,0-9-4.029-9-9
	v-55.971c0-4.971,4.029-9,9-9c4.971,0,9,4.029,9,9v55.971C355.994,326.427,351.964,330.457,346.994,330.457z M173.31,340.448
	c-4.971,0-9-4.029-9-9v-55.971c0-4.971,4.029-9,9-9s9,4.029,9,9v55.971C182.31,336.419,178.281,340.448,173.31,340.448z
	 M216.73,340.448c-4.971,0-9-4.029-9-9v-55.971c0-4.971,4.029-9,9-9s9,4.029,9,9v55.971
	C225.73,336.419,221.701,340.448,216.73,340.448z M260.151,340.448c-4.971,0-9-4.029-9-9v-55.971c0-4.971,4.029-9,9-9s9,4.029,9,9
	v55.971C269.151,336.419,265.122,340.448,260.151,340.448z M303.573,336.743c-4.971,0-9-4.029-9-9v-55.971c0-4.971,4.029-9,9-9
	s9,4.029,9,9v55.971C312.573,332.714,308.543,336.743,303.573,336.743z"/>
<g>
</g>
<g>
</g>
<g>
</g>
<g>
</g>
<g>
</g>
<g>
</g>
<g>
</g>
<g>
</g>
<g>
</g>
<g>
</g>
<g>
</g>
<g>
</g>
<g>
</g>
<g>
</g>
<g>
</g>
</svg>
