<?xml version="1.0" encoding="iso-8859-1"?>
<!-- Generator: Adobe Illustrator 17.1.0, SVG Export Plug-In . SVG Version: 6.00 Build 0)  -->
<!DOCTYPE svg PUBLIC "-//W3C//DTD SVG 1.1//EN" "http://www.w3.org/Graphics/SVG/1.1/DTD/svg11.dtd">
<svg version="1.1" id="Capa_1" xmlns="http://www.w3.org/2000/svg" xmlns:xlink="http://www.w3.org/1999/xlink" x="0px" y="0px"
	 viewBox="0 0 405.064 405.064" style="enable-background:new 0 0 405.064 405.064;" xml:space="preserve">
<path id="XMLID_854_" d="M262.163,32.685c-2.223-17.267,6.773-26.601,14.712-31.39c4.258-2.568,9.788-1.199,12.355,3.057
	s1.199,9.788-3.057,12.355c-10.005,6.036-7.885,15.411,3.565,40.521c4.859,10.654,9.883,21.672,11.218,32.096
	c2.217,17.31-6.815,26.674-14.783,31.48c-1.455,0.878-3.058,1.295-4.641,1.295c-3.05,0-6.024-1.55-7.715-4.352
	c-2.568-4.256-1.199-9.788,3.057-12.355c10.093-6.089,7.975-15.502-3.514-40.696C268.513,54.067,263.501,43.074,262.163,32.685z
	 M169.27,63.68c0-19.177,12.27-35.97,30.532-41.786c1.778-0.566,3.687-0.566,5.463,0c18.26,5.816,30.528,22.609,30.528,41.786
	c0,19.176-12.268,35.969-30.527,41.786c-0.889,0.283-1.811,0.425-2.732,0.425c-0.922,0-1.843-0.142-2.732-0.425
	C181.54,99.649,169.27,82.856,169.27,63.68z M187.27,63.68c0,10.321,6.025,19.47,15.263,23.595
	c9.235-4.125,15.26-13.274,15.26-23.595c0-10.321-6.024-19.471-15.26-23.595C193.296,44.21,187.27,53.359,187.27,63.68z
	 M315.298,76.791c11.489,25.194,13.606,34.606,3.514,40.695c-4.256,2.567-5.625,8.1-3.057,12.355
	c1.69,2.802,4.665,4.352,7.715,4.352c1.583,0,3.186-0.418,4.641-1.295c7.968-4.807,17-14.171,14.783-31.479
	c-1.335-10.424-6.359-21.441-11.218-32.096c-11.451-25.11-13.57-34.486-3.565-40.522c4.256-2.567,5.625-8.1,3.057-12.355
	c-2.567-4.256-8.099-5.627-12.355-3.057c-7.939,4.789-16.937,14.123-14.713,31.39C305.437,55.169,310.45,66.161,315.298,76.791z
	 M172.261,297.055c-13.458,0-24.408-10.949-24.408-24.408s10.95-24.409,24.408-24.409c13.458,0,24.407,10.95,24.407,24.409
	S185.719,297.055,172.261,297.055z M172.261,279.055c3.533,0,6.407-2.875,6.407-6.408c0-3.534-2.874-6.409-6.407-6.409
	c-3.534,0-6.408,2.875-6.408,6.409C165.853,276.18,168.727,279.055,172.261,279.055z M136.948,175.521
	c16.375,0,29.697,13.322,29.697,29.697s-13.322,29.697-29.697,29.697c-16.375,0-29.698-13.322-29.698-29.697
	S120.573,175.521,136.948,175.521z M125.25,205.218c0,6.45,5.248,11.697,11.698,11.697c6.45,0,11.697-5.247,11.697-11.697
	s-5.247-11.697-11.697-11.697C130.498,193.521,125.25,198.768,125.25,205.218z M328.763,161.27
	c-9.228-3.776-22.021-7.013-38.023-9.618c-4.907-0.8-9.531,2.53-10.33,7.437c-0.799,4.905,2.53,9.53,7.437,10.329
	c25.106,4.089,36.507,9.025,40.564,11.78c-3.339,2.308-12.72,6.995-37.291,11.268c-24.392,4.242-55.853,6.578-88.587,6.578
	c-3.746,0-7.581-0.032-11.396-0.095c-4.992-0.088-9.065,3.881-9.147,8.852c-0.082,4.97,3.881,9.064,8.851,9.146
	c3.915,0.064,7.848,0.097,11.692,0.097c36.952,0,71.778-2.851,98.063-8.027c10.465-2.061,19.113-4.386,26.017-7.021l-25.075,171.058
	c-6.054,5.042-40.233,14.011-99.005,14.011c-58.773,0-92.952-8.968-99.006-14.01l-25.073-171.03c2.003,0.75,3.988,1.413,5.872,2.004
	c4.739,1.49,9.793-1.148,11.283-5.889c1.489-4.742-1.147-9.794-5.89-11.284c-7.383-2.318-11.184-4.364-13.064-5.658
	c4.06-2.756,15.462-7.691,40.563-11.779c4.906-0.799,8.235-5.424,7.436-10.329c-0.799-4.906-5.419-8.232-10.33-7.437
	c-16.003,2.605-28.796,5.842-38.023,9.618c-4.698,1.923-18.994,7.773-18.994,19.947c0,1.274,0.152,2.484,0.437,3.634L85.64,375.134
	c0.225,11.027,12.237,18.295,38.86,23.537c20.934,4.122,48.646,6.393,78.033,6.393c29.386,0,57.099-2.271,78.032-6.393
	c26.616-5.241,38.629-12.507,38.859-23.53l27.898-190.322c0.29-1.165,0.433-2.365,0.433-3.602
	C347.757,169.044,333.461,163.193,328.763,161.27z M145.262,326.828c-3.515,3.515-3.515,9.214,0,12.729l0.855,0.855
	c1.757,1.757,4.061,2.636,6.364,2.636s4.606-0.879,6.364-2.636c3.515-3.515,3.515-9.214,0-12.729l-0.855-0.855
	C154.475,323.314,148.777,323.314,145.262,326.828z M151.125,166.124c4.536,2.04,9.861,0.018,11.9-4.516
	c5.119-11.38,15.062-24.945,33.361-24.945h12.293c27.452,0,36.18,30.54,38.202,39.906l0.19,0.879
	c0.914,4.217,4.642,7.097,8.787,7.097c0.631,0,1.272-0.067,1.915-0.206c4.858-1.053,7.943-5.844,6.89-10.702l-0.189-0.872
	c-7.206-33.371-28.585-54.102-55.795-54.102h-12.293c-21.469,0-39.612,12.962-49.777,35.561
	C144.57,158.756,146.592,164.085,151.125,166.124z"/>
<g>
</g>
<g>
</g>
<g>
</g>
<g>
</g>
<g>
</g>
<g>
</g>
<g>
</g>
<g>
</g>
<g>
</g>
<g>
</g>
<g>
</g>
<g>
</g>
<g>
</g>
<g>
</g>
<g>
</g>
</svg>
