<?xml version="1.0" encoding="iso-8859-1"?>
<!-- Generator: Adobe Illustrator 17.1.0, SVG Export Plug-In . SVG Version: 6.00 Build 0)  -->
<!DOCTYPE svg PUBLIC "-//W3C//DTD SVG 1.1//EN" "http://www.w3.org/Graphics/SVG/1.1/DTD/svg11.dtd">
<svg version="1.1" id="Capa_1" xmlns="http://www.w3.org/2000/svg" xmlns:xlink="http://www.w3.org/1999/xlink" x="0px" y="0px"
	 viewBox="0 0 393.998 393.998" style="enable-background:new 0 0 393.998 393.998;" xml:space="preserve">
<path id="XMLID_2236_" d="M116.551,61.628c-1.926-14.954,3.408-26.343,15.853-33.851c4.256-2.568,9.788-1.199,12.355,3.057
	c2.568,4.257,1.199,9.788-3.057,12.355c-12.369,7.462-8.186,20.422,3.568,46.196c5.359,11.751,10.9,23.903,12.363,35.318
	c1.921,14.992-3.439,26.415-15.931,33.951c-1.454,0.878-3.058,1.295-4.64,1.295c-3.05,0-6.025-1.55-7.715-4.352
	c-2.568-4.257-1.199-9.788,3.057-12.355c12.471-7.524,8.281-20.53-3.512-46.39C123.545,85.129,118.017,73.005,116.551,61.628z
	 M183.653,100.673c0-19.177,12.27-35.969,30.531-41.785c1.777-0.566,3.686-0.566,5.463,0c18.262,5.816,30.531,22.608,30.531,41.785
	c0,19.178-12.27,35.971-30.531,41.787c-0.889,0.283-1.81,0.425-2.731,0.425s-1.843-0.142-2.731-0.425
	C195.923,136.644,183.653,119.851,183.653,100.673z M201.653,100.673c0,10.322,6.025,19.472,15.262,23.596
	c9.237-4.124,15.263-13.273,15.263-23.596c0-10.321-6.025-19.47-15.263-23.594C207.679,81.203,201.653,90.352,201.653,100.673z
	 M152.237,222.429c-1.049,4.858,2.039,9.647,6.897,10.696c0.64,0.139,1.279,0.205,1.909,0.205c4.147,0,7.877-2.884,8.789-7.103
	l2.736-12.671c2.021-9.36,10.75-39.9,38.202-39.9h12.292c27.455,0,36.18,30.54,38.201,39.899l2.735,12.671
	c1.048,4.859,5.839,7.942,10.696,6.899c4.858-1.049,7.947-5.838,6.898-10.696l-2.735-12.671
	c-7.203-33.372-28.582-54.103-55.795-54.103H210.77c-27.211,0-48.591,20.73-55.797,54.102L152.237,222.429z M49.091,277.372
	c-11.547,5.759-24.057,6.751-33.643,2.189c-2.368-1.127-4.126-3.23-4.816-5.76c-2.795-10.255,0.407-22.407,8.108-32.733
	C7.99,233.954,0.87,223.612,0.028,213.023c-0.208-2.612,0.734-5.187,2.579-7.048c7.482-7.551,19.606-10.855,32.403-9.348
	c0.786-12.875,6.182-24.208,14.93-30.229c2.159-1.484,4.86-1.955,7.393-1.29c10.279,2.706,19.202,11.556,24.295,23.387
	c11.534-5.752,24.05-6.748,33.644-2.184c2.368,1.127,4.126,3.23,4.816,5.761c2.794,10.254-0.407,22.403-8.104,32.728
	c10.739,7.106,17.867,17.454,18.71,28.049c0.208,2.614-0.734,5.188-2.58,7.051c-7.481,7.548-19.606,10.853-32.395,9.347
	c-0.784,12.852-6.182,24.2-14.938,30.228c-1.516,1.044-3.298,1.587-5.104,1.587c-0.766,0-1.535-0.098-2.291-0.296
	C63.107,298.058,54.183,289.206,49.091,277.372z M48.414,256.424c1.656-1.415,3.736-2.158,5.848-2.158
	c1.031,0,2.069,0.177,3.069,0.54c3.046,1.105,5.264,3.764,5.804,6.96l0.035,0.205c1.605,9.199,6.046,15.955,10.626,19.3
	c3.176-4.7,5.064-12.569,3.453-21.805l-0.038-0.219c-0.55-3.179,0.644-6.408,3.128-8.466c2.484-2.058,5.879-2.627,8.9-1.495
	l0.195,0.073c8.75,3.202,16.817,2.733,22.002,0.439c-2.478-5.092-8.332-10.652-17.108-13.876l-0.149-0.053
	c-3.056-1.08-5.296-3.72-5.863-6.911s0.625-6.441,3.122-8.508l0.162-0.134c7.163-5.991,10.794-13.215,11.401-18.854
	c-5.661-0.394-13.417,1.898-20.608,7.911l-0.127,0.108c-2.481,2.095-5.897,2.691-8.94,1.559c-3.043-1.131-5.241-3.813-5.752-7.019
	l-0.022-0.139c-1.622-9.202-6.055-15.945-10.625-19.284c-3.176,4.7-5.065,12.569-3.453,21.806l0.024,0.129
	c0.584,3.188-0.591,6.445-3.078,8.525s-5.9,2.664-8.935,1.524l-0.195-0.073c-8.751-3.202-16.818-2.733-22.003-0.439
	c2.481,5.102,8.353,10.672,17.156,13.894l0.15,0.055c3.043,1.095,5.264,3.738,5.818,6.925c0.555,3.186-0.643,6.424-3.136,8.483
	l-0.16,0.132c-7.159,5.986-10.789,13.209-11.395,18.848c5.652,0.396,13.417-1.898,20.611-7.913L48.414,256.424z M123.538,300.836
	c-3.04-3.933-8.691-4.659-12.625-1.617c-3.933,3.04-4.657,8.692-1.617,12.625c10.776,13.941,24.053,20.983,39.531,20.983
	c1.674-0.001,3.376-0.083,5.101-0.248c14.546-1.392,28.803-8.244,42.591-14.871c8.118-3.902,15.786-7.588,23.044-9.954
	c12.102-3.946,21.61-3.423,35.079,1.931c5.648,2.244,11.438,5.043,17.567,8.006c13.715,6.631,27.897,13.487,42.383,14.879
	c17.594,1.684,32.569-5.283,44.504-20.726c3.04-3.934,2.315-9.586-1.618-12.625c-3.933-3.039-9.585-2.314-12.625,1.617
	c-17.125,22.158-35.785,14.681-64.81,0.649c-6.147-2.972-12.503-6.045-18.754-8.528c-17.416-6.923-31.121-7.593-47.306-2.316
	c-8.397,2.738-16.971,6.858-25.262,10.844C159.481,315.541,140.688,323.027,123.538,300.836z M366.516,204.256
	c-14.128-4.78-34.277-8.842-58.269-11.743c-4.933-0.602-9.418,2.919-10.016,7.854c-0.597,4.935,2.92,9.419,7.854,10.016
	c47.583,5.756,65.146,14.133,69.263,17.957c-3.309,2.995-15.673,9.382-47.233,14.798c-30.451,5.227-69.944,8.104-111.206,8.104
	c-21.089,0-41.646-0.74-61.097-2.199c-4.957-0.389-9.276,3.345-9.648,8.301c-0.372,4.957,3.345,9.276,8.301,9.648
	c19.898,1.493,40.907,2.25,62.444,2.25c45.444,0,88.25-3.373,120.534-9.497c16.593-3.148,29.376-6.788,38.555-11.035v87.396
	c0,3.173-0.048,4.996-0.095,6.758c-0.006,0.252-0.013,0.501-0.02,0.75c-5.296,2.276-19.832,6.809-49.274,11.326
	c-33.595,5.153-72.613,7.992-109.867,7.992c-40.474,0-79.446-2.103-109.736-5.921c-35.356-4.457-46.42-9.642-49.348-11.452v-31.592
	c0-4.971-4.029-9-9-9s-9,4.029-9,9v33.837c0,11.358,14.034,16.121,19.317,17.914c8.989,3.051,21.652,5.761,37.636,8.056
	c32.158,4.616,74.821,7.158,120.132,7.158c55.862,0,99.378-5.918,120.346-9.445c14.983-2.521,27.835-5.364,37.165-8.222
	c9.904-3.033,19.574-6.725,19.574-15.461c0-1.799,0.034-3.073,0.071-4.466c0.047-1.791,0.101-3.821,0.101-7.232V228.353
	C393.998,215.09,378.313,208.249,366.516,204.256z M82.376,83.441c11.792,25.859,15.982,38.865,3.511,46.39
	c-4.256,2.567-5.625,8.1-3.057,12.355c1.69,2.802,4.665,4.352,7.714,4.352c1.583,0,3.187-0.418,4.641-1.295
	c12.492-7.536,17.852-18.959,15.931-33.951c-1.462-11.415-7.004-23.567-12.363-35.318C87,50.197,82.816,37.237,95.186,29.776
	c4.256-2.567,5.625-8.099,3.058-12.355c-2.567-4.255-8.099-5.627-12.355-3.057C73.443,21.87,68.11,33.26,70.036,48.214
	C71.5,59.591,77.029,71.716,82.376,83.441z"/>
<g>
</g>
<g>
</g>
<g>
</g>
<g>
</g>
<g>
</g>
<g>
</g>
<g>
</g>
<g>
</g>
<g>
</g>
<g>
</g>
<g>
</g>
<g>
</g>
<g>
</g>
<g>
</g>
<g>
</g>
</svg>
