<?xml version="1.0" encoding="iso-8859-1"?>
<!-- Generator: Adobe Illustrator 17.1.0, SVG Export Plug-In . SVG Version: 6.00 Build 0)  -->
<!DOCTYPE svg PUBLIC "-//W3C//DTD SVG 1.1//EN" "http://www.w3.org/Graphics/SVG/1.1/DTD/svg11.dtd">
<svg version="1.1" id="Capa_1" xmlns="http://www.w3.org/2000/svg" xmlns:xlink="http://www.w3.org/1999/xlink" x="0px" y="0px"
	 viewBox="0 0 374.008 374.008" style="enable-background:new 0 0 374.008 374.008;" xml:space="preserve">
<path id="XMLID_1635_" d="M374.008,352.859c0,4.971-4.029,9-9,9H9c-4.971,0-9-4.029-9-9s4.029-9,9-9h356.008
	C369.979,343.859,374.008,347.888,374.008,352.859z M253.294,173.248l13.4-8.549c4.191-2.673,9.755-1.443,12.428,2.747
	c2.674,4.19,1.444,9.755-2.746,12.428l-7.872,5.022l3.698,12.569c3.281-0.498,6.638-0.755,10.056-0.755
	c36.845,0,66.819,29.975,66.819,66.819c0,36.845-29.975,66.82-66.819,66.82s-66.819-29.975-66.819-66.82
	c0-27.116,16.237-50.512,39.498-60.976l-2.229-7.579l-3.478,2.219c-4.191,2.674-9.756,1.443-12.428-2.747
	c-2.674-4.19-1.444-9.755,2.746-12.428l13.392-8.544C253.056,173.396,253.174,173.321,253.294,173.248z M260.082,220.042
	c-15.802,8.092-26.644,24.547-26.644,43.486c0,26.919,21.9,48.82,48.819,48.82s48.819-21.9,48.819-48.82
	c0-26.919-21.9-48.819-48.819-48.819c-1.656,0-3.296,0.083-4.91,0.245l13.544,46.034c0.801,2.722,0.271,5.661-1.428,7.932
	c-1.699,2.271-4.369,3.608-7.206,3.608H255.27c-4.971,0-9-4.029-9-9s4.029-9,9-9h14.959L260.082,220.042z M24.927,263.528
	c0-36.844,29.975-66.819,66.819-66.819c0.96,0,1.914,0.02,2.864,0.061l3.532-19.633l-7.387,0c-4.97,0-8.999-4.03-8.999-9
	c0-4.97,4.03-9,9-9c0,0,0,0,0.001,0l18.072,0.001c0.044,0,0.089,0,0.131,0l17.396,0.001l94.138-62.599
	c1.993-1.326,4.435-1.802,6.777-1.325c2.346,0.477,4.404,1.869,5.721,3.867l9.368,14.217c10.819,16.421,15.55,24.435,15.437,32.258
	c-0.145,10.006-7.771,15.045-17.428,21.424c-1.956,1.292-4.174,2.757-6.547,4.388c-28.144,19.338-42.99,29.91-46.421,40.24
	c-3.212,9.67,2.316,23.404,15.696,52.437c2.041,4.43,0.183,9.68-4.191,11.838l-17.508,8.64c-4.458,2.2-9.854,0.369-12.053-4.088
	c-2.2-4.458-0.37-9.854,4.088-12.054l9.666-4.77c-12.137-26.729-17.83-42.475-12.781-57.677
	c5.497-16.549,23.494-28.916,53.311-49.403c2.509-1.724,4.798-3.236,6.818-4.571c3.9-2.576,8.297-5.48,9.341-6.901
	c-0.327-3.447-8.188-15.377-12.458-21.858l-4.395-6.67l-88.877,59.1c-1.477,0.982-3.21,1.506-4.983,1.506c0,0,0,0-0.001,0
	l-12.645-0.001l-4.104,22.813c26.805,8.698,46.238,33.911,46.238,63.577c0,36.845-29.975,66.82-66.819,66.82
	S24.927,300.373,24.927,263.528z M42.927,263.528c0,26.919,21.9,48.82,48.819,48.82s48.819-21.9,48.819-48.82
	c0-20.811-13.089-38.622-31.466-45.633l-6.59,36.634l16.357,0.001c4.971,0,9,4.03,8.999,9.001c0,4.97-4.03,8.999-9,8.999
	c0,0,0,0-0.001,0l-27.12-0.002c-2.665,0-5.193-1.182-6.903-3.227s-2.426-4.743-1.953-7.366l8.494-47.225
	C64.631,214.907,42.927,236.731,42.927,263.528z M162.147,66.929c-9.144-16.908-6.332-37.564,6.994-51.401
	c1.294-1.343,2.974-2.251,4.807-2.599c18.872-3.578,37.699,5.379,46.844,22.287c9.144,16.909,6.332,37.565-6.996,51.401
	c-1.294,1.343-2.973,2.251-4.805,2.598c-2.768,0.525-5.537,0.78-8.271,0.78C184.802,89.996,169.951,81.358,162.147,66.929z
	 M177.98,58.367c4.932,9.12,14.628,14.32,24.761,13.548c6.194-8.055,7.149-19.017,2.218-28.137
	c-4.933-9.119-14.622-14.325-24.761-13.549C174.004,38.285,173.05,49.248,177.98,58.367z"/>
<g>
</g>
<g>
</g>
<g>
</g>
<g>
</g>
<g>
</g>
<g>
</g>
<g>
</g>
<g>
</g>
<g>
</g>
<g>
</g>
<g>
</g>
<g>
</g>
<g>
</g>
<g>
</g>
<g>
</g>
</svg>
