<?xml version="1.0" encoding="iso-8859-1"?>
<!-- Generator: Adobe Illustrator 17.1.0, SVG Export Plug-In . SVG Version: 6.00 Build 0)  -->
<!DOCTYPE svg PUBLIC "-//W3C//DTD SVG 1.1//EN" "http://www.w3.org/Graphics/SVG/1.1/DTD/svg11.dtd">
<svg version="1.1" id="Capa_1" xmlns="http://www.w3.org/2000/svg" xmlns:xlink="http://www.w3.org/1999/xlink" x="0px" y="0px"
	 viewBox="0 0 393.58 393.58" style="enable-background:new 0 0 393.58 393.58;" xml:space="preserve">
<path id="XMLID_2154_" d="M248.561,27.065c-1.722-14.054,5.395-21.72,11.668-25.676c4.204-2.653,9.763-1.393,12.413,2.812
	c2.651,4.204,1.393,9.762-2.812,12.413c-5.813,3.667-4.155,10.493,3.43,27.882c3.535,8.104,7.19,16.485,8.186,24.563
	c1.728,14.021-5.362,21.665-11.614,25.608c-1.491,0.94-3.152,1.389-4.793,1.389c-2.987,0-5.909-1.486-7.621-4.199
	c-2.651-4.204-1.394-9.763,2.811-12.414c5.751-3.627,4.091-10.424-3.467-27.751C253.218,43.569,249.554,35.17,248.561,27.065z
	 M153.038,42.213c0-19.177,12.271-35.97,30.533-41.786c1.777-0.566,3.686-0.566,5.463,0c18.261,5.817,30.529,22.609,30.529,41.786
	c0,19.175-12.269,35.968-30.528,41.786c-0.889,0.283-1.811,0.425-2.732,0.425s-1.844-0.142-2.732-0.425
	C165.308,78.18,153.038,61.388,153.038,42.213z M171.038,42.213c0,10.32,6.026,19.47,15.265,23.595
	c9.235-4.126,15.261-13.274,15.261-23.595c0-10.321-6.024-19.471-15.261-23.595C177.064,22.742,171.038,31.891,171.038,42.213z
	 M298.004,146.219c0.007,0.197,0.007,0.396,0.001,0.594c-0.044,2.642-0.689,5.129-1.946,7.469l-19.185,63.22
	c1.467-0.823,2.689-1.653,3.657-2.482c3.773-3.235,9.455-2.798,12.69,0.976c3.235,3.774,2.798,9.456-0.976,12.69
	c-4.806,4.119-12.365,7.771-22.052,10.828l-14.373,47.363c0.384-0.297,0.729-0.595,1.035-0.892c3.57-3.459,9.268-3.369,12.727,0.201
	s3.368,9.268-0.201,12.727c-4.645,4.499-11.865,8.065-20.5,10.833l-20.156,66.422c-0.14,0.502-0.325,0.996-0.556,1.477
	c-0.246,0.514-0.536,0.995-0.865,1.442c-7.574,10.68-26.109,14.493-41.007,14.493c-14.898,0-33.434-3.814-41.006-14.497
	c-0.321-0.437-0.605-0.907-0.847-1.408c-0.239-0.491-0.43-0.997-0.572-1.511l-20.153-66.417
	c-8.635-2.768-15.859-6.333-20.505-10.833c-3.571-3.457-3.662-9.155-0.204-12.726c3.457-3.57,9.157-3.663,12.726-0.204
	c6.949,6.729,34.041,13.881,70.562,13.881c19.208,0,35.807-1.978,48.237-4.832l15.339-50.546
	c-18.015,3.391-39.896,5.292-63.576,5.292c-23.676,0-45.559-1.901-63.572-5.292l5.631,18.559c1.443,4.757-1.243,9.782-5.999,11.226
	c-4.762,1.447-9.783-1.243-11.226-5.999l-8.725-28.758c-9.689-3.058-17.249-6.708-22.056-10.828
	c-3.774-3.235-4.212-8.917-0.978-12.69c3.236-3.774,8.918-4.209,12.69-0.978c9.719,8.329,45.207,16.761,94.233,16.761
	c28.587,0,52.573-2.867,69.529-6.908l16.629-54.799c-3.432,1.179-7.215,2.283-11.353,3.316c-20.091,5.016-46.658,7.778-74.806,7.778
	c-28.146,0-54.712-2.763-74.803-7.778c-4.103-1.024-7.857-2.119-11.267-3.287l6.283,20.708c1.443,4.757-1.243,9.782-5.999,11.226
	c-4.759,1.442-9.783-1.243-11.226-5.999l-12.573-41.44c-1.318-2.338-2.019-4.825-2.11-7.468c-0.114-1.005-0.055-2.003,0.158-2.957
	c2.049-14.019,22.083-20.219,28.903-22.329c4.747-1.471,9.788,1.188,11.258,5.938c1.47,4.748-1.188,9.789-5.938,11.258
	c-9.767,3.022-14.259,5.955-15.873,7.501c2.205,2.152,9.549,6.537,27.136,10.418c18.15,4.005,41.607,6.211,66.05,6.211
	c24.443,0,47.901-2.206,66.053-6.211c17.587-3.881,24.931-8.266,27.136-10.418c-1.614-1.546-6.107-4.479-15.873-7.501
	c-4.748-1.47-7.406-6.511-5.937-11.259c1.47-4.749,6.509-7.405,11.259-5.937C276.08,124.052,297.722,130.752,298.004,146.219z
	 M228.628,314.504c-14.026,2.362-29.188,3.361-42.329,3.361c-13.139,0-28.298-0.998-42.324-3.36l16.649,54.869
	c2.799,2.492,11.844,6.206,25.675,6.206c13.833,0,22.879-3.714,25.679-6.207L228.628,314.504z M134.158,147.165
	c4.597,1.88,9.855-0.321,11.737-4.923c4.132-10.101,14.077-27.047,34.26-27.047h12.291c20.185,0,30.128,16.945,34.259,27.046
	c1.425,3.486,4.787,5.596,8.333,5.596c1.135,0,2.289-0.216,3.403-0.672c4.602-1.881,6.806-7.136,4.924-11.736
	c-9.936-24.298-28.495-38.233-50.919-38.233h-12.291c-22.422,0-40.981,13.936-50.92,38.232
	C127.353,140.028,129.557,145.283,134.158,147.165z M318.769,69.059c-0.995-8.078-4.65-16.459-8.186-24.563
	c-7.584-17.389-9.242-24.215-3.43-27.882c4.205-2.651,5.463-8.209,2.812-12.413s-8.207-5.465-12.414-2.812
	c-6.272,3.956-13.388,11.622-11.666,25.675c0.993,8.104,4.656,16.505,8.2,24.628c7.557,17.326,9.217,24.124,3.466,27.751
	c-4.204,2.651-5.462,8.21-2.811,12.414c1.712,2.713,4.634,4.199,7.621,4.199c1.641,0,3.302-0.448,4.793-1.389
	C313.407,90.724,320.497,83.08,318.769,69.059z"/>
<g>
</g>
<g>
</g>
<g>
</g>
<g>
</g>
<g>
</g>
<g>
</g>
<g>
</g>
<g>
</g>
<g>
</g>
<g>
</g>
<g>
</g>
<g>
</g>
<g>
</g>
<g>
</g>
<g>
</g>
</svg>
