<?xml version="1.0" encoding="iso-8859-1"?>
<!-- Generator: Adobe Illustrator 17.1.0, SVG Export Plug-In . SVG Version: 6.00 Build 0)  -->
<!DOCTYPE svg PUBLIC "-//W3C//DTD SVG 1.1//EN" "http://www.w3.org/Graphics/SVG/1.1/DTD/svg11.dtd">
<svg version="1.1" id="Capa_1" xmlns="http://www.w3.org/2000/svg" xmlns:xlink="http://www.w3.org/1999/xlink" x="0px" y="0px"
	 viewBox="0 0 384.954 384.954" style="enable-background:new 0 0 384.954 384.954;" xml:space="preserve">
<path id="XMLID_541_" d="M247.1,109.875c81.552,32.44,86.706,73.914,94.509,136.692c0.743,5.977,1.512,12.157,2.375,18.578
	c0.662,4.926-2.794,9.457-7.72,10.12c-0.407,0.055-0.812,0.081-1.211,0.081c-4.438,0-8.301-3.282-8.909-7.801
	c-0.875-6.51-1.649-12.736-2.397-18.757c-7.508-60.407-11.644-93.683-83.299-122.187c-4.619-1.837-6.874-7.071-5.036-11.689
	C237.248,110.292,242.486,108.039,247.1,109.875z M234.743,228.122c4.188,2.676,9.754,1.449,12.43-2.74s1.449-9.754-2.74-12.43
	l-36.742-23.469c-2.771-1.769-6.285-1.889-9.169-0.308c-2.883,1.58-4.676,4.605-4.676,7.893v75.389
	c0,23.609,9.105,40.551,25.64,47.704c1.164,0.503,2.376,0.742,3.569,0.742c3.479,0,6.794-2.031,8.264-5.429
	c1.974-4.562-0.124-9.86-4.687-11.834c-12.221-5.287-14.786-19.876-14.786-31.184v-58.961L234.743,228.122z M195.204,63.084
	c1.713,1.518,3.844,2.264,5.966,2.264c2.485,0,4.961-1.024,6.739-3.031c10.521-11.875,16.635-13.481,18.258-13.691
	c4.93-0.637,8.409-5.15,7.772-10.08c-0.638-4.93-5.15-8.409-10.079-7.772c-9.031,1.167-18.931,7.763-29.424,19.605
	C191.141,54.099,191.485,59.787,195.204,63.084z M154.053,189.175c-2.881-1.579-6.396-1.461-9.169,0.308l-36.746,23.469
	c-4.188,2.675-5.416,8.24-2.74,12.429c2.675,4.189,8.239,5.417,12.43,2.741l22.901-14.626v58.961
	c0,11.307-2.566,25.895-14.792,31.184c-32.321,13.986-54.993,24.904-74.853,48.303c-6.484,7.64-15.038,10.723-21.793,7.86
	c-8.512-3.609-12.603-15.812-10.943-32.641c1.303-13.188,3.313-26.816,5.256-39.997c1.218-8.262,2.478-16.806,3.555-25.18
	c0.587-4.521,1.134-8.919,1.665-13.199c7.511-60.408,11.647-93.683,83.301-122.186c4.619-1.837,6.874-7.071,5.036-11.689
	c-1.836-4.618-7.068-6.874-11.688-5.036c-81.55,32.439-86.706,73.913-94.511,136.691c-0.528,4.25-1.071,8.616-1.654,13.115
	c-1.058,8.218-2.305,16.678-3.511,24.86c-1.975,13.39-4.016,27.236-5.36,40.854c-2.474,25.078,5.687,44.136,21.829,50.98
	c3.97,1.684,8.14,2.5,12.344,2.5c10.785,0,21.79-5.376,30.198-15.284c17.373-20.469,37.385-30.063,68.277-43.431
	c16.537-7.154,25.645-24.095,25.645-47.704v-75.389C158.729,193.78,156.936,190.754,154.053,189.175z M229.651,71.627
	c-20.079,7.056-35.807,30.026-35.807,52.294l0.002,24.653c0,3.071,1.566,5.931,4.155,7.584l37.104,23.701
	c1.501,0.959,3.178,1.417,4.836,1.417c2.97,0,5.877-1.468,7.594-4.156c2.676-4.188,1.449-9.753-2.74-12.429l-32.948-21.047
	l-0.002-19.723c0-14.612,10.887-30.783,23.773-35.311c4.689-1.648,7.155-6.786,5.508-11.475
	C239.477,72.445,234.337,69.98,229.651,71.627z M358.768,298.699c-2.917,1.861-6.037,3.738-9.333,5.618
	c0.326,2.541,0.666,5.019,0.998,7.441c0.656,4.792,1.276,9.317,1.703,13.636c2.473,25.081-5.688,44.139-21.831,50.983
	c-3.969,1.683-8.139,2.5-12.342,2.5c-10.785,0-21.788-5.376-30.197-15.284c-7.752-9.133-16.052-16.263-26.721-22.925
	c-12.87,3.702-24.943,6.454-35.484,8.051c-15.548,2.357-36.793,3.946-41.8-9.388c-1.197-3.197-1.751-8.344,2.397-14.746
	c2.702-4.17,8.273-5.362,12.447-2.658c3.436,2.227,4.85,6.4,3.729,10.134c10.216,1.405,40.687-2.423,85.709-19.328
	c44.198-16.598,69.544-33.453,76.854-41.423c-4.301-1.253-7.092-5.545-6.355-10.081c0.796-4.907,5.418-8.236,10.325-7.442
	c9.959,1.616,13.758,6.514,15.191,10.338C389.065,277.454,372.023,290.241,358.768,298.699z M334.223,327.161
	c-0.393-3.979-0.99-8.341-1.624-12.96c-0.043-0.314-0.086-0.629-0.129-0.946c-11.61,5.684-24.532,11.234-38.098,16.328
	c-3.931,1.476-7.848,2.888-11.729,4.23c6.932,5.412,13.096,11.354,18.847,18.13c6.483,7.639,15.035,10.724,21.79,7.861
	C331.791,356.195,335.883,343.992,334.223,327.161z M185.285,15.079c0-4.971-4.029-9-9-9s-9,4.029-9,9v22.094c0,4.971,4.029,9,9,9
	s9-4.029,9-9V15.079z M128.711,30.773c-4.929-0.636-9.442,2.842-10.079,7.772c-0.637,4.93,2.843,9.442,7.772,10.079
	c1.623,0.21,7.737,1.817,18.258,13.691c1.778,2.008,4.253,3.032,6.739,3.032c2.122,0,4.253-0.746,5.966-2.264
	c3.72-3.296,4.063-8.984,0.768-12.705C147.643,38.537,137.743,31.94,128.711,30.773z M122.923,71.627
	c-4.685-1.646-9.826,0.818-11.475,5.507c-1.647,4.689,0.818,9.827,5.508,11.475c12.886,4.528,23.772,20.699,23.772,35.311v19.723
	l-32.953,21.047c-4.188,2.676-5.416,8.24-2.74,12.429c1.717,2.688,4.624,4.157,7.594,4.157c1.657,0,3.335-0.458,4.836-1.416
	l37.108-23.701c2.589-1.653,4.155-4.513,4.155-7.585V123.92C158.729,101.653,143.001,78.683,122.923,71.627z"/>
<g>
</g>
<g>
</g>
<g>
</g>
<g>
</g>
<g>
</g>
<g>
</g>
<g>
</g>
<g>
</g>
<g>
</g>
<g>
</g>
<g>
</g>
<g>
</g>
<g>
</g>
<g>
</g>
<g>
</g>
</svg>
