<?xml version="1.0" encoding="iso-8859-1"?>
<!-- Generator: Adobe Illustrator 17.1.0, SVG Export Plug-In . SVG Version: 6.00 Build 0)  -->
<!DOCTYPE svg PUBLIC "-//W3C//DTD SVG 1.1//EN" "http://www.w3.org/Graphics/SVG/1.1/DTD/svg11.dtd">
<svg version="1.1" id="Capa_1" xmlns="http://www.w3.org/2000/svg" xmlns:xlink="http://www.w3.org/1999/xlink" x="0px" y="0px"
	 viewBox="0 0 378.21 378.21" style="enable-background:new 0 0 378.21 378.21;" xml:space="preserve">
<path id="XMLID_2271_" d="M68.92,69.559c13.304-25.26,20.764-41.378,7.094-53.931c-3.661-3.361-3.904-9.055-0.542-12.716
	s9.056-3.904,12.716-0.542c24.578,22.567,9.098,51.96-3.342,75.577c-13.347,25.339-20.827,41.512-7.054,54.157
	c3.661,3.362,3.904,9.056,0.543,12.717c-1.775,1.933-4.2,2.913-6.632,2.913c-2.176,0-4.356-0.783-6.085-2.37
	C40.932,122.698,56.451,93.234,68.92,69.559z M28.879,148.979c2.432,0,4.856-0.98,6.631-2.913c3.362-3.661,3.119-9.354-0.542-12.716
	c-13.772-12.646-6.291-28.818,7.055-54.157c12.44-23.618,27.921-53.011,3.343-75.578c-3.66-3.363-9.354-3.12-12.716,0.542
	c-3.362,3.661-3.119,9.354,0.542,12.716c13.671,12.553,6.21,28.672-7.095,53.932c-12.47,23.675-27.988,53.139-3.303,75.805
	C24.523,148.196,26.704,148.979,28.879,148.979z M223.617,135.789l-0.129-0.038c-4.763-1.413-9.773,1.314-11.181,6.081
	c-1.409,4.767,1.313,9.772,6.081,11.181l0.099,0.029c46.351,13.868,84.086,45.09,96.136,79.542c1.297,3.708,4.776,6.031,8.495,6.031
	c0.985,0,1.988-0.164,2.972-0.508c4.691-1.641,7.165-6.774,5.523-11.467C317.507,186.312,276.137,151.503,223.617,135.789z
	 M175.847,319.205l-0.057-0.012c-43.901-10.411-81.264-36.199-97.505-67.303c-2.301-4.407-7.739-6.115-12.144-3.812
	c-4.406,2.301-6.112,7.737-3.812,12.144c18.869,36.137,59.732,64.729,109.384,76.503l0.133,0.03
	c0.673,0.153,1.346,0.227,2.008,0.227c4.106,0,7.815-2.829,8.768-7.002C183.727,325.135,180.694,320.31,175.847,319.205z
	 M361.753,285.91c-7.646,31.677-30.138,57.797-63.755,74.3h13.532c4.971,0,9,4.029,9,9s-4.029,9-9,9H109.913c-4.971,0-9-4.029-9-9
	s4.029-9,9-9h17.15c-29.291-12.301-54.652-30.298-73.423-52.436c-26.766-31.567-37.067-67.797-29.019-102.032
	c0.057-0.262,3.768-13.181,7.128-20.201c1.554-3.248,4.931-5.229,8.49-5.107c32.852,1.36,67.582,5.137,103.229,11.226
	c4.899,0.836,8.192,5.487,7.355,10.387c-0.837,4.898-5.477,8.191-10.387,7.355c-32.671-5.58-64.525-9.175-94.79-10.701
	c-0.523,1.361-0.963,2.64-1.366,3.91c32.635,14.275,69.185,27.176,107.613,38.023c4.16-11.092,7.687-22.705,10.512-34.626
	c7.745-32.656,9.646-65.157,5.512-92.6c-20.998,5.021-39.551,23.411-51.74,51.695c-0.69,1.603-1.364,3.247-2.004,4.892
	c-1.801,4.633-7.02,6.931-11.648,5.129c-4.633-1.801-6.93-7.016-5.129-11.648c0.718-1.849,1.477-3.699,2.253-5.499
	c16.45-38.172,43.742-61.412,74.883-63.766c0.09-0.008,0.18-0.013,0.27-0.018c0.18-0.009,0.358-0.014,0.538-0.011
	c17.367,0.01,34.975,2.102,52.335,6.219c25.94,6.15,51.005,16.985,72.484,31.332c23.101,15.43,41.46,34.646,53.094,55.574
	C370.143,217.69,373.08,251.777,361.753,285.91z M341.091,291.845c-47.873-2.803-100.594-10.806-153.289-23.302
	C135.1,256.046,84.4,239.524,40.37,220.536c-5.605,56.85,48.742,115.361,127.058,133.933c15.021,3.562,30.077,5.468,44.779,5.741
	h7.356c22.61-0.423,44.23-4.766,63.462-12.938C311.681,335.092,331.932,315.654,341.091,291.845z M337.521,196.054
	c-20.187-36.311-63.868-66.251-113.999-78.139c-12.462-2.955-25.05-4.778-37.554-5.444c4.13,29.325,2.052,63.537-6.048,97.689
	c-2.866,12.093-6.416,23.898-10.588,35.221c7.487,1.964,15.034,3.849,22.623,5.648c53.316,12.643,106.591,20.593,154.578,23.089
	C354.117,246.703,351.095,220.472,337.521,196.054z"/>
<g>
</g>
<g>
</g>
<g>
</g>
<g>
</g>
<g>
</g>
<g>
</g>
<g>
</g>
<g>
</g>
<g>
</g>
<g>
</g>
<g>
</g>
<g>
</g>
<g>
</g>
<g>
</g>
<g>
</g>
</svg>
