<?xml version="1.0" encoding="iso-8859-1"?>
<!-- Generator: Adobe Illustrator 17.1.0, SVG Export Plug-In . SVG Version: 6.00 Build 0)  -->
<!DOCTYPE svg PUBLIC "-//W3C//DTD SVG 1.1//EN" "http://www.w3.org/Graphics/SVG/1.1/DTD/svg11.dtd">
<svg version="1.1" id="Capa_1" xmlns="http://www.w3.org/2000/svg" xmlns:xlink="http://www.w3.org/1999/xlink" x="0px" y="0px"
	 viewBox="0 0 412.195 412.195" style="enable-background:new 0 0 412.195 412.195;" xml:space="preserve">
<path id="XMLID_253_" d="M244.691,300.204c-0.064-0.926-0.162-1.866-0.295-2.82c-1.491-10.694-7.076-21.945-12.477-32.826
	c-12.601-25.389-14.906-34.884-3.727-41.08c4.347-2.41,5.918-7.888,3.508-12.235s-7.888-5.918-12.235-3.509
	c-12.518,6.939-18.094,18.034-16.125,32.086c1.494,10.659,7.066,21.885,12.455,32.741c12.644,25.474,14.946,35.006,3.67,41.256
	c-4.348,2.41-5.918,7.888-3.509,12.235c2.41,4.346,7.886,5.917,12.235,3.509c5.605-3.107,9.825-7.042,12.605-11.699
	c22.973,2.773,35.171,7.639,39.298,10.599c-2.606,1.856-8.857,4.922-21.292,7.65c-14.588,3.202-33.307,4.965-52.708,4.965
	c-19.4,0-38.118-1.763-52.706-4.965c-12.39-2.719-18.641-5.772-21.263-7.631c3.357-2.37,12.521-6.582,31.734-9.578
	c4.911-0.766,8.271-5.368,7.506-10.279s-5.367-8.271-10.279-7.506c-31.928,4.979-48.116,14.185-48.116,27.363
	c0,0.083,0,0.168,0.002,0.251l-0.002,52.869c0,29.737,83.593,30.596,93.125,30.596s93.127-0.858,93.127-30.596l-0.003-52.813
	c0.002-0.103,0.003-0.203,0.003-0.307C299.224,311.074,270.681,303.495,244.691,300.204z M258.804,389.23
	c-14.588,3.202-33.307,4.965-52.708,4.965c-19.4,0-38.118-1.763-52.706-4.965c-14.859-3.261-20.889-7.003-22.419-8.588l0.001-32.571
	c25.132,10.579,68.424,11.004,75.124,11.004s49.992-0.425,75.125-11.003l0.002,32.57C279.694,382.228,273.664,385.97,258.804,389.23
	z M159.272,181.945c0-4.971,4.029-9,9-9h3.808c4.971,0,9,4.029,9,9s-4.029,9-9,9h-3.808
	C163.301,190.945,159.272,186.916,159.272,181.945z M159.272,101.005c0-4.971,4.029-9,9-9h3.808c4.971,0,9,4.029,9,9s-4.029,9-9,9
	h-3.808C163.301,110.005,159.272,105.976,159.272,101.005z M231.116,181.945c0-4.971,4.029-9,9-9h3.807c4.971,0,9,4.029,9,9
	s-4.029,9-9,9h-3.807C235.146,190.945,231.116,186.916,231.116,181.945z M342.906,384.363h-11.267V277.11
	c7.346-5.438,12.118-14.168,12.118-23.989s-4.772-18.55-12.118-23.988v-68.972c0-15.055-11.212-27.54-25.725-29.547v-29.973
	c0-16.996-7.225-32.335-18.767-43.108c10.987-4.403,18.767-15.162,18.767-27.705C305.915,13.381,292.534,0,276.087,0H136.11
	c-16.448,0-29.829,13.382-29.829,29.83c0,12.542,7.779,23.3,18.767,27.702c-11.541,10.773-18.767,26.113-18.767,43.109v29.972
	c-14.512,2.007-25.722,14.492-25.722,29.548v68.97c-7.348,5.438-12.121,14.168-12.121,23.992c0,9.823,4.772,18.552,12.121,23.99
	v107.25h-11.27c-4.971,0-9,4.029-9,9s4.029,9,9,9h25.653c4.971,0,9-4.029,9-9c0-3.685-2.213-6.852-5.383-8.244V282.952h23.659v6.198
	c0,4.971,4.029,9,9,9s9-4.029,9-9v-6.198h14.57c4.971,0,9-4.029,9-9s-4.029-9-9-9H98.267c-1.621,0-3.167-0.328-4.574-0.921
	c-0.238-0.123-0.483-0.236-0.734-0.339c-3.864-1.948-6.521-5.955-6.521-10.571c0-4.606,2.646-8.605,6.498-10.559
	c0.266-0.107,0.525-0.228,0.778-0.359c1.402-0.587,2.94-0.911,4.553-0.911h47.286c4.971,0,9-4.029,9-9s-4.029-9-9-9h-5.335v-63.131
	c0-11.435-6.467-21.387-15.937-26.392v-33.128c0-22.598,18.385-40.982,40.982-40.982h81.667c22.599,0,40.984,18.385,40.984,40.982
	v33.128c-9.468,5.005-15.935,14.957-15.935,26.392v63.131h-23.144c-4.971,0-9,4.029-9,9s4.029,9,9,9h65.093
	c1.623,0,3.17,0.329,4.58,0.923c0.236,0.122,0.479,0.234,0.727,0.336c3.865,1.948,6.522,5.956,6.522,10.572
	c0,4.628-2.671,8.644-6.552,10.586c-0.227,0.094-0.449,0.196-0.667,0.308c-1.417,0.603-2.975,0.936-4.609,0.936h-52.344
	c-4.971,0-9,4.029-9,9s4.029,9,9,9h10.395v6.198c0,4.971,4.029,9,9,9s9-4.029,9-9v-6.198h23.66v102.166
	c-3.171,1.393-5.385,4.561-5.385,8.245c0,4.971,4.029,9,9,9h25.652c4.971,0,9-4.029,9-9S347.877,384.363,342.906,384.363z
	 M122.218,223.292H98.559v-63.131c0-6.522,5.306-11.829,11.831-11.829c0.871,0,1.72,0.095,2.538,0.274
	c0.155,0.042,0.312,0.08,0.471,0.113c5.069,1.335,8.819,5.958,8.819,11.441V223.292z M276.087,41.659h-21.949
	c-0.693,0-1.367,0.078-2.015,0.227c-1.71-0.15-3.443-0.227-5.192-0.227h-81.667c-1.749,0-3.48,0.076-5.191,0.227
	c-0.647-0.148-1.322-0.227-2.015-0.227H136.11c-6.522,0-11.829-5.308-11.829-11.831c0-6.522,5.307-11.828,11.829-11.828h139.977
	c6.522,0,11.828,5.307,11.828,11.83C287.915,36.353,282.609,41.659,276.087,41.659z M313.639,223.292h-23.66v-63.131
	c0-5.48,3.747-10.103,8.813-11.439c0.162-0.034,0.323-0.073,0.482-0.116c0.817-0.179,1.665-0.273,2.535-0.273
	c6.523,0,11.83,5.307,11.83,11.829V223.292z M231.116,101.005c0-4.971,4.029-9,9-9h3.807c4.971,0,9,4.029,9,9s-4.029,9-9,9h-3.807
	C235.146,110.005,231.116,105.976,231.116,101.005z M195.194,141.476c0-4.971,4.029-9,9-9h3.807c4.971,0,9,4.029,9,9s-4.029,9-9,9
	h-3.807C199.224,150.476,195.194,146.446,195.194,141.476z M167.807,239.819c-1.97-14.052,3.606-25.146,16.124-32.086
	c4.347-2.409,9.825-0.839,12.235,3.509s0.839,9.825-3.508,12.235c-11.179,6.196-8.874,15.691,3.727,41.079
	c5.401,10.882,10.985,22.133,12.477,32.827c1.964,14.086-3.639,25.212-16.204,32.177c-1.382,0.766-2.879,1.13-4.354,1.13
	c-3.166,0-6.236-1.674-7.88-4.639c-2.41-4.348-0.839-9.825,3.509-12.235c11.276-6.25,8.974-15.783-3.67-41.257
	C174.873,261.704,169.301,250.478,167.807,239.819z"/>
<g>
</g>
<g>
</g>
<g>
</g>
<g>
</g>
<g>
</g>
<g>
</g>
<g>
</g>
<g>
</g>
<g>
</g>
<g>
</g>
<g>
</g>
<g>
</g>
<g>
</g>
<g>
</g>
<g>
</g>
</svg>
