<?xml version="1.0" encoding="iso-8859-1"?>
<!-- Generator: Adobe Illustrator 17.1.0, SVG Export Plug-In . SVG Version: 6.00 Build 0)  -->
<!DOCTYPE svg PUBLIC "-//W3C//DTD SVG 1.1//EN" "http://www.w3.org/Graphics/SVG/1.1/DTD/svg11.dtd">
<svg version="1.1" id="Capa_1" xmlns="http://www.w3.org/2000/svg" xmlns:xlink="http://www.w3.org/1999/xlink" x="0px" y="0px"
	 viewBox="0 0 381.268 381.268" style="enable-background:new 0 0 381.268 381.268;" xml:space="preserve">
<path id="XMLID_174_" d="M210.288,214.877c4.382,2.348,6.029,7.803,3.682,12.184c-26.114,48.727-54.563,86.52-80.104,106.418
	c-1.348,1.049-2.965,1.694-4.665,1.858l-21.603,2.09c-0.294,0.029-0.587,0.042-0.877,0.042c-4.58,0-8.497-3.481-8.947-8.134
	c-0.479-4.948,3.144-9.346,8.092-9.825l18.947-1.833c23.106-18.818,49.043-53.873,73.292-99.119
	C200.453,214.176,205.909,212.53,210.288,214.877z M290.541,138.642c1.73-5.53,0.361-9.646-1.091-12.126
	c-4.18-7.133-15.477-14.844-65.104,0.475c-4.75,1.466-7.411,6.505-5.945,11.254c1.466,4.749,6.505,7.412,11.254,5.945
	c23.618-7.291,36.44-8.421,42.107-8.026c-6.826,9.162-34.553,30.783-85.458,54.374c-24.665,11.43-49.382,20.708-69.598,26.125
	c-17.962,4.814-27.137,5.253-31.434,4.939c5.49-7.224,24.474-23.412,64.017-43.887c4.413-2.286,6.139-7.716,3.854-12.13
	s-7.716-6.141-12.131-3.854c-20.509,10.619-68.844,37.511-74.714,57.823c-1.544,5.342-0.191,9.323,1.214,11.719
	c3.307,5.645,9.759,8.436,20.075,8.436c7.364,0,16.697-1.423,28.259-4.245c22.235-5.427,49.946-15.582,78.026-28.596
	C234.509,188.037,284.208,158.87,290.541,138.642z M165.817,128.516c2.383,14.722,5.417,28.78,9.02,41.781
	c1.104,3.987,4.724,6.6,8.668,6.6c0.795,0,1.604-0.106,2.408-0.329c4.79-1.327,7.597-6.286,6.27-11.076
	c-3.002-10.837-5.594-22.472-7.722-34.653c21.305-15.898,64.266-35.438,110.172-49.981l24.961,8.521
	c4.699,1.604,9.818-0.905,11.425-5.61c1.605-4.704-0.906-9.819-5.61-11.425l-27.752-9.473c-1.806-0.616-3.762-0.643-5.584-0.075
	c-40.171,12.515-96.528,35.055-123.154,57.388C166.489,122.22,165.311,125.386,165.817,128.516z M134.31,46.981
	c5.078-18.492,21.355-31.437,40.504-32.211c1.868-0.075,3.704,0.43,5.268,1.447c16.071,10.445,23.457,29.886,18.379,48.377
	c-5.077,18.492-21.354,31.438-40.503,32.214c-0.121,0.005-0.243,0.007-0.364,0.007c-1.739,0-3.443-0.503-4.905-1.454
	C136.618,84.914,129.233,65.472,134.31,46.981z M160.139,78.541c9.998-1.533,18.231-8.761,20.964-18.714
	c2.733-9.952-0.655-20.369-8.472-26.792c-9.998,1.531-18.23,8.759-20.964,18.712C148.935,61.699,152.323,72.117,160.139,78.541z
	 M141.96,139.318c1.406,0.8,2.937,1.181,4.446,1.181c3.129,0,6.169-1.634,7.828-4.548c2.46-4.319,0.953-9.814-3.366-12.274
	c-22.177-12.629-57.922-48.03-89.497-88.549l-0.69-26.363c-0.13-4.969-4.297-8.896-9.232-8.761c-4.969,0.13-8.892,4.264-8.762,9.232
	l0.768,29.311c0.05,1.908,0.706,3.751,1.872,5.262C71.029,77.118,111.759,122.118,141.96,139.318z M337.489,277.687l-10.354-19.037
	c-0.708-1.302-1.728-2.41-2.967-3.223c-20.677-13.574-50.931-24.925-87.493-32.827c-4.859-1.052-9.648,2.038-10.698,6.896
	c-1.05,4.858,2.037,9.648,6.896,10.698c32.813,7.091,60.937,17.383,79.552,29.082l9.253,17.012c1.632,3,4.723,4.702,7.914,4.702
	c1.453,0,2.927-0.353,4.292-1.096C338.249,287.519,339.864,282.054,337.489,277.687z M262.95,363.268H72.202c-4.971,0-9,4.029-9,9
	s4.029,9,9,9H262.95c4.971,0,9-4.029,9-9S267.921,363.268,262.95,363.268z"/>
<g>
</g>
<g>
</g>
<g>
</g>
<g>
</g>
<g>
</g>
<g>
</g>
<g>
</g>
<g>
</g>
<g>
</g>
<g>
</g>
<g>
</g>
<g>
</g>
<g>
</g>
<g>
</g>
<g>
</g>
</svg>
