<?xml version="1.0" encoding="iso-8859-1"?>
<!-- Generator: Adobe Illustrator 17.1.0, SVG Export Plug-In . SVG Version: 6.00 Build 0)  -->
<!DOCTYPE svg PUBLIC "-//W3C//DTD SVG 1.1//EN" "http://www.w3.org/Graphics/SVG/1.1/DTD/svg11.dtd">
<svg version="1.1" id="Capa_1" xmlns="http://www.w3.org/2000/svg" xmlns:xlink="http://www.w3.org/1999/xlink" x="0px" y="0px"
	 viewBox="0 0 381.268 381.268" style="enable-background:new 0 0 381.268 381.268;" xml:space="preserve">
<path id="XMLID_1646_" d="M155.515,130.09c0,4.971-4.029,9-9,9H99.205c-4.971,0-9-4.029-9-9s4.029-9,9-9h47.309
	C151.485,121.09,155.515,125.119,155.515,130.09z M150.993,372.268c0,4.971-4.029,9-9,9h-38.268
	c-29.815,0-54.072-24.257-54.072-54.073v-210.82c0-19.407,10.445-37.186,27.056-46.801V44.37
	c-5.363-4.635-8.762-11.483-8.762-19.111C67.947,11.331,79.277,0,93.204,0h59.311c13.926,0,25.256,11.331,25.256,25.258
	c0,7.628-3.398,14.477-8.761,19.112v25.203c16.611,9.615,27.055,27.395,27.055,46.801v12.756c0,4.971-4.029,9-9,9s-9-4.029-9-9
	v-12.756c0-14.287-8.509-27.261-21.678-33.052c-3.268-1.437-5.377-4.669-5.377-8.238V50.516H94.709v24.568
	c0,3.569-2.11,6.802-5.377,8.239c-13.169,5.79-21.679,18.764-21.679,33.051v210.82c0,19.891,16.182,36.073,36.072,36.073h38.268
	C146.964,363.268,150.993,367.297,150.993,372.268z M85.947,25.258c0,4.002,3.256,7.258,7.258,7.258h59.311
	c4.001,0,7.256-3.256,7.256-7.257c0-4.003-3.255-7.259-7.256-7.259H93.204C89.27,18,85.947,21.323,85.947,25.258z M313.393,268.602
	c3.088,8.854,4.724,18.264,4.724,27.878c0,33.854-19.944,63.138-48.7,76.718c-0.367,0.203-0.745,0.377-1.129,0.523
	c-10.664,4.845-22.503,7.546-34.959,7.546c-46.75,0-84.784-38.035-84.784-84.787c0-26.097,12.058-50.695,32.479-66.726V199.04
	c0-26.541,19.868-48.528,45.512-51.867c1.689-5.021,3.715-9.885,6.063-14.572c-7.657-22.587-0.573-50.785,18.058-70.145
	c20.449-21.254,49.29-29.614,71.764-20.803c2.222,0.871,4.007,2.589,4.962,4.775c9.663,22.117,2.416,51.256-18.035,72.508
	c-19.039,19.784-42.169,28.873-62.197,24.966c-0.633,1.391-1.232,2.8-1.799,4.226c23.069,5.444,40.287,26.205,40.287,50.912v30.714
	c12.509,9.819,21.88,22.853,27.263,37.477C313.1,267.669,313.266,268.127,313.393,268.602z M247.777,109.778
	c4.483-5.226,9.473-10.074,14.928-14.488c1.666-1.348,3.668-2.003,5.655-2.003c2.624,0,5.225,1.141,7.003,3.339
	c3.126,3.864,2.528,9.531-1.336,12.658c-6.376,5.157-11.992,11.019-16.768,17.457c12.537-0.324,26.866-7.555,39.117-20.285
	c14.061-14.611,20.225-34.258,15.821-49.215c-15.121-3.829-34.513,3.085-48.571,17.696
	C253.504,85.457,248.639,98.22,247.777,109.778z M251.596,360.728c-4.924-9.555-7.488-20.125-7.488-31.103
	c0-30.192,19.898-56.37,47.865-65.08c-4.894-8.982-11.851-16.857-20.483-22.879c-2.413-1.684-3.851-4.439-3.851-7.382V199.04
	c0-18.855-15.292-34.207-34.126-34.307c-0.119,0.004-0.238,0.004-0.359,0c-18.835,0.096-34.13,15.449-34.13,34.307v35.244
	c0,2.942-1.438,5.698-3.851,7.382c-17.926,12.505-28.628,32.996-28.628,54.813c0,36.826,29.959,66.787,66.784,66.787
	C239.661,363.267,245.787,362.382,251.596,360.728z M300.117,296.479c0-5.124-0.591-10.176-1.727-15.067
	c-21.135,6.063-36.283,25.608-36.283,48.213c0,8.448,2.063,16.566,6.016,23.844C287.298,341.719,300.117,320.568,300.117,296.479z
	 M146.515,186.867H99.205c-4.971,0-9,4.029-9,9s4.029,9,9,9h47.309c4.971,0,9-4.029,9-9S151.485,186.867,146.515,186.867z"/>
<g>
</g>
<g>
</g>
<g>
</g>
<g>
</g>
<g>
</g>
<g>
</g>
<g>
</g>
<g>
</g>
<g>
</g>
<g>
</g>
<g>
</g>
<g>
</g>
<g>
</g>
<g>
</g>
<g>
</g>
</svg>
