<?xml version="1.0" encoding="iso-8859-1"?>
<!-- Generator: Adobe Illustrator 17.1.0, SVG Export Plug-In . SVG Version: 6.00 Build 0)  -->
<!DOCTYPE svg PUBLIC "-//W3C//DTD SVG 1.1//EN" "http://www.w3.org/Graphics/SVG/1.1/DTD/svg11.dtd">
<svg version="1.1" id="Capa_1" xmlns="http://www.w3.org/2000/svg" xmlns:xlink="http://www.w3.org/1999/xlink" x="0px" y="0px"
	 viewBox="0 0 410.006 410.006" style="enable-background:new 0 0 410.006 410.006;" xml:space="preserve">
<path id="XMLID_1060_" d="M169.272,368.771c-4.913,3.508-10.689,5.362-16.704,5.362h-3.993
	c-5.318-9.301-15.361-15.368-26.354-15.368c-10.993,0-21.037,6.067-26.354,15.368h-3.991c-15.938,0-28.904-12.966-28.904-28.903
	v-73.883h91.771c4.971,0,9-4.029,9-9s-4.029-9-9-9H62.972v-98.035h75.132c4.971,0,9-4.029,9-9s-4.029-9-9-9H62.972V90.515
	c0-21.847,17.775-39.621,39.623-39.621h39.25c21.849,0,39.624,17.774,39.624,39.621v24.913c0,4.971,4.029,9,9,9c4.971,0,9-4.029,9-9
	V90.515c0-25.544-16.707-47.258-39.768-54.79V9c0-4.971-4.029-9-9-9H93.74c-4.971,0-9,4.029-9,9v26.725
	c-23.062,7.532-39.768,29.246-39.768,54.79V345.23c0,25.862,21.041,46.903,46.904,46.903h9.876c3.997,0,7.516-2.637,8.638-6.473
	c1.532-5.237,6.397-8.896,11.831-8.896c5.433,0,10.298,3.658,11.831,8.896c1.123,3.836,4.641,6.473,8.638,6.473h9.878
	c9.787,0,19.18-3.013,27.164-8.714c4.045-2.888,4.983-8.509,2.095-12.554C178.938,366.82,173.318,365.883,169.272,368.771z
	 M102.74,18h38.961v14.894H102.74V18z M85.891,184.028c4.971,0,9,4.029,9,9v26.654c0,4.971-4.029,9-9,9s-9-4.029-9-9v-26.654
	C76.891,188.058,80.921,184.028,85.891,184.028z M111.774,65.152c4.971,0,9,4.029,9,9s-4.029,9-9,9
	c-9.309,0-16.883,8.468-16.883,18.877c0,4.971-4.029,9-9,9s-9-4.029-9-9C76.891,81.695,92.54,65.152,111.774,65.152z
	 M286.658,234.856c0-4.971,4.029-9,9-9h4.871c4.971,0,9,4.029,9,9s-4.029,9-9,9h-4.871
	C290.688,243.856,286.658,239.827,286.658,234.856z M365.03,168.726c-0.53-30.532-89.108-31.416-99.235-31.416
	c-10.127,0-98.708,0.887-99.237,31.418c-0.005,0.166-0.005,0.333-0.001,0.5c0.021,1.455,0.241,2.842,0.644,4.166l32.857,182.914
	c2.813,19.855,50.741,21.437,65.737,21.437c15.207,0,64.28-1.629,65.827-22.289l32.763-182.054c0.403-1.324,0.625-2.717,0.646-4.172
	C365.035,169.061,365.034,168.893,365.03,168.726z M313.934,352.109c-4.225,2.928-21.038,7.635-48.14,7.635
	c-27.186,0-44.019-4.735-48.18-7.661c-0.023-0.087-0.048-0.173-0.074-0.259l-29.001-161.446
	c27.079,9.904,70.359,10.314,77.256,10.314c6.896,0,50.167-0.41,77.246-10.312L313.934,352.109z M322.802,177.394
	c-15.75,3.417-35.996,5.299-57.008,5.299c-21.012,0-41.259-1.882-57.009-5.299c-13.913-3.018-20.621-6.422-23.234-8.393
	c2.614-1.97,9.322-5.375,23.235-8.393c15.751-3.417,35.997-5.299,57.009-5.299c21.011,0,41.257,1.882,57.007,5.299
	c13.913,3.018,20.621,6.423,23.234,8.393C343.423,170.972,336.714,174.376,322.802,177.394z M260.733,247.058c4.971,0,9,4.029,9,9
	s-4.029,9-9,9h-4.87c-4.971,0-9-4.029-9-9s4.029-9,9-9H260.733z M327.003,385.615c3.043,3.931,2.325,9.583-1.605,12.627
	c-11.201,8.673-38.133,11.764-59.604,11.764c-21.471,0-48.405-3.091-59.605-11.764c-3.93-3.044-4.649-8.696-1.605-12.627
	c3.043-3.93,8.696-4.648,12.626-1.605c3.992,3.092,20.713,7.996,48.585,7.996c27.871,0,44.591-4.904,48.583-7.996
	C318.306,380.967,323.959,381.686,327.003,385.615z M274.305,298.413c0-4.971,4.029-9,9-9h4.869c4.971,0,9,4.029,9,9s-4.029,9-9,9
	h-4.869C278.334,307.413,274.305,303.384,274.305,298.413z"/>
<g>
</g>
<g>
</g>
<g>
</g>
<g>
</g>
<g>
</g>
<g>
</g>
<g>
</g>
<g>
</g>
<g>
</g>
<g>
</g>
<g>
</g>
<g>
</g>
<g>
</g>
<g>
</g>
<g>
</g>
</svg>
