<?xml version="1.0" encoding="iso-8859-1"?>
<!-- Generator: Adobe Illustrator 17.1.0, SVG Export Plug-In . SVG Version: 6.00 Build 0)  -->
<!DOCTYPE svg PUBLIC "-//W3C//DTD SVG 1.1//EN" "http://www.w3.org/Graphics/SVG/1.1/DTD/svg11.dtd">
<svg version="1.1" id="Capa_1" xmlns="http://www.w3.org/2000/svg" xmlns:xlink="http://www.w3.org/1999/xlink" x="0px" y="0px"
	 viewBox="0 0 389.786 389.786" style="enable-background:new 0 0 389.786 389.786;" xml:space="preserve">
<path id="XMLID_105_" d="M192.67,189.787c0.889,0.283,1.81,0.425,2.731,0.425s1.843-0.142,2.731-0.425
	c23.767-7.571,39.735-29.427,39.735-54.386c0-24.957-15.968-46.813-39.734-54.387c-1.777-0.566-3.688-0.566-5.465,0
	c-23.766,7.574-39.733,29.43-39.733,54.387C152.936,160.361,168.904,182.217,192.67,189.787z M195.402,99.146
	c14.749,5.918,24.467,20.142,24.467,36.255c0,16.114-9.719,30.338-24.467,36.254c-14.748-5.915-24.466-20.139-24.466-36.254
	C170.936,119.289,180.654,105.064,195.402,99.146z M326.658,157.763c0-4.97,4.029-9,9-9h8.507c4.971,0,9,4.03,9,9s-4.029,9-9,9
	h-8.507C330.687,166.763,326.658,162.734,326.658,157.763z M288.213,64.951c-3.515-3.515-3.515-9.214,0.001-12.728l6.017-6.016
	c3.515-3.515,9.215-3.513,12.728,0.001c3.515,3.515,3.515,9.214-0.001,12.728l-6.017,6.016c-1.757,1.757-4.061,2.635-6.363,2.635
	C292.274,67.587,289.97,66.708,288.213,64.951z M186.402,17.508V9c0-4.97,4.029-9,9-9s9,4.03,9,9v8.508c0,4.971-4.029,9-9,9
	S186.402,22.479,186.402,17.508z M83.845,58.934c-3.514-3.516-3.513-9.214,0.003-12.728c3.515-3.513,9.215-3.513,12.728,0.003
	l6.013,6.015c3.515,3.516,3.513,9.214-0.003,12.728c-1.757,1.756-4.06,2.635-6.362,2.635c-2.304,0-4.608-0.879-6.365-2.638
	L83.845,58.934z M195.402,254.652c-29.284,0-55.088,18.685-64.209,46.496c-2.229,6.795-3.358,13.885-3.358,21.072
	c0,37.256,30.311,67.566,67.567,67.566s67.568-30.31,67.568-67.566c0-6.938-1.053-13.789-3.128-20.361
	C250.927,273.623,225.031,254.652,195.402,254.652z M148.296,306.758c3.85-11.738,11.75-21.258,21.859-27.228
	c-3.012,10.45-4.902,21.898-5.54,33.691h-17.965C147.053,311.033,147.602,308.875,148.296,306.758z M146.653,331.22h17.969
	c0.644,11.791,2.538,23.218,5.554,33.655C158.083,357.696,149.288,345.523,146.653,331.22z M199.16,371.645
	c-2.48,0.187-5.034,0.187-7.515,0c-4.987-11.57-8.095-25.586-8.997-40.425h25.507C207.252,346.06,204.146,360.077,199.16,371.645z
	 M182.642,313.22c0.893-14.821,3.988-28.854,8.956-40.424c2.515-0.191,5.095-0.191,7.609-0.001
	c4.967,11.569,8.062,25.604,8.953,40.425H182.642z M220.629,364.875c3.015-10.435,4.908-21.864,5.553-33.655h17.97
	C241.517,345.523,232.721,357.696,220.629,364.875z M226.187,313.22c-0.639-11.805-2.53-23.263-5.546-33.72
	c10.27,6.052,18.246,15.774,22.037,27.779c0.615,1.949,1.107,3.933,1.477,5.941H226.187z M359.71,330.768c0,4.971-4.029,9-9,9
	h-65.166c-2.99,0-5.785-1.485-7.458-3.963c-1.674-2.478-2.008-5.625-0.891-8.399l10.449-25.951c1.856-4.611,7.101-6.844,11.71-4.987
	c4.611,1.856,6.844,7.099,4.987,11.71l-5.472,13.59h42.172c-3.156-21.184-17.417-41.034-40.948-56.658
	c-27.972-18.572-65.332-28.8-105.2-28.8c-39.869,0-77.23,10.228-105.202,28.8c-23.531,15.624-37.792,35.474-40.948,56.658h42.172
	l-5.472-13.59c-1.856-4.611,0.376-9.854,4.987-11.71c4.61-1.857,9.853,0.376,11.71,4.987l10.449,25.951
	c1.117,2.774,0.783,5.921-0.891,8.399c-1.673,2.478-4.468,3.963-7.458,3.963H39.076c-4.971,0-9-4.029-9-9
	c0-30.748,17.636-59.391,49.66-80.654c30.889-20.51,71.786-31.805,115.158-31.805c43.37,0,84.268,11.295,115.156,31.805
	C342.074,271.377,359.71,300.02,359.71,330.768z M37.637,157.763c0-4.97,4.029-9,9-9h8.51c4.971,0,9,4.03,9,9s-4.029,9-9,9h-8.51
	C41.667,166.763,37.637,162.734,37.637,157.763z"/>
<g>
</g>
<g>
</g>
<g>
</g>
<g>
</g>
<g>
</g>
<g>
</g>
<g>
</g>
<g>
</g>
<g>
</g>
<g>
</g>
<g>
</g>
<g>
</g>
<g>
</g>
<g>
</g>
<g>
</g>
</svg>
