<?xml version="1.0" encoding="iso-8859-1"?>
<!-- Generator: Adobe Illustrator 17.1.0, SVG Export Plug-In . SVG Version: 6.00 Build 0)  -->
<!DOCTYPE svg PUBLIC "-//W3C//DTD SVG 1.1//EN" "http://www.w3.org/Graphics/SVG/1.1/DTD/svg11.dtd">
<svg version="1.1" id="Capa_1" xmlns="http://www.w3.org/2000/svg" xmlns:xlink="http://www.w3.org/1999/xlink" x="0px" y="0px"
	 viewBox="0 0 378.654 378.654" style="enable-background:new 0 0 378.654 378.654;" xml:space="preserve">
<path id="XMLID_158_" d="M187.103,189.79c0.889,0.283,1.811,0.425,2.732,0.425s1.844-0.142,2.732-0.425
	c23.766-7.573,39.732-29.429,39.732-54.387c0-24.959-15.968-46.816-39.733-54.386c-1.777-0.566-3.686-0.566-5.463,0
	c-23.768,7.571-39.736,29.427-39.736,54.386C147.368,160.36,163.337,182.216,187.103,189.79z M189.836,99.149
	c14.747,5.915,24.465,20.139,24.465,36.254c0,16.114-9.717,30.338-24.465,36.255c-14.749-5.917-24.468-20.142-24.468-36.255
	C165.368,119.289,175.087,105.065,189.836,99.149z M321.09,157.763c0-4.97,4.029-9,9-9h8.507c4.971,0,9,4.03,9,9s-4.029,9-9,9
	h-8.507C325.119,166.763,321.09,162.734,321.09,157.763z M180.836,17.509V9c0-4.971,4.029-9,9-9s9,4.029,9,9v8.509
	c0,4.97-4.029,9-9,9S180.836,22.479,180.836,17.509z M282.648,64.953c-3.516-3.514-3.516-9.213-0.001-12.728l6.015-6.016
	c3.514-3.515,9.214-3.515,12.728-0.001c3.516,3.514,3.516,9.213,0.001,12.728l-6.015,6.016c-1.757,1.757-4.062,2.636-6.364,2.636
	C286.708,67.588,284.405,66.71,282.648,64.953z M244.342,306.718v42.543h14.004c4.971,0,9,4.029,9,9s-4.029,9-9,9h-1.669
	c0.209,0.762,0.321,1.564,0.321,2.393c0,4.971-4.029,9-9,9h-25.313c-4.971,0-9-4.029-9-9c0-0.829,0.112-1.631,0.321-2.393h-1.668
	c-4.971,0-9-4.029-9-9s4.029-9,9-9h14.004v-42.543h-14.004c-4.971,0-9-4.03-9-9s4.029-9,9-9h1.669
	c-0.21-0.762-0.322-1.565-0.322-2.394c0-4.97,4.029-9,9-9h25.313c4.971,0,9,4.03,9,9c0,0.829-0.112,1.632-0.322,2.394h1.67
	c4.971,0,9,4.03,9,9s-4.029,9-9,9H244.342z M354.144,330.769c0,4.97-4.029,9-9,9h-65.166c-4.971,0-9-4.03-9-9s4.029-9,9-9h55.498
	c-3.156-21.184-17.417-41.034-40.948-56.658c-27.972-18.572-65.333-28.8-105.202-28.8c-39.868,0-77.229,10.228-105.2,28.8
	c-23.531,15.624-37.792,35.474-40.948,56.658h55.496c4.971,0,9,4.03,9,9s-4.029,9-9,9H33.51c-4.971,0-9-4.03-9-9
	c0-30.748,17.636-59.391,49.659-80.654c30.889-20.51,71.786-31.805,115.157-31.805c43.372,0,84.27,11.295,115.158,31.805
	C336.509,271.377,354.144,300.021,354.144,330.769z M152.312,306.718v42.543h14.004c4.971,0,9,4.029,9,9s-4.029,9-9,9h-1.668
	c0.209,0.762,0.321,1.564,0.321,2.393c0,4.971-4.029,9-9,9h-25.315c-4.971,0-9-4.029-9-9c0-0.829,0.112-1.631,0.321-2.393h-1.667
	c-4.971,0-9-4.029-9-9s4.029-9,9-9h14.004v-42.543h-14.004c-4.971,0-9-4.03-9-9s4.029-9,9-9h1.668
	c-0.21-0.762-0.322-1.565-0.322-2.394c0-4.97,4.029-9,9-9h25.315c4.971,0,9,4.03,9,9c0,0.829-0.112,1.632-0.322,2.394h1.669
	c4.971,0,9,4.03,9,9s-4.029,9-9,9H152.312z M32.071,157.763c0-4.97,4.029-9,9-9h8.512c4.971,0,9,4.03,9,9s-4.029,9-9,9h-8.512
	C36.1,166.763,32.071,162.734,32.071,157.763z M78.28,58.936c-3.515-3.515-3.515-9.214,0.001-12.728
	c3.514-3.515,9.214-3.513,12.728,0.001l6.015,6.016c3.515,3.515,3.515,9.214-0.001,12.728c-1.757,1.757-4.061,2.635-6.363,2.635
	c-2.304,0-4.607-0.879-6.364-2.636L78.28,58.936z"/>
<g>
</g>
<g>
</g>
<g>
</g>
<g>
</g>
<g>
</g>
<g>
</g>
<g>
</g>
<g>
</g>
<g>
</g>
<g>
</g>
<g>
</g>
<g>
</g>
<g>
</g>
<g>
</g>
<g>
</g>
</svg>
