<?xml version="1.0" encoding="iso-8859-1"?>
<!-- Generator: Adobe Illustrator 17.1.0, SVG Export Plug-In . SVG Version: 6.00 Build 0)  -->
<!DOCTYPE svg PUBLIC "-//W3C//DTD SVG 1.1//EN" "http://www.w3.org/Graphics/SVG/1.1/DTD/svg11.dtd">
<svg version="1.1" id="Capa_1" xmlns="http://www.w3.org/2000/svg" xmlns:xlink="http://www.w3.org/1999/xlink" x="0px" y="0px"
	 viewBox="0 0 367.135 367.135" style="enable-background:new 0 0 367.135 367.135;" xml:space="preserve">
<path id="XMLID_1322_" d="M219.601,237.101l20.255,80.523h13.074c4.971,0,9,4.029,9,9s-4.029,9-9,9h-20.091
	c-4.125,0-7.722-2.804-8.729-6.805l-21.967-87.328c-1.212-4.82,1.713-9.711,6.533-10.923
	C213.494,229.352,218.388,232.28,219.601,237.101z M220.728,141.673L120.237,317.624H105.37c-4.971,0-9,4.029-9,9s4.029,9,9,9h20.09
	c3.23,0,6.213-1.731,7.815-4.537l105.035-183.906c1.229-2.151,1.516-4.714,0.795-7.084c-2.32-7.622-5.388-15.928-8.636-24.722
	c-6.555-17.75-13.922-37.7-15.207-53.265c9.3-9.703,22.463-18.991,41.054-29.007c4.376-2.357,6.013-7.816,3.655-12.192
	c-2.358-4.376-7.818-6.012-12.192-3.655c-22.21,11.965-37.607,23.278-48.456,35.602c-1.489,1.692-2.29,3.883-2.242,6.137
	c0.402,19.013,8.956,42.178,16.504,62.616C216.209,128.717,218.712,135.495,220.728,141.673z M94.585,275.843
	c2.077,0,4.164-0.715,5.862-2.175c3.77-3.24,4.199-8.922,0.959-12.691c-23.434-27.265-36.339-62.107-36.339-98.11
	c0-67.547,45.42-127.251,110.453-145.191c4.342-1.197,7.13-5.42,6.525-9.883C181.442,3.329,177.632,0,173.128,0h-49.155
	c-4.971,0-9,4.029-9,9s4.029,9,9,9h5.407c-49.997,29.885-82.311,84.586-82.311,144.867c0,40.305,14.45,79.314,40.688,109.842
	C89.536,274.781,92.053,275.843,94.585,275.843z M303.839,133.14c-8.08,6.582-17.899,9.917-27.759,9.917
	c-8.327,0-16.684-2.379-24.047-7.191c-1.562-1.02-2.767-2.5-3.45-4.236c-7.038-17.875-1.755-38.041,13.146-50.18
	c14.902-12.14,35.721-13.237,51.805-2.727c1.562,1.021,2.768,2.501,3.451,4.237C324.023,100.833,318.741,120.999,303.839,133.14z
	 M301.157,92.33c-9.073-4.58-20.021-3.47-28.058,3.076c-8.037,6.546-11.337,17.044-8.687,26.854
	c9.074,4.583,20.021,3.472,28.059-3.075C300.506,112.638,303.807,102.139,301.157,92.33z M255.769,167.183
	c-3.021-3.946-8.671-4.694-12.617-1.672c-3.946,3.023-4.694,8.672-1.672,12.618c12.081,15.773,27.233,45.972,32.468,64.162
	c-5.877,6.307-18.707,15.484-29.292,20.686c-4.461,2.192-6.301,7.585-4.109,12.046c1.565,3.185,4.761,5.033,8.085,5.033
	c1.332,0,2.686-0.297,3.962-0.924c11.453-5.627,31.683-19.009,38.728-29.859c1.317-2.028,1.763-4.5,1.236-6.86
	C288.077,222.327,270.543,186.471,255.769,167.183z M274.163,349.135H82.845c-4.971,0-9,4.029-9,9s4.029,9,9,9h191.319
	c4.971,0,9-4.029,9-9S279.134,349.135,274.163,349.135z"/>
<g>
</g>
<g>
</g>
<g>
</g>
<g>
</g>
<g>
</g>
<g>
</g>
<g>
</g>
<g>
</g>
<g>
</g>
<g>
</g>
<g>
</g>
<g>
</g>
<g>
</g>
<g>
</g>
<g>
</g>
</svg>
