<?xml version="1.0" encoding="iso-8859-1"?>
<!-- Generator: Adobe Illustrator 17.1.0, SVG Export Plug-In . SVG Version: 6.00 Build 0)  -->
<!DOCTYPE svg PUBLIC "-//W3C//DTD SVG 1.1//EN" "http://www.w3.org/Graphics/SVG/1.1/DTD/svg11.dtd">
<svg version="1.1" id="Capa_1" xmlns="http://www.w3.org/2000/svg" xmlns:xlink="http://www.w3.org/1999/xlink" x="0px" y="0px"
	 viewBox="0 0 395.5 395.5" style="enable-background:new 0 0 395.5 395.5;" xml:space="preserve">
<path id="XMLID_27_" d="M45.86,138.804l-21.353-2.014c-4.948-0.467-8.581-4.857-8.114-9.806c0.467-4.949,4.851-8.587,9.806-8.115
	l19.741,1.862l167.047-44.759c0.751-0.201,1.525-0.304,2.304-0.307l20.674-0.059c0.009,0,0.018,0,0.026,0
	c4.958,0,8.985,4.012,8.999,8.975c0.014,4.97-4.004,9.011-8.975,9.025l-19.502,0.055L49.035,138.538
	c-0.761,0.204-1.544,0.307-2.329,0.307C46.424,138.844,46.143,138.831,45.86,138.804z M98.927,36.097
	c3.299-18.937,18.303-33.41,37.335-36.013c1.849-0.254,3.728,0.075,5.382,0.937c17.033,8.884,26.263,27.576,22.964,46.514
	c-3.298,18.938-18.302,33.411-37.336,36.015c-0.406,0.056-0.813,0.083-1.22,0.083c-1.443,0-2.872-0.347-4.162-1.021
	C104.856,73.726,95.628,55.033,98.927,36.097z M127.701,65.159c9.854-2.485,17.395-10.5,19.174-20.713
	c1.778-10.213-2.61-20.305-11.043-25.973c-9.853,2.484-17.394,10.499-19.173,20.713C114.88,49.398,119.269,59.489,127.701,65.159z
	 M235.109,140.941c1.077,4.021,4.714,6.673,8.688,6.673c0.771,0,1.555-0.1,2.335-0.309l80.033-21.445
	c4.802-1.287,7.65-6.222,6.364-11.023c-1.286-4.802-6.23-7.648-11.022-6.364l-80.033,21.445
	C236.672,131.205,233.823,136.14,235.109,140.941z M223.235,231.579c-4.801,1.286-7.65,6.221-6.364,11.022
	c1.286,4.801,6.216,7.649,11.022,6.365c5.481-1.469,11.231-0.698,16.192,2.166c4.962,2.865,8.503,7.46,9.971,12.941
	c1.469,5.479,0.7,11.229-2.164,16.191c-2.865,4.962-7.46,8.503-12.939,9.972l-137.341,36.801
	c-11.382,3.049-23.114-3.728-26.164-15.106c-1.469-5.479-0.699-11.229,2.165-16.191c2.865-4.962,7.46-8.503,12.939-9.972
	c4.802-1.287,7.65-6.222,6.364-11.023c-1.286-4.802-6.228-7.648-11.022-6.364c-10.124,2.713-18.601,9.232-23.869,18.358
	c-5.27,9.126-6.677,19.728-3.964,29.852c4.707,17.566,20.652,29.179,38.031,29.179c3.362,0,6.779-0.435,10.178-1.346l137.342-36.801
	c10.123-2.713,18.601-9.233,23.869-18.358c5.269-9.126,6.676-19.728,3.962-29.851c-2.712-10.124-9.231-18.601-18.357-23.87
	C243.96,230.275,233.36,228.867,223.235,231.579z M339.55,298.618L44.019,377.804c-4.802,1.287-7.65,6.222-6.364,11.023
	c1.077,4.021,4.714,6.673,8.688,6.673c0.771,0,1.555-0.1,2.335-0.309l295.531-79.186c4.802-1.287,7.65-6.222,6.364-11.022
	C349.286,300.18,344.349,297.332,339.55,298.618z M378.838,139.982c-1.286-4.803-6.223-7.651-11.022-6.364l-143.679,38.498
	c-4.802,1.287-7.65,6.222-6.364,11.022c1.077,4.021,4.714,6.673,8.688,6.673c0.771,0,1.555-0.1,2.335-0.309l143.679-38.498
	C377.275,149.718,380.124,144.783,378.838,139.982z M179.259,282.272c1.077,4.021,4.714,6.674,8.688,6.674
	c0.771,0,1.555-0.1,2.334-0.309l19.405-5.198c2.902-0.777,5.225-2.95,6.192-5.794c0.968-2.843,0.453-5.982-1.372-8.368
	l-44.987-58.806c-3.021-3.948-8.669-4.7-12.617-1.68c-3.947,3.02-4.699,8.668-1.68,12.616l36.815,48.124l-6.414,1.718
	C180.822,272.536,177.973,277.471,179.259,282.272z M107.041,300.542c1.077,4.021,4.714,6.674,8.688,6.674
	c0.771,0,1.555-0.1,2.334-0.309l19.408-5.198c4.041-1.082,6.804-4.807,6.666-8.989l-5.013-152.616
	c-0.163-4.969-4.348-8.856-9.291-8.7c-4.968,0.163-8.862,4.323-8.699,9.291l4.778,145.476l-12.506,3.35
	C108.605,290.806,105.755,295.741,107.041,300.542z M263.868,217.341c0.771,0,1.555-0.1,2.335-0.309l69.535-18.631
	c4.802-1.287,7.65-6.222,6.364-11.022c-1.286-4.802-6.223-7.65-11.022-6.364l-69.535,18.631c-4.802,1.287-7.65,6.222-6.364,11.022
	C256.258,214.689,259.895,217.341,263.868,217.341z"/>
<g>
</g>
<g>
</g>
<g>
</g>
<g>
</g>
<g>
</g>
<g>
</g>
<g>
</g>
<g>
</g>
<g>
</g>
<g>
</g>
<g>
</g>
<g>
</g>
<g>
</g>
<g>
</g>
<g>
</g>
</svg>
