<?xml version="1.0" encoding="iso-8859-1"?>
<!-- Generator: Adobe Illustrator 17.1.0, SVG Export Plug-In . SVG Version: 6.00 Build 0)  -->
<!DOCTYPE svg PUBLIC "-//W3C//DTD SVG 1.1//EN" "http://www.w3.org/Graphics/SVG/1.1/DTD/svg11.dtd">
<svg version="1.1" id="Capa_1" xmlns="http://www.w3.org/2000/svg" xmlns:xlink="http://www.w3.org/1999/xlink" x="0px" y="0px"
	 viewBox="0 0 386.782 386.782" style="enable-background:new 0 0 386.782 386.782;" xml:space="preserve">
<path id="XMLID_2036_" d="M146.3,254.954c-5.325-0.872-11-1.914-17.232-3.169c5.136,6.174,10.767,11.517,16.849,15.977
	c4.009,2.94,4.875,8.572,1.935,12.58c-1.763,2.404-4.495,3.678-7.264,3.679c-1.848,0-3.712-0.567-5.315-1.743
	c-13.464-9.875-24.957-23.219-34.162-39.661c-1.738-3.105-1.483-6.943,0.65-9.792c2.133-2.848,5.746-4.173,9.214-3.377
	c15.459,3.543,27.608,6.003,38.234,7.743c4.905,0.804,8.23,5.431,7.428,10.336C155.832,252.432,151.197,255.755,146.3,254.954z
	 M163.854,351.745c-72.388-31.834-117.356-96.568-117.356-168.94C46.498,69.572,120.528,18,189.311,18
	c68.784,0,142.814,51.572,142.814,164.805c0,12.492-1.378,25.003-4.095,37.188c-1.082,4.852,1.974,9.661,6.825,10.743
	c4.853,1.083,9.661-1.974,10.743-6.825c3.004-13.469,4.526-27.298,4.526-41.105c0-56.103-17.298-103.359-50.022-136.662
	C270.863,16.387,231.517,0,189.311,0C147.106,0,107.761,16.387,78.52,46.143c-32.725,33.303-50.022,80.56-50.022,136.662
	c0,39.516,12.37,77.904,35.774,111.016c22.674,32.08,54.604,57.808,92.336,74.401c1.179,0.519,2.408,0.764,3.618,0.764
	c3.461,0,6.761-2.008,8.243-5.379C170.471,359.057,168.404,353.746,163.854,351.745z M198.199,137.57
	c0-17.021,12.534-30.868,27.94-30.868h26.789c15.406,0,27.94,13.848,27.94,30.868c0,17.02-12.534,30.866-27.94,30.866h-26.789
	C210.733,168.437,198.199,154.59,198.199,137.57z M216.199,137.57c0,6.975,4.552,12.866,9.94,12.866h26.789
	c5.389,0,9.94-5.892,9.94-12.866c0-6.976-4.552-12.868-9.94-12.868h-26.789C220.751,124.702,216.199,130.595,216.199,137.57z
	 M313.194,365.021c-19.771,14.43-42.691,21.762-64.817,21.762c-15.976,0-31.535-3.821-45.201-11.554l-3.483,2.543
	c-4.017,2.928-9.646,2.048-12.576-1.965c-2.93-4.016-2.05-9.646,1.965-12.576l3.484-2.542c-0.333-1.604-0.619-3.209-0.859-4.824
	c-21.757-19.061-31.97-49.864-26.74-81.392c6.171-37.208,32.623-66.402,65.823-72.645c2.087-0.391,4.245-0.035,6.093,1.011
	c14.919,8.437,26.557,22.076,33.424,38.967c28.095-8.457,57.814-5.164,80.997,10.362c1.764,1.182,3.054,2.948,3.641,4.989
	C365.952,295.418,349.175,338.766,313.194,365.021z M211.281,283.31l5.376-32.405c0.814-4.904,5.445-8.213,10.352-7.406
	c4.406,0.731,7.529,4.546,7.528,8.87c0,0.488-0.04,0.983-0.122,1.481l-1.185,7.141c0.859-0.665,1.732-1.321,2.615-1.965
	c5.67-4.139,11.601-7.693,17.695-10.658c-4.896-11.918-12.736-21.671-22.677-28.135c-24.271,6.12-43.411,28.666-48.141,57.186
	c-3.027,18.252,0.514,36.582,9.215,50.913C194.493,312.477,201.131,296.979,211.281,283.31z M338.483,265.346
	c-20.117-12.077-45.888-13.238-69.737-4c-0.424,0.208-0.87,0.386-1.336,0.529c-7.247,2.936-14.304,6.837-20.953,11.689
	c-7.363,5.374-13.767,11.576-19.104,18.339c-0.282,0.436-0.6,0.844-0.947,1.221c-12.682,16.618-19.005,36.449-17.421,55.583
	l90.994-66.402c4.016-2.93,9.646-2.049,12.576,1.965c2.93,4.016,2.05,9.646-1.965,12.576l-90.994,66.401
	c25.459,10.54,57.264,6.006,82.988-12.767C331.455,329.413,345.585,295.581,338.483,265.346z M188.814,54.909
	c0.147,0.002,0.293-0.001,0.44-0.001c26.109,0,50.468,10.591,68.625,29.847c1.771,1.878,4.157,2.826,6.55,2.826
	c2.214,0,4.434-0.813,6.172-2.452c3.617-3.409,3.784-9.105,0.374-12.722c-21.705-23.022-50.862-35.629-82.197-35.498
	c-4.971,0.021-8.983,4.067-8.963,9.037C179.836,50.904,183.861,54.909,188.814,54.909z M152.485,168.437h-26.788
	c-15.407,0-27.941-13.847-27.941-30.866c0-17.021,12.534-30.868,27.941-30.868h26.788c15.406,0,27.94,13.848,27.94,30.868
	C180.426,154.59,167.891,168.437,152.485,168.437z M162.426,137.57c0-6.976-4.552-12.868-9.94-12.868h-26.788
	c-5.389,0-9.941,5.893-9.941,12.868c0,6.975,4.553,12.866,9.941,12.866h26.788C157.874,150.437,162.426,144.545,162.426,137.57z"/>
<g>
</g>
<g>
</g>
<g>
</g>
<g>
</g>
<g>
</g>
<g>
</g>
<g>
</g>
<g>
</g>
<g>
</g>
<g>
</g>
<g>
</g>
<g>
</g>
<g>
</g>
<g>
</g>
<g>
</g>
</svg>
