<?xml version="1.0" encoding="iso-8859-1"?>
<!-- Generator: Adobe Illustrator 17.1.0, SVG Export Plug-In . SVG Version: 6.00 Build 0)  -->
<!DOCTYPE svg PUBLIC "-//W3C//DTD SVG 1.1//EN" "http://www.w3.org/Graphics/SVG/1.1/DTD/svg11.dtd">
<svg version="1.1" id="Capa_1" xmlns="http://www.w3.org/2000/svg" xmlns:xlink="http://www.w3.org/1999/xlink" x="0px" y="0px"
	 viewBox="0 0 356.677 356.677" style="enable-background:new 0 0 356.677 356.677;" xml:space="preserve">
<path id="XMLID_1119_" d="M160.744,80.735c1.452,0.931,3.138,1.423,4.857,1.423c0.14,0,0.28-0.003,0.419-0.01
	c19.145-0.893,35.341-13.938,40.304-32.459c4.964-18.522-2.54-37.919-18.673-48.266c-1.57-1.006-3.418-1.497-5.278-1.414
	c-19.146,0.894-35.344,13.939-40.306,32.461C137.103,50.994,144.609,70.39,160.744,80.735z M159.454,37.129
	c2.671-9.97,10.859-17.248,20.85-18.841c7.854,6.375,11.306,16.772,8.634,26.742c-2.671,9.969-10.858,17.246-20.848,18.839
	C160.234,57.495,156.782,47.099,159.454,37.129z M53.235,45.282c-1.346-1.604-2.09-3.627-2.104-5.721l-0.183-26.377
	c-0.034-4.971,3.967-9.028,8.938-9.062c0.021,0,0.042,0,0.064,0c4.941,0,8.964,3.988,8.998,8.938l0.16,23.079
	C85.09,54.307,109.098,72.11,137.105,86.51c4.421,2.273,6.162,7.699,3.889,12.119c-1.596,3.104-4.746,4.887-8.011,4.887
	c-1.385,0-2.791-0.321-4.108-0.998C97.087,86.174,70.932,66.382,53.235,45.282z M303.456,120.932l-17.534,19.721
	c-1.464,1.647-3.482,2.7-5.671,2.958c-26.378,3.115-67.474-1.025-108.437-20.708v87.626c0,0.798-0.106,1.592-0.315,2.362
	l-28.762,105.73c-1.066,3.918-4.624,6.638-8.685,6.638h-20.031c-4.971,0-9-4.029-9-9s4.029-9,9-9h13.152l26.641-97.933V108.036
	c0-3.205,1.705-6.168,4.476-7.78c2.77-1.613,6.189-1.628,8.975-0.042c48.744,27.734,93.139,27.012,107.545,25.848l15.194-17.089
	c3.302-3.715,8.991-4.049,12.706-0.746C306.425,111.529,306.759,117.218,303.456,120.932z M263.337,347.677c0,4.971-4.029,9-9,9
	H63.587c-4.971,0-9-4.029-9-9s4.029-9,9-9h190.75C259.307,338.677,263.337,342.707,263.337,347.677z M273.689,271.974l-8.791,18
	c-1.56,3.195-4.762,5.052-8.093,5.052c-1.326,0-2.672-0.294-3.943-0.915c-4.466-2.181-6.319-7.57-4.137-12.037l5.178-10.601
	l-66.952-40.426c-4.255-2.569-5.622-8.102-3.053-12.356s8.101-5.622,12.356-3.053l74,44.682
	C274.244,262.729,275.734,267.786,273.689,271.974z"/>
<g>
</g>
<g>
</g>
<g>
</g>
<g>
</g>
<g>
</g>
<g>
</g>
<g>
</g>
<g>
</g>
<g>
</g>
<g>
</g>
<g>
</g>
<g>
</g>
<g>
</g>
<g>
</g>
<g>
</g>
</svg>
