<?xml version="1.0" encoding="iso-8859-1"?>
<!-- Generator: Adobe Illustrator 17.1.0, SVG Export Plug-In . SVG Version: 6.00 Build 0)  -->
<!DOCTYPE svg PUBLIC "-//W3C//DTD SVG 1.1//EN" "http://www.w3.org/Graphics/SVG/1.1/DTD/svg11.dtd">
<svg version="1.1" id="Capa_1" xmlns="http://www.w3.org/2000/svg" xmlns:xlink="http://www.w3.org/1999/xlink" x="0px" y="0px"
	 viewBox="0 0 366.33 366.33" style="enable-background:new 0 0 366.33 366.33;" xml:space="preserve">
<path id="XMLID_215_" d="M170.748,159.786c2.484,4.305,1.01,9.809-3.296,12.294l-9.462,5.462c-1.417,0.817-2.964,1.207-4.49,1.207
	c-3.111,0-6.137-1.614-7.804-4.503c-2.484-4.305-1.009-9.809,3.296-12.294l9.462-5.462
	C162.76,154.008,168.264,155.481,170.748,159.786z M148.992,142.793l9.462,5.461c1.417,0.817,2.964,1.207,4.49,1.207
	c3.111,0,6.137-1.615,7.804-4.503c2.484-4.305,1.009-9.81-3.296-12.294l-9.462-5.461c-4.307-2.484-9.81-1.009-12.294,3.296
	C143.212,134.805,144.688,140.309,148.992,142.793z M124.931,310.894c-4.047-2.887-9.668-1.946-12.554,2.099
	c-1.093,1.531-2.244,3.046-3.417,4.496c-20.02,24.688-50.432,35.938-76.688,28.692c-12.516-24.188-7.802-56.271,12.217-80.961
	c3.13-3.861,2.538-9.528-1.323-12.659s-9.527-2.537-12.659,1.323c-25.563,31.53-30.42,73.494-12.085,104.422
	c1.097,1.849,2.817,3.244,4.853,3.934c8.139,2.759,16.614,4.091,25.159,4.091c27.204-0.002,55.055-13.514,74.513-37.512
	c1.406-1.738,2.78-3.545,4.083-5.371C129.916,319.401,128.977,313.781,124.931,310.894z M183.587,167.198c-4.971,0-9,4.029-9,9
	v10.924c0,4.971,4.029,9,9,9s9-4.029,9-9v-10.924C192.587,171.227,188.558,167.198,183.587,167.198z M246.092,255.138
	c0,28.308-11.761,51.332-32.266,63.171c-9.176,5.297-19.466,7.946-29.754,7.946c-10.29,0.001-20.576-2.648-29.754-7.947
	c-20.505-11.839-32.265-34.863-32.264-63.17c0-2.64,0.13-5.355,0.388-8.136l-22.317,27.541l0.313,21.878
	c0.071,4.97-3.899,9.057-8.87,9.128c-0.044,0.001-0.088,0.001-0.132,0.001c-4.91,0-8.926-3.945-8.996-8.871l-0.005-0.308
	l-16.085,19.85c-3.129,3.863-8.796,4.458-12.658,1.326c-3.862-3.129-4.456-8.797-1.326-12.658l17.46-21.548l-3.088,0.606
	c-4.877,0.959-9.608-2.222-10.564-7.1s2.223-9.607,7.1-10.564l24.226-4.751l15.604-19.255c-26.606,8.383-51.776,4.228-69.182-11.443
	c-15.748-14.181-22.794-35.866-18.388-56.595c4.923-23.159,23.187-41.458,50.107-50.205c6.006-1.952,12.699-3.332,19.907-4.123
	c-5.074-4.683-9.446-9.521-12.999-14.41C55.91,82.6,51.891,57.06,61.522,35.43c8.62-19.36,27.067-32.763,48.143-34.978
	c23.55-2.47,46.595,9.241,63.231,32.142c3.544,4.876,6.789,10.521,9.673,16.787c2.909-6.355,6.189-12.077,9.775-17.015
	c27.448-37.773,67.047-39.196,91.98-21.082c24.932,18.115,35.813,56.216,8.37,93.988c-3.56,4.898-7.94,9.745-13.025,14.435
	c7.944,0.746,15.299,2.194,21.863,4.327c26.922,8.747,45.187,27.047,50.109,50.206c4.406,20.729-2.64,42.414-18.388,56.594
	c-17.421,15.686-42.619,19.832-69.244,11.424l15.673,19.649l23.377,4.588c4.877,0.956,8.056,5.687,7.098,10.564
	c-0.956,4.878-5.68,8.051-10.564,7.099l-2.564-0.504l16.98,21.288c3.1,3.886,2.462,9.549-1.424,12.648
	c-3.887,3.1-9.549,2.462-12.648-1.424l-15.783-19.788l-0.004,0.302c-0.071,4.925-4.087,8.869-8.996,8.869
	c-0.045,0-0.089,0-0.134-0.001c-4.97-0.072-8.94-4.159-8.868-9.129l0.321-22.207l-20.656-25.898
	C245.999,250.639,246.092,252.916,246.092,255.138z M232.12,202.459c12.457,10.928,25.127,18.68,36.646,22.422
	c20.944,6.805,39.569,4.169,52.443-7.424c10.984-9.891,15.899-25.016,12.826-39.474c-3.603-16.945-17.12-30.025-38.065-36.83
	c-11.415-3.711-26.094-4.896-42.453-3.437c-4.148,0.37-8.018-2.16-9.338-6.113c-1.32-3.955,0.249-8.299,3.791-10.498
	c13.071-8.111,23.501-17.245,30.162-26.413c21.451-29.525,12.763-56.385-4.389-68.847c-17.152-12.463-45.384-12.426-66.836,17.1
	c-6.524,8.981-11.914,21.431-15.588,36.001c-1.007,3.995-4.6,6.797-8.72,6.8c-0.002,0-0.005,0-0.007,0
	c-4.118,0-7.711-2.795-8.724-6.787c-3.674-14.479-9.046-26.854-15.535-35.784c-12.944-17.817-29.576-26.637-46.788-24.82
	c-14.701,1.544-27.568,10.893-33.58,24.396c-7.047,15.826-3.799,34.354,9.146,52.17c6.545,9.008,16.741,17.997,29.487,25.995
	c3.502,2.197,5.056,6.498,3.768,10.427c-1.287,3.929-5.073,6.477-9.21,6.172c-15.352-1.12-29.169,0.133-39.952,3.639
	c-20.945,6.805-34.463,19.884-38.064,36.828c-3.074,14.459,1.841,29.585,12.826,39.476c12.873,11.593,31.499,14.229,52.442,7.424
	c11.854-3.853,25.406-12.294,38.172-23.775c1.131-1.053,2.483-1.768,3.914-2.129c0.006,0.002,0.012-0.003,0.018-0.005
	c0.508-0.127,1.025-0.21,1.546-0.247c0.005-0.001,0.011-0.002,0.018-0.001c2.171-0.161,4.395,0.474,6.227,1.929
	c0.227,0.18,0.441,0.368,0.646,0.566c1.413,1.357,2.296,3.087,2.618,4.908c0.146,0.817,0.179,1.656,0.093,2.494
	c-0.001,0.003-0.001,0.006-0.001,0.009c-0.103,0.995-0.371,1.979-0.811,2.91c-6.961,15.666-10.793,31.144-10.793,43.598
	c0,22.021,8.262,38.92,23.264,47.582c12.801,7.391,28.707,7.391,41.508,0c15.003-8.662,23.266-25.561,23.266-47.582
	c0-12.251-3.527-26.857-10.202-42.252c-0.434-0.941-0.693-1.936-0.785-2.938c-0.075-0.82-0.037-1.642,0.109-2.441
	c0.336-1.846,1.247-3.595,2.701-4.954c0.005-0.005,0.01-0.009,0.015-0.014l0.001-0.001c0.197-0.184,0.405-0.36,0.622-0.528
	c0.001-0.001,0.002-0.002,0.003-0.003c0.004-0.003,0.009-0.006,0.013-0.009c1.881-1.454,4.169-2.049,6.365-1.834
	c0.005,0,0.01,0.001,0.018,0.001c0.421,0.042,0.84,0.113,1.252,0.214c0.005,0.001,0.011,0.001,0.017,0.004
	C229.643,200.733,230.989,201.43,232.12,202.459z M335.825,253.884c-3.131-3.861-8.797-4.455-12.659-1.323
	c-3.861,3.131-4.453,8.798-1.323,12.659c20.017,24.688,24.73,56.771,12.216,80.962c-26.248,7.238-56.667-4.002-76.682-28.688
	c-1.207-1.492-2.356-3.003-3.413-4.49c-2.881-4.051-8.499-5-12.551-2.119c-4.051,2.881-4.999,8.5-2.119,12.551
	c1.273,1.79,2.65,3.602,4.097,5.389c19.456,23.995,47.301,37.507,74.507,37.506c8.542,0,17.023-1.332,25.16-4.091
	c2.035-0.689,3.757-2.086,4.853-3.935C366.242,327.375,361.386,285.411,335.825,253.884z M183.587,108.622c-4.971,0-9,4.029-9,9
	v10.924c0,4.971,4.029,9,9,9s9-4.029,9-9v-10.924C192.587,112.652,188.558,108.622,183.587,108.622z M209.179,127.203l-9.458,5.462
	c-4.304,2.486-5.778,7.99-3.293,12.295c1.667,2.887,4.692,4.501,7.803,4.501c1.526,0,3.074-0.39,4.492-1.208l9.458-5.462
	c4.305-2.486,5.778-7.99,3.293-12.295C218.988,126.193,213.486,124.717,209.179,127.203z M218.181,161.954l-9.458-5.462
	c-4.305-2.485-9.81-1.011-12.295,3.293c-2.485,4.305-1.011,9.809,3.293,12.295l9.458,5.462c1.418,0.818,2.965,1.208,4.492,1.208
	c3.11,0,6.136-1.614,7.803-4.501C223.959,169.945,222.486,164.441,218.181,161.954z"/>
<g>
</g>
<g>
</g>
<g>
</g>
<g>
</g>
<g>
</g>
<g>
</g>
<g>
</g>
<g>
</g>
<g>
</g>
<g>
</g>
<g>
</g>
<g>
</g>
<g>
</g>
<g>
</g>
<g>
</g>
</svg>
