<?xml version="1.0" encoding="iso-8859-1"?>
<!-- Generator: Adobe Illustrator 17.1.0, SVG Export Plug-In . SVG Version: 6.00 Build 0)  -->
<!DOCTYPE svg PUBLIC "-//W3C//DTD SVG 1.1//EN" "http://www.w3.org/Graphics/SVG/1.1/DTD/svg11.dtd">
<svg version="1.1" id="Capa_1" xmlns="http://www.w3.org/2000/svg" xmlns:xlink="http://www.w3.org/1999/xlink" x="0px" y="0px"
	 viewBox="0 0 387.173 387.173" style="enable-background:new 0 0 387.173 387.173;" xml:space="preserve">
<path id="XMLID_1757_" d="M225.551,71.82c-2.465,9.942-1.213,19.868,3.821,26.87c1.53,2.128,3.911,3.483,6.522,3.712
	c0.691,0.061,1.384,0.09,2.081,0.09c7.96,0,16.247-3.898,22.962-10.526c7.378,7.108,16.606,10.992,25.186,10.131
	c2.609-0.261,4.974-1.646,6.478-3.794c4.942-7.059,6.072-16.989,3.486-26.906c9.841-2.837,17.811-8.881,21.36-16.739
	c1.08-2.391,1.063-5.133-0.045-7.51c-3.643-7.81-11.676-13.754-21.561-16.474c2.464-9.94,1.214-19.865-3.817-26.868
	c-1.53-2.13-3.912-3.485-6.523-3.715c-8.588-0.752-17.75,3.231-25.048,10.433c-7.378-7.105-16.601-10.988-25.178-10.128
	c-2.608,0.26-4.974,1.645-6.478,3.791c-4.942,7.055-6.077,16.98-3.487,26.909c-9.843,2.837-17.814,8.882-21.364,16.741
	c-1.079,2.389-1.063,5.13,0.045,7.507C207.633,63.155,215.665,69.1,225.551,71.82z M237.822,47.321h0.169
	c3.24,0,6.23-1.741,7.829-4.56c1.598-2.818,1.559-6.278-0.104-9.06l-0.043-0.072c-3.041-5.195-4.039-10.399-3.669-14.312
	c3.582,1.589,7.618,4.99,10.657,10.157l0.048,0.085c1.598,2.82,4.589,4.562,7.83,4.562c0.004,0,0.01,0,0.014,0
	c3.247-0.005,6.238-1.758,7.83-4.588l0.061-0.107c2.978-5.23,6.984-8.696,10.558-10.333c0.415,3.911-0.524,9.135-3.516,14.39
	l-0.083,0.146c-1.579,2.803-1.542,6.235,0.098,9.003c1.64,2.769,4.618,4.46,7.849,4.413l0.117-0.001
	c6.023-0.087,11.025,1.701,14.23,3.979c-3.174,2.314-8.145,4.112-14.126,4.148h-0.168c-3.232,0-6.216,1.733-7.817,4.54
	c-1.602,2.808-1.575,6.258,0.07,9.04l0.066,0.112c3.042,5.194,4.04,10.397,3.671,14.312c-3.594-1.595-7.644-5.013-10.688-10.213
	l-0.086-0.146c-1.617-2.757-4.572-4.446-7.762-4.446c-0.035,0-0.07,0-0.105,0.001c-3.23,0.037-6.192,1.803-7.762,4.626l-0.038,0.068
	c-2.979,5.232-6.987,8.698-10.561,10.336c-0.417-3.906,0.514-9.116,3.483-14.33l0.083-0.146c1.607-2.802,1.591-6.249-0.044-9.034
	c-1.617-2.756-4.572-4.445-7.762-4.445c-0.035,0-0.069,0-0.104,0.001l-0.123,0.001c-6.066,0.05-11.024-1.701-14.229-3.978
	C226.869,49.156,231.841,47.358,237.822,47.321z M193.588,221.519c-42.078,0-72.226,2.81-89.742,5.785
	c17.516,2.975,47.664,5.784,89.742,5.784c44.668,0,75.891-3.166,92.831-6.335c-2.498-2.086-3.775-5.459-3.024-8.855
	c1.072-4.854,5.874-7.918,10.729-6.848c7.92,1.749,22.661,5.004,22.661,16.254c0,9.665-11.145,13.076-15.34,14.36
	c-6.233,1.908-14.965,3.597-25.952,5.02c-21.939,2.84-51.027,4.404-81.904,4.404c-30.878,0-59.966-1.564-81.906-4.404
	c-10.987-1.423-19.719-3.111-25.952-5.02c-4.195-1.284-15.34-4.695-15.34-14.36s11.145-13.077,15.34-14.361
	c6.233-1.908,14.965-3.597,25.952-5.019c21.94-2.841,51.028-4.405,81.906-4.405c4.971,0,9,4.029,9,9
	S198.559,221.519,193.588,221.519z M384.22,226.812c0,43.148-20.043,83.614-56.438,113.942
	c-18.046,15.038-39.054,26.682-61.911,34.547c0.303,0.901,0.467,1.866,0.467,2.87c0,4.971-4.029,9-9,9h-62.789
	c-0.321,0.001-0.641,0.002-0.962,0.002c-0.316,0-0.631-0.001-0.948-0.002h-62.807c-4.971,0-9-4.029-9-9
	c0-1.025,0.171-2.011,0.487-2.929c-5.566-1.912-11.021-4.046-16.342-6.398c-4.546-2.01-6.602-7.324-4.592-11.87
	c2.009-4.547,7.323-6.604,11.871-4.593c24.583,10.867,52.372,16.667,80.419,16.79h1.833c83.689-0.363,153.48-50.093,168.652-115.601
	c-9.68,5.308-22.68,10.011-38.958,14.08c-34.999,8.75-81.386,13.568-130.616,13.568c-49.231,0-95.619-4.818-130.618-13.568
	c-16.293-4.072-29.302-8.78-38.985-14.094c2.563,11.11,6.744,21.917,12.518,32.321c2.412,4.347,0.844,9.825-3.503,12.237
	c-4.345,2.409-9.825,0.843-12.236-3.503c-11.817-21.296-17.81-44.106-17.812-67.8c0-0.001,0-0.001,0-0.001
	c0-17.144,20.193-30.884,60.017-40.84c35-8.75,81.388-13.568,130.618-13.568c4.971,0,9,4.029,9,9s-4.029,9-9,9
	c-47.802,0-92.639,4.628-126.252,13.031c-38.049,9.511-46.382,20.099-46.383,23.376c0.001,3.279,8.334,13.865,46.383,23.377
	c33.613,8.402,78.451,13.03,126.252,13.03c47.801,0,92.638-4.628,126.25-13.03c38.05-9.513,46.382-20.1,46.382-23.377
	c0-5.438-15.989-17.364-58.892-26.219c-4.868-1.005-8-5.766-6.996-10.634c1.004-4.867,5.767-8.004,10.633-6.995
	C359.574,192.997,384.22,207.749,384.22,226.812z M225.529,223.129c1.521,0.756,3.498,1.057,5.679,1.056
	c7.745,0,18.049-3.781,19.491-4.325c9.359-3.531,22.135-10.417,29.85-23.165c14.84-24.529,13.639-51.505-2.733-61.41
	c-8.439-5.107-19.547-4.7-30.475,1.113c-9.592,5.102-18.539,13.968-25.192,24.964c-11.696,19.327-6.298,42.554-4.365,49.212
	C220.233,219.015,222.652,221.699,225.529,223.129z M237.548,170.68c4.925-8.14,11.575-14.843,18.245-18.391
	c3.225-1.716,6.233-2.591,8.739-2.591c1.53,0,2.874,0.326,3.965,0.986c6.513,3.94,6.465,20.47-3.349,36.692
	c-6.966,11.511-22.23,16.747-30.071,18.322C232.86,198.153,230.476,182.367,237.548,170.68z M100.88,308.163
	c-1.552-2.814-4.335-5.117-12.871-7.207c-6.735-1.648-30.171-6.057-48.985,6.445c-10.705,7.113-19.183,16.428-23.874,26.228
	c-5.345,11.166-5.278,22.281,0.181,30.493c5.125,7.714,14.449,12.034,25.804,12.034c0.738,0,1.485-0.019,2.24-0.056
	c10.852-0.528,22.723-4.737,33.426-11.851c12.41-8.246,18.748-21.302,21.879-30.802C99.298,331.572,104.612,314.931,100.88,308.163z
	 M66.839,349.257c-7.923,5.266-16.794,8.497-24.339,8.864c-5.87,0.29-10.313-1.157-12.177-3.963
	c-1.864-2.804-1.476-7.454,1.063-12.759c3.261-6.814,9.676-13.742,17.6-19.007c6.405-4.257,14.236-5.573,21.219-5.573
	c5.42,0,10.33,0.793,13.666,1.621C82.628,326.341,78.043,341.812,66.839,349.257z M272.692,328.214
	c-2.201-4.457-0.373-9.854,4.084-12.055c15.069-7.442,27.407-18.003,36.67-31.388c2.829-4.088,8.436-5.109,12.522-2.278
	c4.087,2.828,5.107,8.435,2.279,12.522c-11.023,15.928-25.659,28.471-43.5,37.282c-1.281,0.633-2.641,0.933-3.979,0.933
	C277.45,333.231,274.26,331.39,272.692,328.214z M141.361,124.155c9.038,11.198,21.024,17.239,29.488,20.335
	c4.509,1.649,11.527,3.817,17.252,3.817c2.545,0,4.836-0.429,6.536-1.522c3.761-2.414,4.431-6.552,4.683-8.109
	c1.139-7.036,1.003-31.318-14.05-49.967c-18.61-23.051-41.35-32.33-54.07-22.059c-3.995,3.225-10.071,11.069-5.886,27.376
	C127.802,103.718,133.5,114.418,141.361,124.155z M142.502,80.659c0.243-0.154,0.644-0.238,1.185-0.238
	c3.959,0,15.422,4.538,27.577,19.595c7.455,9.234,9.91,21.378,10.422,29.09c-7.501-2.091-18.836-6.985-26.319-16.256
	C141.546,95.729,140.828,82.358,142.502,80.659z"/>
<g>
</g>
<g>
</g>
<g>
</g>
<g>
</g>
<g>
</g>
<g>
</g>
<g>
</g>
<g>
</g>
<g>
</g>
<g>
</g>
<g>
</g>
<g>
</g>
<g>
</g>
<g>
</g>
<g>
</g>
</svg>
