<?xml version="1.0" encoding="iso-8859-1"?>
<!-- Generator: Adobe Illustrator 17.1.0, SVG Export Plug-In . SVG Version: 6.00 Build 0)  -->
<!DOCTYPE svg PUBLIC "-//W3C//DTD SVG 1.1//EN" "http://www.w3.org/Graphics/SVG/1.1/DTD/svg11.dtd">
<svg version="1.1" id="Capa_1" xmlns="http://www.w3.org/2000/svg" xmlns:xlink="http://www.w3.org/1999/xlink" x="0px" y="0px"
	 viewBox="0 0 394.638 394.638" style="enable-background:new 0 0 394.638 394.638;" xml:space="preserve">
<path id="XMLID_1061_" d="M172.36,137.142c0.889,0.283,1.811,0.425,2.733,0.425s1.844-0.142,2.733-0.425
	c18.261-5.82,30.529-22.613,30.529-41.788c0-19.178-12.27-35.97-30.531-41.786c-1.776-0.566-3.686-0.566-5.461,0
	c-18.264,5.815-30.534,22.608-30.534,41.786C141.828,114.53,154.098,131.323,172.36,137.142z M175.092,71.76
	c9.237,4.124,15.263,13.273,15.263,23.595c0,10.32-6.026,19.469-15.262,23.596c-9.238-4.126-15.265-13.276-15.265-23.596
	C159.828,85.033,165.855,75.884,175.092,71.76z M192.526,27.253V9c0-4.971,4.029-9,9-9s9,4.029,9,9v13.608
	c22.715,16.997,36.238,42.681,36.415,69.604c0,0.04,0,0.079,0,0.118c-0.188,28.457-15.286,55.533-40.391,72.427
	c-1.541,1.037-3.288,1.534-5.017,1.534c-2.895,0-5.737-1.394-7.475-3.976c-2.775-4.124-1.682-9.716,2.442-12.492
	c20.449-13.761,32.27-34.735,32.44-57.552c-0.17-22.817-11.991-43.791-32.439-57.551C194.016,33.047,192.526,30.248,192.526,27.253z
	 M72.856,99.684l-8.976,8.974c-3.515,3.515-9.214,3.514-12.728-0.001c-3.515-3.515-3.514-9.213,0.001-12.728l12.908-12.906
	c2.316-2.315,5.705-3.19,8.854-2.284c22.931,6.605,50.386,27.212,73.44,55.123c23.83,28.85,37.584,58.627,37.736,81.696v136.664
	c0,2.387-0.948,4.676-2.636,6.364c-1.688,1.688-3.977,2.636-6.364,2.636c0,0,0,0,0,0l-20.033-0.002c-4.971,0-9-4.03-8.999-9.001
	c0-4.97,4.03-8.999,9-8.999c0,0,0,0,0.001,0l11.031,0.001V217.618C165.843,179.842,114.117,115.345,72.856,99.684z M306.61,385.638
	c0,4.971-4.029,9-9,9H106.864c-4.971,0-9-4.029-9-9s4.029-9,9-9H297.61C302.581,376.638,306.61,380.668,306.61,385.638z
	 M345.261,329.583c-1.534,3.258-4.771,5.167-8.148,5.167c-1.285,0-2.589-0.276-3.828-0.86l-16.205-7.631
	c-40.602,0.566-78.843-19.425-100.321-52.456l-17.248-27.107c-2.668-4.193-1.431-9.756,2.763-12.424
	c4.193-2.669,9.756-1.431,12.425,2.762l17.199,27.032c18.409,28.31,51.693,45.262,86.818,44.153
	c1.412-0.046,2.831,0.248,4.116,0.854l18.121,8.534C345.45,319.724,347.378,325.086,345.261,329.583z"/>
<g>
</g>
<g>
</g>
<g>
</g>
<g>
</g>
<g>
</g>
<g>
</g>
<g>
</g>
<g>
</g>
<g>
</g>
<g>
</g>
<g>
</g>
<g>
</g>
<g>
</g>
<g>
</g>
<g>
</g>
</svg>
