<?xml version="1.0" encoding="iso-8859-1"?>
<!-- Generator: Adobe Illustrator 17.1.0, SVG Export Plug-In . SVG Version: 6.00 Build 0)  -->
<!DOCTYPE svg PUBLIC "-//W3C//DTD SVG 1.1//EN" "http://www.w3.org/Graphics/SVG/1.1/DTD/svg11.dtd">
<svg version="1.1" id="Capa_1" xmlns="http://www.w3.org/2000/svg" xmlns:xlink="http://www.w3.org/1999/xlink" x="0px" y="0px"
	 viewBox="0 0 381.268 381.268" style="enable-background:new 0 0 381.268 381.268;" xml:space="preserve">
<path id="XMLID_1453_" d="M235.461,274.238c1.756,4.649-0.591,9.843-5.241,11.599c-11.979,4.523-25.711,6.914-39.709,6.914
	c-36.22,0-67.784-16.055-76.762-39.042c-1.808-4.63,0.479-9.849,5.11-11.657c4.628-1.809,9.848,0.479,11.657,5.11
	c6.242,15.986,31.474,27.589,59.994,27.589c11.85,0,23.382-1.989,33.352-5.754C228.51,267.238,233.705,269.588,235.461,274.238z
	 M80.472,225.9c-4.771-1.372-9.762,1.389-11.134,6.167c-1.407,4.901-2.121,9.944-2.121,14.988c0,22.178,13.414,42.707,37.77,57.808
	c23.016,14.27,53.432,22.128,85.646,22.128c32.215,0,62.633-7.858,85.648-22.128c24.356-15.1,37.771-35.63,37.771-57.808
	c0-4.971-4.029-9-9-9s-9,4.029-9,9c0,15.717-10.39,30.813-29.255,42.51c-20.206,12.526-47.255,19.426-76.164,19.426
	c-28.907,0-55.955-6.899-76.16-19.426c-18.865-11.696-29.255-26.793-29.255-42.51c0-3.363,0.479-6.734,1.422-10.021
	C88.011,232.257,85.25,227.272,80.472,225.9z M139.939,89.927c-3.478,3.552-3.416,9.25,0.137,12.727l5.922,5.796
	c1.751,1.715,4.023,2.568,6.294,2.568c2.336,0,4.67-0.903,6.433-2.705c3.478-3.552,3.416-9.25-0.137-12.727l-5.922-5.796
	C149.113,86.314,143.415,86.376,139.939,89.927z M130.981,173.786c3.448-3.58,3.341-9.277-0.238-12.727l-25.188-24.263
	c-3.578-3.447-9.277-3.34-12.727,0.238c-3.448,3.58-3.341,9.277,0.238,12.727l25.188,24.263c1.746,1.682,3.996,2.518,6.243,2.518
	C126.857,176.542,129.214,175.619,130.981,173.786z M71.235,35.005L86.53,48.109c0.238,0.212,0.49,0.463,0.765,0.729
	c2.186,2.123,6.252,6.075,12.511,6.9c6.796,0.893,13.763-2.185,20.728-9.15c1.489-1.488,4.315-1.586,5.926-0.203l9.208,7.891
	l32.894,31.708c1.746,1.684,3.997,2.521,6.245,2.521c2.358,0,4.715-0.922,6.48-2.754c3.45-3.578,3.346-9.276-0.233-12.726
	L147.97,41.134c-0.126-0.122-0.257-0.24-0.39-0.354l-9.407-8.061c-8.676-7.437-22.299-6.925-30.367,1.143
	c-3.517,3.517-5.337,3.969-5.648,4.022c-0.542-0.229-1.69-1.345-2.317-1.954c-0.524-0.51-1.014-0.979-1.468-1.377
	c-0.027-0.024-0.055-0.048-0.082-0.071L82.946,21.335c-3.774-3.232-9.457-2.797-12.689,0.979
	C67.023,26.089,67.461,31.77,71.235,35.005z M134.132,119.926l-5.978-5.743c-3.584-3.444-9.281-3.33-12.726,0.255
	c-3.443,3.584-3.329,9.281,0.255,12.726l5.978,5.743c1.745,1.677,3.991,2.51,6.234,2.51c2.363,0,4.724-0.926,6.491-2.765
	C137.83,129.067,137.716,123.37,134.132,119.926z M355.2,216.791c-4.71,1.588-7.241,6.693-5.653,11.403
	c2.585,7.669,3.574,15.542,2.94,23.405c-2.02,25.206-20.298,48.723-51.469,66.218c-32.461,18.22-74.562,27.508-118.596,26.151
	c-56.206-1.732-107.836-21.485-134.742-51.552c-13.752-15.365-20.288-32.623-18.902-49.906c0.632-7.906,2.898-15.746,6.736-23.303
	c2.251-4.432,0.483-9.849-3.949-12.1c-4.43-2.25-9.848-0.484-12.1,3.949c-4.906,9.66-7.811,19.76-8.631,30.017
	c-1.788,22.313,6.314,44.219,23.432,63.347c30.536,34.122,85.715,55.632,147.602,57.54c2.99,0.092,5.971,0.138,8.944,0.138
	c44.007-0.001,85.974-10.038,119.016-28.584c36.566-20.524,58.089-49.104,60.602-80.474c0.831-10.306-0.456-20.601-3.826-30.597
	C365.016,217.734,359.909,215.203,355.2,216.791z M378.631,58.835c-3.514-3.514-9.212-3.515-12.728,0.001L336.16,88.581
	c-0.34,0.337-0.814,0.762-1.377,1.271c-5.313,4.823-16.368,14.859-16.692,28.295c-0.12,4.958,1.28,12.412,8.634,19.767
	c1.124,1.123,0.223,8.775-7.629,17.253l-51.082,48.893l-23.952,22.604c-6.36,6-17.362,7.464-20.279,4.94
	c-0.251-0.246-0.85-0.843-1.613-1.604l65.993-62.883c3.599-3.429,3.736-9.126,0.308-12.724c-3.429-3.599-9.127-3.736-12.725-0.308
	l-75.235,71.688c-6.365,6.004-17.382,7.461-20.313,4.909c-0.327-0.315-1.391-1.351-2.758-2.685c1.511-1.036,2.927-2.168,4.219-3.382
	l83.906-80.111c3.596-3.433,3.728-9.13,0.295-12.725c-3.434-3.596-9.129-3.728-12.725-0.295l-83.856,80.063
	c-6.085,5.723-17.592,7.241-21.214,4.027c-0.31-0.304-1.188-1.179-2.27-2.26l95.399-93.34c3.553-3.476,3.615-9.174,0.139-12.727
	c-3.475-3.552-9.173-3.617-12.727-0.139l-55.286,54.092l-5.14-3.766c-0.82-0.602-1.93-1.658-2.079-3.877
	c-0.205-3.036,1.397-6.67,4.082-9.258l75.416-72.705l9.21-7.891c1.614-1.381,4.438-1.284,5.925,0.202
	c6.967,6.969,13.94,10.05,20.732,9.152c6.259-0.826,10.325-4.779,12.51-6.903c0.274-0.267,0.525-0.517,0.765-0.729l15.293-13.105
	c3.774-3.234,4.212-8.916,0.978-12.69s-8.916-4.213-12.69-0.978l-15.344,13.148c-0.027,0.023-0.055,0.048-0.083,0.072
	c-0.453,0.397-0.941,0.866-1.464,1.374c-0.628,0.61-1.776,1.727-2.318,1.955c-0.311-0.054-2.132-0.506-5.649-4.024
	c-8.067-8.065-21.687-8.578-30.363-1.144l-9.412,8.062c-0.134,0.114-0.264,0.233-0.391,0.355l-75.605,72.889
	c-6.543,6.307-10.113,15.065-9.549,23.428c0.471,6.986,3.809,13.089,9.399,17.186l2.737,2.006l-33.563,32.839
	c-3.447,3.372-3.623,8.861-0.4,12.448c0.662,0.737,9.423,9.446,9.477,9.495c5.995,5.541,14.531,7.279,23.041,6.239
	c3.807,3.729,9.12,8.894,9.158,8.929c10.245,9.417,28.662,6.809,40.856-1.783c1.431,1.427,2.573,2.562,2.693,2.672
	c4.512,4.149,10.609,5.965,17.062,5.965c9.93,0,20.699-4.301,27.813-11.012l24-22.647l51.314-49.116
	c0.119-0.114,0.235-0.231,0.348-0.352c13.961-14.913,17.063-32.768,7.377-42.453c-3.444-3.445-3.387-5.823-3.368-6.604
	c0.139-5.726,7.607-12.506,10.797-15.401c0.797-0.724,1.463-1.333,1.976-1.842l29.774-29.775
	C382.147,68.048,382.147,62.349,378.631,58.835z M34.389,85.86c3.188,2.895,10.655,9.674,10.793,15.397
	c0.019,0.782,0.076,3.16-3.371,6.607c-9.684,9.685-6.581,27.538,7.376,42.452c0.109,0.117,0.222,0.23,0.337,0.342l46.987,45.127
	c1.745,1.676,3.99,2.509,6.233,2.509c2.364,0,4.726-0.926,6.492-2.766c3.443-3.585,3.328-9.282-0.257-12.726L62.173,137.85
	c-7.854-8.48-8.757-16.135-7.635-17.258c7.356-7.354,8.758-14.81,8.639-19.768C62.853,87.391,51.8,77.356,46.488,72.533
	c-0.563-0.511-1.037-0.937-1.349-1.244L15.364,41.514c-3.516-3.514-9.213-3.514-12.729,0c-3.515,3.516-3.515,9.214,0.001,12.729
	l29.805,29.804C32.924,84.524,33.591,85.135,34.389,85.86z"/>
<g>
</g>
<g>
</g>
<g>
</g>
<g>
</g>
<g>
</g>
<g>
</g>
<g>
</g>
<g>
</g>
<g>
</g>
<g>
</g>
<g>
</g>
<g>
</g>
<g>
</g>
<g>
</g>
<g>
</g>
</svg>
