<?xml version="1.0" encoding="iso-8859-1"?>
<!-- Generator: Adobe Illustrator 17.1.0, SVG Export Plug-In . SVG Version: 6.00 Build 0)  -->
<!DOCTYPE svg PUBLIC "-//W3C//DTD SVG 1.1//EN" "http://www.w3.org/Graphics/SVG/1.1/DTD/svg11.dtd">
<svg version="1.1" id="Capa_1" xmlns="http://www.w3.org/2000/svg" xmlns:xlink="http://www.w3.org/1999/xlink" x="0px" y="0px"
	 viewBox="0 0 374.936 374.936" style="enable-background:new 0 0 374.936 374.936;" xml:space="preserve">
<path id="XMLID_376_" d="M179.591,180.896c-26.066-46.347-53.021-94.272-40.774-133.615c2.955-9.494,8.106-18.104,15.402-25.775
	C82.59,36.832,28.712,100.623,28.712,176.759c0,77.913,55.681,143.764,132.396,156.58c4.903,0.819,8.213,5.457,7.394,10.36
	c-0.735,4.4-4.548,7.519-8.866,7.519c-0.493,0-0.992-0.041-1.494-0.125c-40.768-6.811-78.089-27.957-105.089-59.545
	c-27.304-31.944-42.341-72.71-42.341-114.789c0-97.327,79.069-176.533,176.345-176.755c0.174-0.005,0.347-0.006,0.521,0
	c97.415,0.058,176.647,79.328,176.647,176.756c0,9.888-0.824,19.806-2.45,29.479c-0.823,4.902-5.467,8.208-10.367,7.384
	c-4.902-0.824-8.208-5.465-7.384-10.367c1.46-8.691,2.201-17.605,2.201-26.497c0-86.886-70.156-157.694-156.798-158.744
	c-18.111,9.238-29.053,20.575-33.423,34.616c-9.94,31.933,15.081,76.419,39.277,119.441c7.743,13.767,15.749,28.002,22.625,41.833
	c2.212,4.451,0.398,9.853-4.053,12.065c-4.453,2.213-9.853,0.398-12.065-4.053C195.115,208.498,187.223,194.467,179.591,180.896z
	 M242.898,73.111c19.659,0,35.652,15.994,35.652,35.652s-15.994,35.652-35.652,35.652s-35.652-15.993-35.652-35.652
	S223.239,73.111,242.898,73.111z M242.898,91.111c-9.733,0-17.652,7.919-17.652,17.652s7.918,17.652,17.652,17.652
	s17.652-7.918,17.652-17.652S252.631,91.111,242.898,91.111z M359.965,241.346c11.344,39.423-5.952,84.093-43.037,111.155
	c-20.382,14.875-44.011,22.435-66.816,22.435c-16.527,0-32.618-3.968-46.738-11.998l-3.758,2.742
	c-4.014,2.932-9.645,2.051-12.575-1.965c-2.93-4.015-2.05-9.645,1.965-12.575l3.756-2.741c-7.952-37.832,9.42-79.307,44.576-104.962
	c37.087-27.063,84.904-29.908,118.987-7.08C358.089,237.539,359.378,239.306,359.965,241.346z M343.508,249.533
	c-27.634-16.661-65.581-13.432-95.56,8.444c-26.839,19.586-41.392,49.819-38.807,78.469l21.923-15.998l3.78-24.188
	c0.768-4.912,5.376-8.268,10.282-7.502c4.911,0.768,8.27,5.371,7.502,10.282l-1,6.401l16.299-11.894l3.779-24.184
	c0.768-4.911,5.369-8.273,10.282-7.502c4.911,0.768,8.27,5.371,7.502,10.282l-1,6.398l15.133-11.043
	c4.015-2.93,9.646-2.051,12.575,1.965c2.93,4.015,2.05,9.645-1.965,12.575l-14.608,10.661l5.432,0.825
	c4.914,0.746,8.293,5.334,7.547,10.249s-5.333,8.299-10.249,7.547l-23.381-3.55l-16.732,12.21l6.398,1
	c4.911,0.767,8.271,5.37,7.503,10.281c-0.767,4.911-5.379,8.271-10.281,7.503l-24.182-3.778l-21.926,16
	c26.497,11.203,59.724,6.564,86.563-13.023C336.295,316.086,350.944,280.932,343.508,249.533z M132.036,209.103
	c19.659,0,35.652,15.993,35.652,35.652s-15.993,35.652-35.652,35.652s-35.652-15.994-35.652-35.652S112.378,209.103,132.036,209.103
	z M132.036,227.103c-9.733,0-17.652,7.918-17.652,17.652s7.919,17.652,17.652,17.652s17.652-7.919,17.652-17.652
	S141.77,227.103,132.036,227.103z"/>
<g>
</g>
<g>
</g>
<g>
</g>
<g>
</g>
<g>
</g>
<g>
</g>
<g>
</g>
<g>
</g>
<g>
</g>
<g>
</g>
<g>
</g>
<g>
</g>
<g>
</g>
<g>
</g>
<g>
</g>
</svg>
