<?xml version="1.0" encoding="iso-8859-1"?>
<!-- Generator: Adobe Illustrator 17.1.0, SVG Export Plug-In . SVG Version: 6.00 Build 0)  -->
<!DOCTYPE svg PUBLIC "-//W3C//DTD SVG 1.1//EN" "http://www.w3.org/Graphics/SVG/1.1/DTD/svg11.dtd">
<svg version="1.1" id="Capa_1" xmlns="http://www.w3.org/2000/svg" xmlns:xlink="http://www.w3.org/1999/xlink" x="0px" y="0px"
	 viewBox="0 0 388.414 388.414" style="enable-background:new 0 0 388.414 388.414;" xml:space="preserve">
<path id="XMLID_530_" d="M348.569,271.729H25.923c-3.029,0-5.855,1.523-7.52,4.055c-1.665,2.53-1.944,5.729-0.745,8.51
	c18.795,43.573,60.725,76.616,111.849,91.001c-0.637,1.234-0.996,2.635-0.996,4.119c0,4.971,4.029,9,9,9h99.469c4.971,0,9-4.029,9-9
	c0-1.484-0.359-2.885-0.996-4.119c51.123-14.385,93.053-47.428,111.848-91.001c1.2-2.781,0.92-5.979-0.745-8.51
	C354.424,273.253,351.598,271.729,348.569,271.729z M187.246,365.196c-63.208,0-120.236-29.825-146.724-75.467H333.97
	C307.481,335.371,250.454,365.196,187.246,365.196z M290.862,80.349c-13.35-13.687-31.634-32.432-0.675-71.902
	c3.068-3.911,8.725-4.596,12.636-1.526c3.911,3.067,4.594,8.725,1.527,12.636c-9.896,12.615-14.233,22.826-12.892,30.349
	c1.151,6.458,6.313,11.749,12.289,17.876c13.38,13.719,31.706,32.507,0.603,72.16c-1.775,2.263-4.418,3.445-7.088,3.445
	c-1.943,0-3.9-0.626-5.548-1.919c-3.911-3.067-4.594-8.725-1.527-12.636C311.566,101.575,303.33,93.131,290.862,80.349z
	 M353.237,120.081c1.341-7.521-2.997-17.732-12.892-30.348c-3.067-3.911-2.384-9.568,1.527-12.636
	c3.912-3.07,9.569-2.385,12.636,1.526c30.959,39.47,12.676,58.215-0.674,71.902c-12.468,12.782-20.704,21.227,0.674,48.482
	c3.067,3.911,2.384,9.568-1.527,12.637c-1.647,1.292-3.605,1.918-5.548,1.918c-2.67,0-5.313-1.182-7.088-3.445
	c-31.103-39.654-12.777-58.442,0.603-72.16C346.924,131.831,352.086,126.539,353.237,120.081z M268.269,223.58
	c1.286,4.801-1.564,9.736-6.366,11.021c-0.78,0.209-1.563,0.309-2.334,0.309c-3.974,0-7.611-2.652-8.687-6.674
	c-4.991-18.636-17.878-34.098-35.356-42.421c-4.488-2.138-6.393-7.508-4.256-11.995c2.137-4.488,7.507-6.395,11.995-4.257
	C245.509,180.156,261.913,199.845,268.269,223.58z M187.249,180.69c4.971,0,9,4.029,9,9v36.218c0,4.971-4.029,9-9,9s-9-4.029-9-9
	V189.69C178.249,184.72,182.279,180.69,187.249,180.69z M67.509,258.158c4.971,0,9-4.029,9-9c0-48.682,32.566-92.342,79.195-106.173
	c3.829-1.135,6.451-4.657,6.441-8.65l-0.007-2.748c0-7.529,6.125-13.654,13.655-13.654H198.7c7.53,0,13.655,6.125,13.655,13.635
	l-0.006,2.771c-0.008,3.991,2.613,7.512,6.44,8.646c46.627,13.832,79.193,57.492,79.193,106.173c0,4.971,4.029,9,9,9s9-4.029,9-9
	c0-28.313-9.017-55.175-26.077-77.683c-15.177-20.024-36.226-35.376-59.781-43.725c-0.82-6.752-3.774-12.857-8.166-17.614
	c4.3-4.51,6.943-10.613,6.943-17.321c0-6.128-2.207-11.752-5.866-16.116c3.66-4.364,5.866-9.988,5.866-16.116
	c0-10.133-6.032-18.884-14.692-22.851c5.085-7.038,8.993-16.177,11.239-26.884c0.557-2.653-0.112-5.417-1.821-7.521
	S219.352,0,216.641,0h-59.56c-2.711,0-5.278,1.223-6.987,3.327s-2.378,4.868-1.821,7.521c2.247,10.705,6.155,19.846,11.239,26.883
	c-8.661,3.967-14.693,12.718-14.693,22.852c0,6.128,2.207,11.752,5.866,16.116c-3.66,4.364-5.866,9.988-5.866,16.116
	c0,6.916,2.809,13.188,7.346,17.733c-4.183,4.695-6.993,10.641-7.792,17.201c-23.559,8.349-44.606,23.699-59.785,43.725
	c-17.06,22.508-26.078,49.37-26.078,77.684C58.509,254.129,62.539,258.158,67.509,258.158z M204.535,18
	c-4.337,10.551-11.038,17.466-17.675,17.466c-6.636,0-13.337-6.915-17.674-17.466H204.535z M169.933,67.699
	c-3.923,0-7.115-3.192-7.115-7.116c0-3.925,3.191-7.117,7.115-7.117h33.854c3.923,0,7.115,3.192,7.115,7.117
	c0,3.924-3.192,7.116-7.115,7.116c-4.971,0-9,4.029-9,9s4.029,9,9,9c3.923,0,7.115,3.192,7.115,7.116
	c0,3.925-3.192,7.117-7.115,7.117h-33.854c-3.923,0-7.115-3.192-7.115-7.117c0-3.924,3.191-7.116,7.115-7.116c4.971,0,9-4.029,9-9
	S174.903,67.699,169.933,67.699z M163.222,173.82c2.137,4.487,0.231,9.858-4.257,11.995c-17.479,8.323-30.365,23.785-35.355,42.421
	c-1.077,4.021-4.714,6.674-8.688,6.674c-0.771,0-1.554-0.1-2.333-0.309c-4.802-1.285-7.652-6.22-6.366-11.021
	c6.355-23.735,22.759-43.424,45.004-54.017C155.717,167.427,161.085,169.332,163.222,173.82z"/>
<g>
</g>
<g>
</g>
<g>
</g>
<g>
</g>
<g>
</g>
<g>
</g>
<g>
</g>
<g>
</g>
<g>
</g>
<g>
</g>
<g>
</g>
<g>
</g>
<g>
</g>
<g>
</g>
<g>
</g>
</svg>
