<?xml version="1.0" encoding="iso-8859-1"?>
<!-- Generator: Adobe Illustrator 17.1.0, SVG Export Plug-In . SVG Version: 6.00 Build 0)  -->
<!DOCTYPE svg PUBLIC "-//W3C//DTD SVG 1.1//EN" "http://www.w3.org/Graphics/SVG/1.1/DTD/svg11.dtd">
<svg version="1.1" id="Capa_1" xmlns="http://www.w3.org/2000/svg" xmlns:xlink="http://www.w3.org/1999/xlink" x="0px" y="0px"
	 viewBox="0 0 381.269 381.269" style="enable-background:new 0 0 381.269 381.269;" xml:space="preserve">
<path id="XMLID_15_" d="M123.483,260.178c4.971,0,9-4.029,9-9s-4.029-9-9-9H46.24v-42.544h110.968c4.971,0,9-4.029,9-9s-4.029-9-9-9
	H46.24v-42.546h163.635v16.7c0,4.971,4.029,9,9,9s9-4.029,9-9V9c0-4.971-4.029-9-9-9s-9,4.029-9,9v51.28H46.24V9
	c0-4.971-4.029-9-9-9s-9,4.029-9,9v363.269c0,4.971,4.029,9,9,9s9-4.029,9-9v-51.546h77.243c4.971,0,9-4.029,9-9s-4.029-9-9-9H46.24
	v-42.544H123.483z M46.24,78.28h163.635v42.808H46.24V78.28z M253.21,181.634c-55.039,0-99.816,44.777-99.816,99.816
	c0,55.04,44.777,99.818,99.816,99.818c55.04,0,99.818-44.778,99.818-99.818C353.029,226.412,308.25,181.634,253.21,181.634z
	 M253.21,363.269c-45.113,0-81.816-36.704-81.816-81.818c0-45.114,36.703-81.816,81.816-81.816
	c45.115,0,81.818,36.703,81.818,81.816C335.029,326.565,298.326,363.269,253.21,363.269z M318.69,281.451c0,4.971-4.029,9-9,9
	s-9-4.029-9-9c0-26.181-21.299-47.48-47.479-47.48c-4.971,0-9-4.029-9-9s4.029-9,9-9C289.316,215.971,318.69,245.345,318.69,281.451
	z"/>
<g>
</g>
<g>
</g>
<g>
</g>
<g>
</g>
<g>
</g>
<g>
</g>
<g>
</g>
<g>
</g>
<g>
</g>
<g>
</g>
<g>
</g>
<g>
</g>
<g>
</g>
<g>
</g>
<g>
</g>
</svg>
