<?xml version="1.0" encoding="iso-8859-1"?>
<!-- Generator: Adobe Illustrator 17.1.0, SVG Export Plug-In . SVG Version: 6.00 Build 0)  -->
<!DOCTYPE svg PUBLIC "-//W3C//DTD SVG 1.1//EN" "http://www.w3.org/Graphics/SVG/1.1/DTD/svg11.dtd">
<svg version="1.1" id="Capa_1" xmlns="http://www.w3.org/2000/svg" xmlns:xlink="http://www.w3.org/1999/xlink" x="0px" y="0px"
	 viewBox="0 0 413.123 413.123" style="enable-background:new 0 0 413.123 413.123;" xml:space="preserve">
<path id="XMLID_398_" d="M233.026,166.82l-0.002,177.174l8.954,19.504c2.074,4.517,0.093,9.86-4.424,11.934
	c-1.216,0.559-2.493,0.823-3.75,0.823c-3.409,0-6.669-1.947-8.185-5.248l-9.775-21.292c-0.541-1.178-0.821-2.458-0.821-3.755
	l0.002-179.142c0-4.971,4.029-9,9-9S233.026,161.85,233.026,166.82z M363.826,90.47c3.522-3.507,3.535-9.206,0.027-12.728
	c-3.507-3.524-9.206-3.534-12.728-0.028c-25.028,24.92-80.562,40.401-144.93,40.401c-64.368,0-119.902-15.48-144.93-40.401
	c-3.522-3.508-9.221-3.496-12.728,0.027c-3.507,3.522-3.495,9.221,0.027,12.728c14.96,14.896,37.665,26.531,67.483,34.58
	c26.822,7.24,57.994,11.067,90.147,11.066c32.153,0,63.325-3.827,90.147-11.067C326.162,117,348.866,105.365,363.826,90.47z
	 M173.228,61.373c0-19.221,12.298-36.053,30.603-41.885c1.778-0.566,3.687-0.566,5.464,0c18.305,5.832,30.603,22.664,30.603,41.885
	c0,19.221-12.298,36.054-30.603,41.887c-0.889,0.283-1.811,0.425-2.732,0.425s-1.843-0.142-2.732-0.425
	C185.526,97.427,173.228,80.594,173.228,61.373z M191.228,61.373c0,10.366,6.055,19.556,15.335,23.696
	c9.28-4.14,15.335-13.33,15.335-23.696s-6.054-19.555-15.335-23.694C197.283,41.818,191.228,51.007,191.228,61.373z M406.472,51.068
	c-1.364-12.88-2.774-26.198,0.511-39.981c0.902-3.787-0.732-7.724-4.05-9.759c-3.319-2.036-7.569-1.706-10.534,0.815l-2.382,2.032
	c-19.664,16.797-71.896,61.417-121.056,62.994c-4.968,0.159-8.866,4.315-8.707,9.284c0.16,4.968,4.336,8.868,9.284,8.707
	c45.352-1.455,90.871-33.537,117.433-54.986c0.04,8.036,0.847,15.66,1.602,22.79c3.232,30.527,5.568,52.584-47.725,80.601
	c-24.463,12.859-54.96,21.64-72.943,24.356c-4.915,0.743-8.297,5.329-7.555,10.243c0.743,4.915,5.334,8.3,10.243,7.555
	c16.407-2.479,42.417-9.609,65.955-20.096c1.009,23.473-20.24,39.563-69.695,53.226c-4.791,1.323-7.602,6.28-6.279,11.071
	c1.103,3.989,4.723,6.606,8.67,6.606c0.793,0,1.6-0.106,2.402-0.328c17.761-4.906,40.301-12.054,57.098-23.874
	c20.006-14.078,28.47-32.197,25.158-53.854c-0.07-0.457-0.173-0.9-0.307-1.329C413.16,114.265,409.763,82.149,406.472,51.068z
	 M175.569,375.433c1.217,0.559,2.493,0.823,3.749,0.823c3.409,0,6.67-1.947,8.185-5.248l9.774-21.292
	c0.541-1.178,0.821-2.459,0.821-3.755l-0.002-179.142c0-4.971-4.03-9-9-9c-4.971,0-9,4.03-9,9l0.002,177.174l-8.954,19.504
	C169.071,368.016,171.052,373.359,175.569,375.433z M301.854,395.123H110.537c-4.971,0-9,4.029-9,9s4.029,9,9,9h191.318
	c4.971,0,9-4.029,9-9S306.825,395.123,301.854,395.123z M143.88,226.527c3.947,0,7.568-2.617,8.67-6.606
	c1.323-4.791-1.488-9.748-6.279-11.071c-49.455-13.663-70.704-29.753-69.693-53.226c23.536,10.486,49.545,17.616,65.953,20.095
	c4.912,0.738,9.5-2.64,10.243-7.554c0.743-4.915-2.64-9.501-7.554-10.244c-17.984-2.717-48.481-11.498-72.942-24.356
	c-53.294-28.017-50.959-50.074-47.727-80.602c0.755-7.13,1.563-14.753,1.602-22.789c26.563,21.45,72.081,53.531,117.434,54.986
	c4.959,0.144,9.125-3.738,9.284-8.707c0.159-4.968-3.739-9.125-8.707-9.284C95.002,65.592,42.769,20.972,23.106,4.175l-2.381-2.031
	c-2.965-2.521-7.216-2.85-10.534-0.815C6.872,3.363,5.238,7.3,6.141,11.087c3.285,13.783,1.874,27.101,0.51,39.981
	c-3.291,31.081-6.688,63.198,52.88,96.076c-0.133,0.428-0.236,0.872-0.306,1.328c-3.313,21.657,5.15,39.776,25.156,53.854
	c16.796,11.82,39.337,18.967,57.098,23.874C142.28,226.421,143.087,226.527,143.88,226.527z"/>
<g>
</g>
<g>
</g>
<g>
</g>
<g>
</g>
<g>
</g>
<g>
</g>
<g>
</g>
<g>
</g>
<g>
</g>
<g>
</g>
<g>
</g>
<g>
</g>
<g>
</g>
<g>
</g>
<g>
</g>
</svg>
