<?xml version="1.0" encoding="iso-8859-1"?>
<!-- Generator: Adobe Illustrator 17.1.0, SVG Export Plug-In . SVG Version: 6.00 Build 0)  -->
<!DOCTYPE svg PUBLIC "-//W3C//DTD SVG 1.1//EN" "http://www.w3.org/Graphics/SVG/1.1/DTD/svg11.dtd">
<svg version="1.1" id="Capa_1" xmlns="http://www.w3.org/2000/svg" xmlns:xlink="http://www.w3.org/1999/xlink" x="0px" y="0px"
	 viewBox="0 0 368.483 368.483" style="enable-background:new 0 0 368.483 368.483;" xml:space="preserve">
<path id="XMLID_1246_" d="M216.556,140.892c0,4.971-4.029,9-9,9h-3.809c-4.971,0-9-4.029-9-9s4.029-9,9-9h3.809
	C212.526,131.892,216.556,135.921,216.556,140.892z M207.556,89.137h-3.809c-4.971,0-9,4.029-9,9s4.029,9,9,9h3.809
	c4.971,0,9-4.029,9-9S212.526,89.137,207.556,89.137z M14.952,210.727c1.393,3.546,4.787,5.712,8.38,5.712
	c1.094,0,2.207-0.2,3.287-0.625c4.627-1.816,6.904-7.04,5.088-11.667c-1.777-4.525-3.043-9.167-3.762-13.793
	c-6.771-43.637,17.638-53.906,58.024-67.047c18.557-6.038,37.746-12.282,51.599-24.481c16.04-14.125,22.118-33.603,18.551-59.498
	c41.923,4.07,78.706,33.904,84.305,69.989c0.636,4.09,0.846,8.184,0.621,12.17c-0.215,3.839,2.033,7.392,5.595,8.841
	c4.998,2.033,9.851,4.454,14.424,7.197c4.265,2.556,9.791,1.173,12.348-3.09c2.556-4.263,1.173-9.791-3.09-12.348
	c-3.611-2.165-7.368-4.159-11.223-5.957c-0.096-3.182-0.392-6.386-0.889-9.577c-3.595-23.173-17.31-44.836-38.619-61
	c-20.996-15.927-46.994-24.698-73.204-24.698c-0.459,0-0.916,0.007-1.375,0.014l-0.161,0.002c-2.801,0.041-5.423,1.383-7.093,3.632
	c-1.67,2.248-2.199,5.146-1.43,7.839c0.74,2.591,1.314,5.186,1.706,7.711c6.66,42.929-17.562,53.099-57.634,66.138
	c-18.666,6.074-37.967,12.354-51.915,24.69c-16.557,14.644-22.552,35-18.326,62.234C11.079,199.046,12.692,204.972,14.952,210.727z
	 M95.316,142.534c-16.963-1.201-33.049,3.393-45.295,12.947c-3.918,3.058-4.617,8.713-1.559,12.632
	c3.059,3.921,8.713,4.619,12.632,1.56c18.309-14.286,48.078-12.031,66.359,5.03c1.735,1.619,3.938,2.42,6.138,2.42
	c2.408,0,4.81-0.961,6.582-2.859c3.391-3.634,3.194-9.329-0.44-12.721C127.878,150.479,112.103,143.728,95.316,142.534z
	 M362.232,127.982l-17.719-17.717c-4.13-4.133-9.872-6.43-15.706-6.245c-5.636,0.156-10.762,2.502-14.435,6.607l-81.212,90.81
	c-3.313,3.705-2.996,9.396,0.709,12.709c1.718,1.535,3.861,2.291,5.997,2.291c2.472,0,4.934-1.013,6.712-3l81.211-90.809
	c0.349-0.391,0.858-0.598,1.516-0.615c0.904-0.031,1.84,0.339,2.479,0.979l17.719,17.717c0.639,0.639,1.004,1.566,0.979,2.482
	c-0.019,0.655-0.225,1.164-0.612,1.511l-62.649,56.026c-3.704,3.313-4.022,9.004-0.709,12.708c3.314,3.706,9.002,4.022,12.709,0.71
	l62.648-56.027c4.103-3.669,6.448-8.792,6.606-14.425C368.638,137.841,366.363,132.114,362.232,127.982z M339.164,234.998
	c1.664,2.53,1.944,5.729,0.744,8.51c-18.793,43.572-60.723,76.615-111.846,91c0.637,1.234,0.996,2.636,0.996,4.12
	c0,4.971-4.029,9-9,9h-99.473c-4.971,0-9-4.029-9-9c0-1.485,0.36-2.886,0.997-4.121C61.459,320.123,19.531,287.08,0.736,243.508
	c-1.2-2.781-0.919-5.979,0.745-8.51c1.665-2.531,4.491-4.055,7.52-4.055h322.645C334.674,230.944,337.499,232.467,339.164,234.998z
	 M317.046,248.944H23.599c26.488,45.642,83.516,75.466,146.724,75.466C233.531,324.409,290.559,294.584,317.046,248.944z
	 M173.343,110.515c-4.971,0-9,4.029-9,9s4.029,9,9,9h3.811c4.971,0,9-4.029,9-9s-4.029-9-9-9H173.343z"/>
<g>
</g>
<g>
</g>
<g>
</g>
<g>
</g>
<g>
</g>
<g>
</g>
<g>
</g>
<g>
</g>
<g>
</g>
<g>
</g>
<g>
</g>
<g>
</g>
<g>
</g>
<g>
</g>
<g>
</g>
</svg>
