<?xml version="1.0" encoding="iso-8859-1"?>
<!-- Generator: Adobe Illustrator 17.1.0, SVG Export Plug-In . SVG Version: 6.00 Build 0)  -->
<!DOCTYPE svg PUBLIC "-//W3C//DTD SVG 1.1//EN" "http://www.w3.org/Graphics/SVG/1.1/DTD/svg11.dtd">
<svg version="1.1" id="Capa_1" xmlns="http://www.w3.org/2000/svg" xmlns:xlink="http://www.w3.org/1999/xlink" x="0px" y="0px"
	 viewBox="0 0 376.047 376.047" style="enable-background:new 0 0 376.047 376.047;" xml:space="preserve">
<path id="XMLID_1482_" d="M185.309,253.852c2.93-0.011,6.083-3.317,6.083-10.551c0-4.971,4.029-9,9-9s9,4.029,9,9
	c0,18.685-12.081,28.506-24.015,28.551c-0.012,0-0.023,0-0.035,0c-4.955,0-8.98-4.007-8.999-8.966
	C176.324,257.915,180.339,253.87,185.309,253.852z M302.26,193.287v112.345c0,38.827-31.588,70.415-70.415,70.415h-87.643
	c-38.827,0-70.415-31.588-70.415-70.415V193.287c0-23.366,3.66-39.2,11.52-49.83c7.514-10.162,17.355-13.679,26.038-16.781
	c15.868-5.669,29.572-10.565,29.572-63.548c0-4.971,4.029-9,9-9h3.11l-6.813-43.743c-0.405-2.598,0.347-5.242,2.057-7.238
	C149.981,1.149,152.479,0,155.107,0h65.828c2.629,0,5.126,1.149,6.836,3.146c1.71,1.997,2.461,4.642,2.057,7.239l-6.81,43.743h3.111
	c4.971,0,9,4.029,9,9c0,52.98,13.703,57.876,29.57,63.545c8.684,3.103,18.526,6.619,26.04,16.781
	C298.6,154.084,302.26,169.919,302.26,193.287z M165.618,18l5.627,36.128h21.865h11.691L210.426,18H165.618z M284.26,193.287
	c0-40.513-10.744-44.351-25.615-49.663c-9.064-3.238-20.345-7.269-28.703-19.493c-7.799-11.405-11.88-28.064-12.669-52.003h-4.6
	c-0.101,0.001-0.203,0.001-0.306,0H202.11v12.27c0,4.971-4.029,9-9,9c-0.397,0-0.79-0.025-1.174-0.076v11.481c0,4.971-4.029,9-9,9
	s-9-4.029-9-9V72.128H163.68c-0.102,0.002-0.203,0.002-0.305,0h-4.601c-0.789,23.939-4.87,40.599-12.669,52.004
	c-8.358,12.226-19.64,16.256-28.704,19.495c-14.87,5.313-25.614,9.151-25.614,49.66v112.345c0,28.901,23.514,52.415,52.415,52.415
	h87.643c28.901,0,52.415-23.514,52.415-52.415V193.287z M240.022,244.262c0,38.983-26.159,59.381-52,59.381s-52-20.397-52-59.381
	c0-29.827,20.315-70.053,46.251-91.579c3.332-2.766,8.164-2.766,11.496,0C219.706,174.209,240.022,214.436,240.022,244.262z
	 M222.022,244.262c0-22.06-15.061-53.505-34.001-72.468c-18.938,18.963-33.999,50.409-33.999,72.468
	c0,28.431,17.625,41.381,34,41.381S222.022,272.692,222.022,244.262z"/>
<g>
</g>
<g>
</g>
<g>
</g>
<g>
</g>
<g>
</g>
<g>
</g>
<g>
</g>
<g>
</g>
<g>
</g>
<g>
</g>
<g>
</g>
<g>
</g>
<g>
</g>
<g>
</g>
<g>
</g>
</svg>
