<?xml version="1.0" encoding="iso-8859-1"?>
<!-- Generator: Adobe Illustrator 17.1.0, SVG Export Plug-In . SVG Version: 6.00 Build 0)  -->
<!DOCTYPE svg PUBLIC "-//W3C//DTD SVG 1.1//EN" "http://www.w3.org/Graphics/SVG/1.1/DTD/svg11.dtd">
<svg version="1.1" id="Capa_1" xmlns="http://www.w3.org/2000/svg" xmlns:xlink="http://www.w3.org/1999/xlink" x="0px" y="0px"
	 viewBox="0 0 390.406 390.406" style="enable-background:new 0 0 390.406 390.406;" xml:space="preserve">
<path id="XMLID_1005_" d="M174.972,35.124c0-16.055,8.299-24.052,14.358-29.891c0.868-0.837,1.737-1.673,2.584-2.536
	c3.48-3.549,9.179-3.602,12.728-0.121c3.548,3.481,3.602,9.179,0.12,12.727c-0.964,0.982-1.953,1.937-2.942,2.891
	c-5.328,5.134-8.848,8.526-8.848,16.929c0,8.388,3.518,11.775,8.843,16.903c1.119,1.078,2.276,2.192,3.435,3.394
	c3.448,3.58,3.341,9.277-0.238,12.726c-1.746,1.682-3.996,2.518-6.243,2.518c-2.36,0-4.716-0.922-6.483-2.756
	c-0.922-0.958-1.909-1.909-2.955-2.915C183.27,59.158,174.972,51.168,174.972,35.124z M280.731,106.794
	c0,9.98-3.364,19.343-9,25.046c-3.494,3.536-3.46,9.234,0.075,12.728c1.754,1.734,4.04,2.599,6.326,2.599
	c2.32,0,4.642-0.893,6.401-2.674c9.022-9.13,14.197-22.871,14.197-37.698c0-19.466-7.476-29.123-13.482-36.883
	c-5.428-7.013-9.716-12.552-9.716-25.865c0-13.334,4.291-18.881,9.723-25.903c0.978-1.264,1.954-2.527,2.906-3.829
	c2.935-4.012,2.062-9.643-1.95-12.578c-4.008-2.934-9.641-2.062-12.577,1.95c-0.856,1.171-1.736,2.307-2.615,3.443
	c-6.009,7.767-13.486,17.433-13.486,36.917c0,19.466,7.476,29.123,13.482,36.883C276.443,87.942,280.731,93.481,280.731,106.794z
	 M162.309,134.574c0-19.178,12.271-35.97,30.532-41.787c1.778-0.565,3.687-0.564,5.463,0c18.261,5.817,30.529,22.61,30.529,41.787
	c0,19.175-12.269,35.968-30.528,41.788c-0.889,0.283-1.811,0.425-2.732,0.425s-1.844-0.142-2.732-0.425
	C174.579,170.543,162.309,153.75,162.309,134.574z M180.309,134.574c0,10.32,6.026,19.47,15.264,23.596
	c9.235-4.125,15.261-13.275,15.261-23.596c0-10.322-6.024-19.471-15.261-23.595C186.335,115.103,180.309,124.252,180.309,134.574z
	 M115.61,106.794c0,9.979-3.365,19.342-9.002,25.046c-3.493,3.536-3.459,9.234,0.077,12.728c1.754,1.733,4.039,2.598,6.325,2.598
	c2.321,0,4.642-0.893,6.402-2.674c9.022-9.132,14.197-22.872,14.197-37.698c0-19.466-7.476-29.123-13.482-36.883
	c-5.428-7.013-9.716-12.552-9.716-25.865c0-13.329,4.288-18.875,9.716-25.896c0.979-1.267,1.958-2.534,2.912-3.839
	c2.934-4.013,2.058-9.644-1.955-12.577c-4.015-2.933-9.645-2.058-12.576,1.956c-0.858,1.173-1.74,2.312-2.62,3.451
	c-6.004,7.766-13.477,17.43-13.477,36.906c0,19.466,7.476,29.123,13.482,36.883C111.322,87.942,115.61,93.481,115.61,106.794z
	 M328.028,144.939c-4.678-1.702-9.837,0.709-11.536,5.378l-7.836,21.524c-29.003,14.765-70.095,23.191-113.454,23.191
	c-43.357,0-84.449-8.427-113.454-23.191l-7.834-21.523c-1.699-4.67-6.863-7.08-11.535-5.379c-4.671,1.7-7.079,6.865-5.379,11.536
	l9.025,24.797c0.754,2.071,2.241,3.793,4.18,4.841c31.677,17.108,77.236,26.92,124.997,26.92c47.763,0,93.322-9.812,124.997-26.921
	c1.938-1.047,3.426-2.769,4.18-4.84l9.027-24.797C335.106,151.804,332.698,146.639,328.028,144.939z M283.15,316.355h-78.577
	v-74.559c0-4.971-4.029-9-9-9s-9,4.029-9,9v74.559h-78.578c-20.417,0-37.027,16.609-37.027,37.025
	c0,20.417,16.61,37.026,37.027,37.026h59.55c1.814,0,3.587-0.548,5.084-1.574l40.938-28.026c4.102-2.808,5.15-8.409,2.343-12.51
	c-2.81-4.102-8.411-5.15-12.511-2.342l-38.639,26.453h-56.765c-10.491,0-19.027-8.535-19.027-19.026
	c0-10.49,8.536-19.025,19.027-19.025H283.15c10.49,0,19.025,8.535,19.025,19.025c0,10.491-8.535,19.026-19.025,19.026h-59.552
	c-4.971,0-9,4.029-9,9s4.029,9,9,9h59.552c20.416,0,37.025-16.61,37.025-37.026C320.176,332.964,303.566,316.355,283.15,316.355z"/>
<g>
</g>
<g>
</g>
<g>
</g>
<g>
</g>
<g>
</g>
<g>
</g>
<g>
</g>
<g>
</g>
<g>
</g>
<g>
</g>
<g>
</g>
<g>
</g>
<g>
</g>
<g>
</g>
<g>
</g>
</svg>
