<?xml version="1.0" encoding="iso-8859-1"?>
<!-- Generator: Adobe Illustrator 17.1.0, SVG Export Plug-In . SVG Version: 6.00 Build 0)  -->
<!DOCTYPE svg PUBLIC "-//W3C//DTD SVG 1.1//EN" "http://www.w3.org/Graphics/SVG/1.1/DTD/svg11.dtd">
<svg version="1.1" id="Capa_1" xmlns="http://www.w3.org/2000/svg" xmlns:xlink="http://www.w3.org/1999/xlink" x="0px" y="0px"
	 viewBox="0 0 400.131 400.131" style="enable-background:new 0 0 400.131 400.131;" xml:space="preserve">
<path id="XMLID_1_" d="M203.148,148.67c-1.778-0.566-3.687-0.565-5.463,0c-6.991,2.227-13.375,6.229-18.461,11.576
	c-7.783,8.186-12.07,18.915-12.07,30.211c0,19.176,12.27,35.969,30.531,41.786c0.889,0.283,1.81,0.425,2.732,0.425
	s1.843-0.142,2.732-0.425c18.261-5.818,30.53-22.611,30.53-41.786c0-11.403-4.356-22.205-12.266-30.414
	C216.363,154.801,210.047,150.868,203.148,148.67z M200.416,214.052c-9.238-4.125-15.263-13.274-15.263-23.595
	c0-6.658,2.527-12.982,7.112-17.806c2.325-2.444,5.105-4.411,8.151-5.783c2.994,1.349,5.732,3.275,8.032,5.662
	c4.663,4.839,7.23,11.206,7.23,17.927C215.678,200.778,209.653,209.927,200.416,214.052z M164.679,30.517
	c8.366-13.77,19.305-24.039,31.634-29.697c2.383-1.094,5.125-1.094,7.508,0c12.327,5.657,23.266,15.926,31.633,29.696
	c2.581,4.248,1.23,9.784-3.018,12.365c-1.46,0.887-3.073,1.31-4.666,1.31c-3.04,0-6.006-1.54-7.7-4.328
	c-5.583-9.189-12.44-16.276-20.004-20.722c-7.566,4.446-14.422,11.533-20.005,20.722c-2.581,4.248-8.117,5.599-12.365,3.019
	S162.098,34.765,164.679,30.517z M257.21,46.86c2.643-0.399,5.333,0.398,7.331,2.178c18.231,16.239,22.093,48.426,9.611,80.093
	c-4.804,12.189-11.783,23.597-20.181,32.989c-1.778,1.988-4.24,3.001-6.712,3.001c-2.136,0-4.279-0.755-5.996-2.291
	c-3.705-3.313-4.023-9.003-0.71-12.708c6.994-7.822,12.821-17.363,16.853-27.592c8.756-22.213,7.842-44.762-1.878-56.92
	c-10.238,2.897-20.877,10.488-29.782,21.376c-3.146,3.848-8.816,4.416-12.665,1.269c-3.848-3.147-4.416-8.817-1.269-12.665
	C224.783,59.732,241.329,49.26,257.21,46.86z M269.609,22.049l2.175-3.764c2.488-4.304,7.992-5.776,12.295-3.29
	c4.304,2.487,5.776,7.992,3.29,12.295l-2.175,3.764c-1.667,2.885-4.692,4.499-7.801,4.499c-1.528,0-3.076-0.389-4.495-1.209
	C268.595,31.858,267.122,26.353,269.609,22.049z M354.271,99.579c-3.196-3.807-2.702-9.484,1.105-12.68l3.328-2.795
	c3.807-3.196,9.484-2.701,12.68,1.105c3.197,3.807,2.702,9.484-1.104,12.68l-3.328,2.795c-1.687,1.416-3.741,2.108-5.783,2.108
	C358.601,102.791,356.052,101.699,354.271,99.579z M294.234,140.36c-3.195-3.808-2.698-9.484,1.109-12.679
	c15.312-12.847,23.42-31.441,20.696-46.558c-3.208-1.182-6.725-1.881-10.501-2.083c-4.963-0.267-8.771-4.506-8.504-9.47
	c0.268-4.963,4.507-8.772,9.47-8.504c7.789,0.418,14.976,2.317,21.361,5.644c2.115,1.102,3.707,2.999,4.424,5.273
	c7.193,22.792-3.005,50.717-25.375,69.488c-1.687,1.415-3.739,2.106-5.78,2.106C298.564,143.575,296.014,142.482,294.234,140.36z
	 M325.02,363.105c0,20.417-16.61,37.026-37.026,37.026h-59.551c-4.971,0-9-4.03-9-9s4.029-9,9-9h59.551
	c10.491,0,19.026-8.535,19.026-19.026c0-10.49-8.535-19.024-19.026-19.024H112.84c-10.491,0-19.026,8.534-19.026,19.024
	c0,10.491,8.535,19.026,19.026,19.026h56.765l38.637-26.453c4.102-2.808,9.703-1.759,12.511,2.342s1.759,9.703-2.342,12.51
	l-40.936,28.026c-1.498,1.025-3.27,1.574-5.084,1.574H112.84c-20.417,0-37.026-16.61-37.026-37.026
	c0-20.415,16.61-37.024,37.026-37.024h78.577v-59.577c-24.22-1.966-47.108-11.833-65.237-28.281
	c-20.215-18.34-32.89-43.332-35.689-70.372c-0.512-4.944,3.081-9.367,8.025-9.879c4.953-0.514,9.368,3.081,9.879,8.025
	c4.891,47.244,44.452,82.87,92.022,82.87c47.571,0,87.132-35.626,92.022-82.87c0.511-4.944,4.927-8.54,9.879-8.025
	c4.944,0.512,8.537,4.935,8.025,9.879c-2.799,27.039-15.474,52.031-35.69,70.372c-18.129,16.447-41.017,26.315-65.237,28.281v59.577
	h78.577C308.41,326.081,325.02,342.69,325.02,363.105z M135.594,49.039c1.998-1.78,4.686-2.58,7.331-2.178
	c25.23,3.813,50.406,27.241,62.648,58.298c2.657,6.738,4.619,13.606,5.833,20.414c0.873,4.893-2.387,9.567-7.281,10.44
	c-4.889,0.872-9.568-2.387-10.44-7.281c-1.004-5.633-2.639-11.343-4.858-16.972c-9.054-22.969-26.766-41.235-44.218-46.152
	c-9.722,12.158-10.638,34.708-1.88,56.92c4.032,10.234,9.858,19.775,16.848,27.594c3.313,3.706,2.995,9.395-0.711,12.708
	c-1.717,1.535-3.86,2.291-5.996,2.291c-2.473,0-4.935-1.013-6.712-3.001c-8.396-9.39-15.372-20.799-20.175-32.991
	C113.499,97.466,117.361,65.28,135.594,49.039z M376.809,152.7c-7.107,14.089-22.897,25.473-43.323,31.232
	c-0.816,0.23-1.639,0.34-2.447,0.34c-3.929,0-7.539-2.592-8.657-6.56c-1.349-4.784,1.436-9.756,6.22-11.105
	c13.115-3.698,23.794-10.243,29.602-17.967c-3.26-4.354-8.063-8.342-14.128-11.699c-4.349-2.407-5.923-7.884-3.516-12.233
	c2.406-4.349,7.881-5.924,12.232-3.516c11.083,6.134,19.387,14.225,24.016,23.398C378.095,147.141,378.095,150.15,376.809,152.7z
	 M77.75,177.712c-1.119,3.968-4.729,6.56-8.657,6.56c-0.809,0-1.631-0.11-2.447-0.34c-20.426-5.76-36.217-17.144-43.323-31.233
	c-1.286-2.549-1.286-5.557,0-8.106c4.628-9.174,12.933-17.266,24.015-23.4c4.35-2.406,9.826-0.832,12.233,3.516
	c2.407,4.349,0.833,9.825-3.516,12.233c-6.065,3.357-10.868,7.344-14.126,11.698c5.807,7.724,16.485,14.269,29.602,17.967
	C76.314,167.956,79.099,172.928,77.75,177.712z M29.445,85.21c3.195-3.807,8.873-4.303,12.68-1.107l3.33,2.795
	c3.807,3.196,4.303,8.872,1.107,12.68c-1.78,2.121-4.331,3.214-6.898,3.214c-2.042,0-4.095-0.691-5.781-2.107l-3.33-2.795
	C26.745,94.694,26.249,89.018,29.445,85.21z M112.762,27.291c-2.486-4.304-1.013-9.809,3.291-12.295
	c4.303-2.486,9.808-1.014,12.295,3.291l2.174,3.764c2.486,4.304,1.013,9.809-3.291,12.295c-1.417,0.819-2.966,1.208-4.494,1.208
	c-3.109,0-6.134-1.613-7.801-4.5L112.762,27.291z M67.843,71.983c0.718-2.275,2.309-4.171,4.424-5.273
	c6.384-3.326,13.571-5.226,21.36-5.644c4.948-0.27,9.203,3.541,9.47,8.504c0.267,4.963-3.541,9.203-8.504,9.47
	c-3.776,0.203-7.292,0.902-10.5,2.083c-2.724,15.117,5.384,33.712,20.695,46.558c3.808,3.195,4.305,8.872,1.11,12.68
	c-1.78,2.121-4.331,3.215-6.899,3.215c-2.042,0-4.094-0.691-5.78-2.106C70.849,122.701,60.651,94.776,67.843,71.983z"/>
<g>
</g>
<g>
</g>
<g>
</g>
<g>
</g>
<g>
</g>
<g>
</g>
<g>
</g>
<g>
</g>
<g>
</g>
<g>
</g>
<g>
</g>
<g>
</g>
<g>
</g>
<g>
</g>
<g>
</g>
</svg>
