<?xml version="1.0" encoding="iso-8859-1"?>
<!-- Generator: Adobe Illustrator 17.1.0, SVG Export Plug-In . SVG Version: 6.00 Build 0)  -->
<!DOCTYPE svg PUBLIC "-//W3C//DTD SVG 1.1//EN" "http://www.w3.org/Graphics/SVG/1.1/DTD/svg11.dtd">
<svg version="1.1" id="Capa_1" xmlns="http://www.w3.org/2000/svg" xmlns:xlink="http://www.w3.org/1999/xlink" x="0px" y="0px"
	 viewBox="0 0 383.416 383.416" style="enable-background:new 0 0 383.416 383.416;" xml:space="preserve">
<path id="XMLID_866_" d="M188.977,142.426c0.889,0.283,1.811,0.425,2.733,0.425c0.922,0,1.844-0.142,2.733-0.425
	c18.26-5.82,30.528-22.613,30.528-41.787c0-19.177-12.269-35.971-30.53-41.788c-1.776-0.566-3.685-0.566-5.463,0
	c-18.262,5.816-30.532,22.61-30.532,41.788C158.446,119.812,170.715,136.605,188.977,142.426z M191.71,77.042
	c9.236,4.124,15.262,13.274,15.262,23.596c0,10.319-6.025,19.469-15.262,23.596c-9.238-4.127-15.264-13.276-15.264-23.596
	C176.446,90.316,182.472,81.166,191.71,77.042z M284.388,116.85c0-4.971,4.029-9,9-9h6.168c4.971,0,9,4.029,9,9s-4.029,9-9,9h-6.168
	C288.417,125.85,284.388,121.821,284.388,116.85z M257.241,51.312c-3.514-3.516-3.513-9.214,0.002-12.728l4.362-4.36
	c3.516-3.514,9.214-3.512,12.728,0.003c3.514,3.516,3.513,9.214-0.003,12.728l-4.362,4.36c-1.757,1.756-4.06,2.635-6.363,2.635
	C261.302,53.949,258.998,53.07,257.241,51.312z M182.708,15.168V9c0-4.97,4.029-9,9-9s9,4.03,9,9v6.168c0,4.97-4.029,9-9,9
	S182.708,20.138,182.708,15.168z M316.312,346.389c0,20.417-16.61,37.027-37.026,37.027h-59.552c-4.971,0-9-4.029-9-9s4.029-9,9-9
	h59.552c10.491,0,19.026-8.536,19.026-19.027c0-10.491-8.535-19.025-19.026-19.025H104.131c-10.491,0-19.027,8.535-19.027,19.025
	c0,10.491,8.536,19.027,19.027,19.027h56.766l38.635-26.453c4.102-2.808,9.703-1.759,12.511,2.342
	c2.808,4.101,1.76,9.703-2.342,12.511l-40.934,28.027c-1.498,1.025-3.27,1.574-5.084,1.574h-59.552
	c-20.417,0-37.027-16.61-37.027-37.027c0-20.416,16.61-37.025,37.027-37.025h78.578v-93.482c0-4.971,4.029-9,9-9s9,4.029,9,9v93.482
	h78.576C299.702,309.364,316.312,325.973,316.312,346.389z M69.377,242.27c0-23.146,13.178-44.644,37.108-60.532
	c22.795-15.135,52.93-23.471,84.854-23.471c31.925,0,62.061,8.335,84.856,23.471c23.929,15.888,37.107,37.386,37.107,60.532
	c0,4.971-4.029,9-9,9h-79.384c-4.971,0-9-4.029-9-9v-26.388c0-4.971,4.029-9,9-9s9,4.029,9,9v17.388h60.402
	c-2.985-13.592-12.696-26.321-28.083-36.537c-19.877-13.198-46.477-20.466-74.899-20.466c-28.421,0-55.02,7.269-74.897,20.466
	c-15.386,10.216-25.098,22.945-28.083,36.537h60.403v-17.388c0-4.971,4.029-9,9-9s9,4.029,9,9v26.388c0,4.971-4.029,9-9,9H78.377
	C73.406,251.27,69.377,247.24,69.377,242.27z M74.859,116.85c0-4.971,4.029-9,9-9h6.168c4.971,0,9,4.029,9,9s-4.029,9-9,9h-6.168
	C78.888,125.85,74.859,121.821,74.859,116.85z M109.084,46.953c-3.515-3.515-3.515-9.213,0-12.728c3.515-3.515,9.213-3.515,12.728,0
	l4.36,4.36c3.515,3.515,3.515,9.213,0,12.728c-1.757,1.757-4.061,2.636-6.364,2.636s-4.606-0.879-6.364-2.636L109.084,46.953z"/>
<g>
</g>
<g>
</g>
<g>
</g>
<g>
</g>
<g>
</g>
<g>
</g>
<g>
</g>
<g>
</g>
<g>
</g>
<g>
</g>
<g>
</g>
<g>
</g>
<g>
</g>
<g>
</g>
<g>
</g>
</svg>
