<?xml version="1.0" encoding="iso-8859-1"?>
<!-- Generator: Adobe Illustrator 17.1.0, SVG Export Plug-In . SVG Version: 6.00 Build 0)  -->
<!DOCTYPE svg PUBLIC "-//W3C//DTD SVG 1.1//EN" "http://www.w3.org/Graphics/SVG/1.1/DTD/svg11.dtd">
<svg version="1.1" id="Capa_1" xmlns="http://www.w3.org/2000/svg" xmlns:xlink="http://www.w3.org/1999/xlink" x="0px" y="0px"
	 viewBox="0 0 365.572 365.572" style="enable-background:new 0 0 365.572 365.572;" xml:space="preserve">
<path id="XMLID_731_" d="M113,280.514c0,4.971-4.029,9-9,9h-4.155c-4.971,0-9-4.029-9-9s4.029-9,9-9H104
	C108.971,271.514,113,275.543,113,280.514z M87.925,87.813h27.997c4.971,0,9-4.029,9-9s-4.029-9-9-9H87.925c-4.971,0-9,4.029-9,9
	S82.954,87.813,87.925,87.813z M365.572,25.7v11.45c0,9.993-6.167,18.573-14.895,22.135v55.995
	c0,22.806-16.349,41.865-37.941,46.075v174.442c0,15.423-12.547,27.971-27.97,27.971c-15.424,0-27.972-12.547-27.972-27.971V221.973
	c0-5.498-4.473-9.971-9.97-9.971h-22.54c-4.971,0-9-4.029-9-9s4.029-9,9-9h22.54c15.423,0,27.97,12.547,27.97,27.971v113.823
	c0,5.498,4.474,9.971,9.972,9.971c5.497,0,9.97-4.473,9.97-9.971V161.354c-21.593-4.209-37.941-23.269-37.941-46.075V59.285
	c-8.729-3.562-14.896-12.142-14.896-22.135V25.7c0-13.175,10.72-23.894,23.896-23.894S289.69,12.524,289.69,25.7v11.45
	c0,9.993-6.167,18.573-14.896,22.135v55.995c0,15.958,12.983,28.94,28.941,28.94s28.941-12.982,28.941-28.94V59.285
	c-8.73-3.561-14.897-12.141-14.897-22.135V25.7c0-13.175,10.72-23.894,23.896-23.894C354.853,1.806,365.572,12.524,365.572,25.7z
	 M271.69,25.7c0-3.195-2.7-5.894-5.896-5.894s-5.896,2.699-5.896,5.894v11.45c0,3.195,2.7,5.894,5.896,5.894
	s5.896-2.699,5.896-5.894V25.7z M347.572,25.7c0-3.195-2.699-5.894-5.895-5.894h-0.002c-3.195,0-5.896,2.699-5.896,5.894v11.45
	c0,3.195,2.7,5.894,5.896,5.894c3.196,0,5.896-2.699,5.896-5.894V25.7z M211.508,64.814v27.997c0,4.517-3.327,8.256-7.664,8.901
	v229.75c0,4.971-4.029,9-9,9H9c-4.971,0-9-4.029-9-9V34.11c0-4.971,4.029-9,9-9h185.844c4.971,0,9,4.029,9,9v21.803
	C208.181,56.558,211.508,60.297,211.508,64.814z M185.844,43.11H18v279.353h167.844V43.11z M47.992,210.463v-55.492
	c0-4.033,2.683-7.573,6.564-8.664l61.039-17.159c2.714-0.765,5.626-0.21,7.871,1.491s3.564,4.356,3.564,7.173v47.693
	c2.611-0.871,5.402-1.342,8.303-1.342c14.501,0,26.299,11.798,26.299,26.3c0,14.501-11.798,26.298-26.299,26.298
	c-14.503,0-26.303-11.797-26.303-26.298v-60.772L65.992,161.79v23.714c2.609-0.87,5.397-1.34,8.295-1.34
	c14.504,0,26.303,11.798,26.303,26.3c0,14.501-11.799,26.298-26.303,26.298C59.788,236.762,47.992,224.964,47.992,210.463z
	 M127.031,210.463c0,4.576,3.725,8.298,8.303,8.298c4.576,0,8.299-3.723,8.299-8.298c0-4.577-3.723-8.3-8.299-8.3
	C130.756,202.164,127.031,205.887,127.031,210.463z M65.992,210.463c0,4.576,3.721,8.298,8.295,8.298
	c4.578,0,8.303-3.723,8.303-8.298c0-4.577-3.725-8.3-8.303-8.3C69.713,202.164,65.992,205.887,65.992,210.463z"/>
<g>
</g>
<g>
</g>
<g>
</g>
<g>
</g>
<g>
</g>
<g>
</g>
<g>
</g>
<g>
</g>
<g>
</g>
<g>
</g>
<g>
</g>
<g>
</g>
<g>
</g>
<g>
</g>
<g>
</g>
</svg>
