<?xml version="1.0" encoding="iso-8859-1"?>
<!-- Generator: Adobe Illustrator 17.1.0, SVG Export Plug-In . SVG Version: 6.00 Build 0)  -->
<!DOCTYPE svg PUBLIC "-//W3C//DTD SVG 1.1//EN" "http://www.w3.org/Graphics/SVG/1.1/DTD/svg11.dtd">
<svg version="1.1" id="Capa_1" xmlns="http://www.w3.org/2000/svg" xmlns:xlink="http://www.w3.org/1999/xlink" x="0px" y="0px"
	 viewBox="0 0 370.182 370.182" style="enable-background:new 0 0 370.182 370.182;" xml:space="preserve">
<path id="XMLID_662_" d="M176.092,14.724V9c0-4.971,4.029-9,9-9c4.97,0,9,4.029,9,9v5.724c0,4.971-4.03,9-9,9
	C180.122,23.724,176.092,19.694,176.092,14.724z M85.097,43.926c1.667,2.889,4.693,4.503,7.804,4.503
	c1.526,0,3.073-0.389,4.49-1.206c4.305-2.484,5.781-7.988,3.297-12.293l-2.86-4.956c-2.485-4.306-7.988-5.781-12.293-3.297
	c-4.305,2.484-5.781,7.988-3.297,12.293L85.097,43.926z M64.487,137.678c4.638,1.792,9.847-0.517,11.638-5.154
	c17.257-44.697,61.048-74.728,108.967-74.728c47.918,0,91.708,30.031,108.967,74.728c1.379,3.571,4.786,5.761,8.397,5.761
	c1.078,0,2.175-0.195,3.24-0.606c4.637-1.791,6.944-7.001,5.153-11.638c-9.696-25.112-26.529-46.564-48.68-62.036
	c-22.674-15.837-49.327-24.208-77.079-24.208c-27.753,0-54.407,8.371-77.08,24.208c-22.15,15.472-38.983,36.924-48.679,62.036
	C57.543,130.677,59.851,135.887,64.487,137.678z M344.792,115.924c1.527,0,3.075-0.389,4.492-1.208l4.956-2.862
	c4.305-2.486,5.778-7.99,3.293-12.294c-2.487-4.304-7.991-5.778-12.295-3.292l-4.956,2.862c-4.305,2.486-5.778,7.99-3.293,12.294
	C338.657,114.31,341.682,115.924,344.792,115.924z M272.787,47.221c1.418,0.819,2.965,1.208,4.492,1.208
	c3.11,0,6.136-1.614,7.803-4.5l2.862-4.956c2.485-4.304,1.012-9.809-3.293-12.294c-4.304-2.486-9.808-1.011-12.295,3.292
	l-2.862,4.956C267.009,39.231,268.483,44.735,272.787,47.221z M169.154,220.004c3.879-3.108,4.504-8.772,1.396-12.651
	c-4.262-5.32-8.923-10.468-13.853-15.301c-41.752-40.939-98.928-56.039-142.277-37.573c-2.195,0.936-3.929,2.704-4.82,4.917
	c-17.609,43.702-1.388,100.57,40.364,141.512c25.082,24.593,56.161,40.333,87.514,44.321c0.385,0.049,0.768,0.073,1.146,0.073
	c4.465,0,8.339-3.32,8.917-7.865c0.627-4.931-2.862-9.437-7.792-10.064c-27.479-3.495-54.889-17.458-77.182-39.317
	C27.103,253.28,12.313,206.219,24.976,169.65c36.313-13.382,83.656,0.48,119.12,35.255c4.418,4.332,8.593,8.942,12.408,13.703
	C159.611,222.486,165.275,223.112,169.154,220.004z M320.218,300.906c-39.457,38.69-92.691,54.301-135.013,40.312
	c-3.568,7.474-6.778,15.15-9.615,23.015c-1.323,3.667-4.781,5.949-8.467,5.949c-1.014,0-2.044-0.172-3.053-0.537
	c-4.676-1.687-7.099-6.844-5.412-11.52c3.649-10.117,7.879-19.95,12.65-29.457c-14.564-42.987,1.965-97.191,42.177-136.618
	c41.753-40.94,98.931-56.038,142.275-37.571c2.195,0.935,3.929,2.703,4.82,4.916C378.192,203.099,361.971,259.967,320.218,300.906z
	 M345.206,169.651c-36.313-13.379-83.655,0.48-119.119,35.253c-29.871,29.288-45.074,67.295-41.56,100.407
	c11.197-17.672,24.379-33.93,39.26-48.48l7.026-31.955c1.068-4.854,5.869-7.921,10.723-6.857c4.854,1.067,7.925,5.868,6.857,10.723
	l-1.795,8.164c11.233-8.749,23.191-16.63,35.771-23.538l5.194-23.697c1.064-4.855,5.864-7.926,10.718-6.865
	c4.855,1.064,7.929,5.863,6.864,10.718l-2.109,9.624c3.168-1.4,6.369-2.743,9.602-4.024c4.62-1.833,9.852,0.429,11.684,5.049
	c1.832,4.621-0.429,9.852-5.049,11.684c-8.406,3.333-16.58,7.101-24.502,11.278c-0.192,0.111-0.389,0.215-0.589,0.312
	c-8.439,4.479-16.592,9.426-24.415,14.799l18.526-0.064c0.011,0,0.021,0,0.032,0c4.956,0,8.981,4.009,8.999,8.969
	c0.018,4.971-3.998,9.014-8.969,9.031l-41.855,0.145c-2.608,2.285-5.168,4.622-7.679,7.012c-0.387,0.451-0.816,0.862-1.28,1.227
	c-5.87,5.666-11.464,11.617-16.759,17.829l20.372-0.275c0.041,0,0.082-0.001,0.123-0.001c4.914,0,8.931,3.95,8.997,8.878
	c0.067,4.97-3.907,9.054-8.878,9.121l-34.735,0.469c-4.643,6.581-8.976,13.396-12.983,20.427
	c35.549,10.325,80.139-3.815,113.938-36.957C343.08,253.281,357.869,206.22,345.206,169.651z M15.942,111.854l4.957,2.862
	c1.418,0.819,2.965,1.208,4.492,1.208c3.11,0,6.135-1.614,7.802-4.501c2.485-4.305,1.011-9.809-3.293-12.294l-4.957-2.862
	c-4.303-2.486-9.809-1.011-12.294,3.293S11.637,109.369,15.942,111.854z M185.092,88.176c-27.89,0-53.26,14.036-66.209,36.631
	c-2.472,4.313-0.979,9.812,3.333,12.284c4.312,2.47,9.812,0.979,12.284-3.333c9.75-17.013,29.136-27.581,50.592-27.581
	c21.455,0,40.84,10.568,50.59,27.581c1.663,2.902,4.696,4.526,7.817,4.526c1.517,0,3.056-0.384,4.467-1.193
	c4.313-2.472,5.805-7.971,3.333-12.284C238.351,102.212,212.982,88.176,185.092,88.176z M93.709,254.08
	c-4.951,0-8.977,4.003-8.999,8.959c-0.022,4.971,3.989,9.018,8.959,9.041l30.297,0.136c3.453,3.941,6.752,8.037,9.886,12.279
	c1.765,2.39,4.487,3.653,7.247,3.653c1.857,0,3.731-0.573,5.34-1.761c3.998-2.953,4.845-8.588,1.892-12.586
	c-14.81-20.05-32.987-37.107-53.625-50.473l-6.537-29.822c-1.065-4.855-5.86-7.928-10.719-6.865
	c-4.855,1.064-7.928,5.863-6.864,10.719l3.079,14.047c-4.803-2.357-9.708-4.53-14.705-6.512c-4.619-1.833-9.852,0.428-11.684,5.049
	s0.428,9.852,5.049,11.684c10.225,4.054,20.025,8.987,29.306,14.727c0.223,0.153,0.453,0.295,0.688,0.428
	c8.264,5.16,16.113,10.961,23.478,17.352l-12.047-0.054C93.736,254.08,93.723,254.08,93.709,254.08z"/>
<g>
</g>
<g>
</g>
<g>
</g>
<g>
</g>
<g>
</g>
<g>
</g>
<g>
</g>
<g>
</g>
<g>
</g>
<g>
</g>
<g>
</g>
<g>
</g>
<g>
</g>
<g>
</g>
<g>
</g>
</svg>
