<?xml version="1.0" encoding="iso-8859-1"?>
<!-- Generator: Adobe Illustrator 17.1.0, SVG Export Plug-In . SVG Version: 6.00 Build 0)  -->
<!DOCTYPE svg PUBLIC "-//W3C//DTD SVG 1.1//EN" "http://www.w3.org/Graphics/SVG/1.1/DTD/svg11.dtd">
<svg version="1.1" id="Capa_1" xmlns="http://www.w3.org/2000/svg" xmlns:xlink="http://www.w3.org/1999/xlink" x="0px" y="0px"
	 viewBox="0 0 381.268 381.268" style="enable-background:new 0 0 381.268 381.268;" xml:space="preserve">
<path id="XMLID_2067_" d="M362.821,141.579c-9.109,18.354-8.961,21.972-3.718,24.878c4.348,2.41,5.918,7.888,3.509,12.235
	c-1.644,2.965-4.715,4.639-7.88,4.639c-1.477,0-2.973-0.364-4.355-1.13c-9.771-5.416-14.122-14.081-12.583-25.06
	c1.1-7.84,5.067-15.834,8.904-23.565c9.145-18.422,8.983-22.06,3.679-24.999c-4.347-2.41-5.918-7.888-3.509-12.234
	c2.411-4.35,7.889-5.915,12.235-3.51c9.802,5.433,14.172,14.119,12.638,25.12C370.645,125.818,366.668,133.831,362.821,141.579z
	 M45.326,285.957h14.76c4.971,0,9-4.029,9-9s-4.029-9-9-9h-14.76c-15.067,0-27.326-12.26-27.326-27.328
	c0-15.067,12.259-27.326,27.326-27.326h83.494c4.971,0,9-4.029,9-9s-4.029-9-9-9H45.326C20.333,195.302,0,215.636,0,240.63
	S20.333,285.957,45.326,285.957z M369.205,12.04c-3.515-3.514-9.212-3.514-12.729,0L12.017,356.499
	c-3.515,3.515-3.515,9.214,0,12.729c1.758,1.757,4.061,2.636,6.364,2.636c2.303,0,4.606-0.879,6.364-2.636l344.46-344.459
	C372.72,21.254,372.72,15.554,369.205,12.04z M381.268,213.43v54.399c0,9.995-8.131,18.127-18.126,18.127H156.905
	c-4.971,0-9-4.029-9-9s4.029-9,9-9h166.91v-54.654h-95.958c-4.971,0-9-4.029-9-9s4.029-9,9-9h135.284
	C373.137,195.302,381.268,203.434,381.268,213.43z M363.268,213.43c0-0.049-0.078-0.128-0.126-0.128h-21.326v54.654h21.326
	c0.046,0,0.126-0.081,0.126-0.127V213.43z"/>
<g>
</g>
<g>
</g>
<g>
</g>
<g>
</g>
<g>
</g>
<g>
</g>
<g>
</g>
<g>
</g>
<g>
</g>
<g>
</g>
<g>
</g>
<g>
</g>
<g>
</g>
<g>
</g>
<g>
</g>
</svg>
