<?xml version="1.0" encoding="iso-8859-1"?>
<!-- Generator: Adobe Illustrator 17.1.0, SVG Export Plug-In . SVG Version: 6.00 Build 0)  -->
<!DOCTYPE svg PUBLIC "-//W3C//DTD SVG 1.1//EN" "http://www.w3.org/Graphics/SVG/1.1/DTD/svg11.dtd">
<svg version="1.1" id="Capa_1" xmlns="http://www.w3.org/2000/svg" xmlns:xlink="http://www.w3.org/1999/xlink" x="0px" y="0px"
	 viewBox="0 0 426.563 426.563" style="enable-background:new 0 0 426.563 426.563;" xml:space="preserve">
<path id="XMLID_2005_" d="M204.79,17.534V9c0-4.971,4.029-9,9-9s9,4.029,9,9v8.534c0,4.971-4.029,9-9,9S204.79,22.505,204.79,17.534
	z M313.262,67.735c2.304,0,4.606-0.879,6.364-2.636l6.034-6.034c3.515-3.515,3.515-9.214,0-12.729
	c-3.516-3.514-9.213-3.514-12.729,0l-6.034,6.034c-3.515,3.515-3.515,9.214,0,12.729C308.655,66.856,310.958,67.735,313.262,67.735z
	 M354.466,167.207h8.532c4.971,0,9-4.029,9-9s-4.029-9-9-9h-8.532c-4.971,0-9,4.029-9,9S349.495,167.207,354.466,167.207z
	 M64.582,167.207h8.535c4.971,0,9-4.029,9-9s-4.029-9-9-9h-8.535c-4.971,0-9,4.029-9,9S59.611,167.207,64.582,167.207z
	 M328.768,250.855c-30.978-20.567-71.992-31.895-115.487-31.895s-84.51,11.327-115.486,31.895
	c-32.111,21.321-49.796,50.042-49.796,80.872c0,4.971,4.029,9,9,9h65.36c2.99,0,5.785-1.485,7.458-3.963
	c1.674-2.478,2.008-5.625,0.891-8.398l-10.479-26.028c-1.856-4.611-7.101-6.844-11.71-4.987c-4.611,1.856-6.844,7.1-4.987,11.71
	l5.503,13.667H66.664c3.158-21.265,17.469-41.194,41.087-56.876c28.059-18.631,65.536-28.891,105.529-28.891
	s77.471,10.26,105.53,28.891c23.619,15.682,37.93,35.611,41.088,56.876h-42.37l5.504-13.666c1.856-4.611-0.376-9.854-4.986-11.711
	c-4.614-1.857-9.854,0.376-11.711,4.986l-10.481,26.028c-1.117,2.774-0.783,5.922,0.89,8.399c1.674,2.478,4.469,3.963,7.459,3.963
	h65.362c4.971,0,9-4.029,9-9C378.565,300.897,360.88,272.177,328.768,250.855z M264.216,333.974
	c12.808,12.261,11.272,37.256,4.428,55.292c-8.587,22.624-24.724,36.55-43.166,37.252c-3.274,0.127-7.73,0.071-12.196-1.32
	c-3.538,1.102-7.071,1.364-10.013,1.364c-0.771,0-1.502-0.018-2.182-0.044c-18.445-0.702-34.582-14.629-43.169-37.254
	c-6.846-18.035-8.38-43.03,4.427-55.289c9.392-8.989,23.592-11.708,36.64-7.38c-0.115-1.044-0.196-2.095-0.244-3.155
	c-3.984-8.202-9.799-15.548-16.896-21.328c-3.854-3.14-4.434-8.809-1.295-12.662c3.141-3.855,8.81-4.432,12.662-1.295
	c3.756,3.06,7.232,6.461,10.382,10.141c1.365-3.152,3.015-6.25,4.944-9.244c12.076-18.734,32.364-29.113,50.494-25.809
	c2.347,0.428,4.429,1.77,5.787,3.73c10.487,15.144,9.421,37.907-2.654,56.645c-1.295,2.009-2.685,3.922-4.155,5.731
	C260.275,330.651,262.364,332.202,264.216,333.974z M216.68,320.933c0.01,0.241-0.211,6.816,2.104,11.104
	c9.997-0.123,21.14-7.138,28.252-18.171c7.11-11.032,8.898-24.077,4.883-33.233c-9.997,0.123-21.14,7.139-28.251,18.172
	C219.11,305.872,216.739,313.765,216.68,320.933z M251.769,346.977c-2.297-2.198-5.494-3.668-9.017-4.189
	c-9.491,5.792-20.114,8.358-30.137,6.798c-5.503-0.005-10.641-1.928-16.57-4.798c-3.204-1.552-6.379-2.201-9.317-2.201
	c-4.996,0-9.31,1.877-11.937,4.392c-4.821,4.616-6.211,19.654-0.045,35.899c2.225,5.861,10.748,25.034,27.024,25.654
	c3.441,0.131,5.79-0.177,7.178-0.939c2.699-1.482,5.967-1.482,8.666,0c1.387,0.763,3.735,1.066,7.18,0.939
	c16.273-0.62,24.796-19.792,27.021-25.652C257.981,366.633,256.592,351.594,251.769,346.977z M107.954,65.1
	c1.758,1.757,4.061,2.636,6.364,2.636s4.606-0.879,6.364-2.636c3.515-3.515,3.515-9.214,0-12.729l-6.034-6.034
	c-3.516-3.514-9.213-3.514-12.729,0c-3.515,3.515-3.515,9.214,0,12.729L107.954,65.1z M171.225,135.779
	c0-25.021,16.008-46.932,39.834-54.523c1.777-0.566,3.688-0.566,5.465,0c23.826,7.592,39.835,29.503,39.835,54.523
	s-16.009,46.932-39.835,54.523c-0.889,0.283-1.811,0.425-2.732,0.425s-1.844-0.142-2.732-0.425
	C187.233,182.711,171.225,160.8,171.225,135.779z M189.225,135.779c0,16.176,9.759,30.455,24.566,36.392
	c14.808-5.937,24.567-20.216,24.567-36.392s-9.76-30.455-24.567-36.392C198.984,105.324,189.225,119.604,189.225,135.779z"/>
<g>
</g>
<g>
</g>
<g>
</g>
<g>
</g>
<g>
</g>
<g>
</g>
<g>
</g>
<g>
</g>
<g>
</g>
<g>
</g>
<g>
</g>
<g>
</g>
<g>
</g>
<g>
</g>
<g>
</g>
</svg>
