<?xml version="1.0" encoding="iso-8859-1"?>
<!-- Generator: Adobe Illustrator 17.1.0, SVG Export Plug-In . SVG Version: 6.00 Build 0)  -->
<!DOCTYPE svg PUBLIC "-//W3C//DTD SVG 1.1//EN" "http://www.w3.org/Graphics/SVG/1.1/DTD/svg11.dtd">
<svg version="1.1" id="Capa_1" xmlns="http://www.w3.org/2000/svg" xmlns:xlink="http://www.w3.org/1999/xlink" x="0px" y="0px"
	 viewBox="0 0 389.035 389.035" style="enable-background:new 0 0 389.035 389.035;" xml:space="preserve">
<path id="XMLID_211_" d="M186.027,17.509V9c0-4.97,4.029-9,9-9c4.97,0,9,4.03,9,9v8.509c0,4.971-4.03,9-9,9
	C190.056,26.509,186.027,22.48,186.027,17.509z M294.202,67.588c2.303,0,4.606-0.878,6.363-2.635l6.017-6.016
	c3.516-3.514,3.516-9.213,0.001-12.728c-3.513-3.514-9.213-3.516-12.728-0.001l-6.017,6.016c-3.516,3.514-3.516,9.213-0.001,12.728
	C289.595,66.709,291.899,67.588,294.202,67.588z M152.558,135.403c0-24.959,15.969-46.814,39.737-54.386
	c1.776-0.566,3.687-0.566,5.462,0c23.769,7.571,39.737,29.427,39.737,54.386c0,24.958-15.969,46.815-39.736,54.387
	c-0.889,0.283-1.811,0.425-2.732,0.425c-0.922,0-1.844-0.142-2.732-0.425C168.527,182.216,152.558,160.36,152.558,135.403z
	 M170.558,135.403c0,16.113,9.719,30.338,24.469,36.255c14.75-5.917,24.468-20.142,24.468-36.255
	c0-16.114-9.72-30.338-24.468-36.254C180.278,105.065,170.558,119.289,170.558,135.403z M335.282,166.763h8.505c4.971,0,9-4.029,9-9
	s-4.029-9-9-9h-8.505c-4.971,0-9,4.029-9,9S330.312,166.763,335.282,166.763z M309.676,250.115
	c-30.889-20.51-71.786-31.805-115.157-31.805c-43.372,0-84.27,11.295-115.159,31.805c-32.023,21.263-49.66,49.906-49.66,80.654
	c0,4.97,4.029,9,9,9h65.165c2.99,0,5.785-1.485,7.458-3.963c1.674-2.478,2.007-5.625,0.891-8.399l-10.448-25.952
	c-1.856-4.611-7.099-6.843-11.71-4.988c-4.611,1.856-6.844,7.099-4.987,11.71l5.471,13.59H48.368
	c3.156-21.184,17.417-41.034,40.948-56.658c27.971-18.572,65.333-28.8,105.202-28.8c39.868,0,77.229,10.228,105.2,28.8
	c23.531,15.624,37.792,35.474,40.948,56.658h-42.173l5.471-13.591c1.856-4.611-0.377-9.854-4.987-11.71
	c-4.614-1.857-9.854,0.377-11.71,4.988l-10.447,25.952c-1.117,2.773-0.783,5.92,0.891,8.398s4.468,3.963,7.458,3.963h65.166
	c4.971,0,9-4.03,9-9C359.335,300.021,341.699,271.377,309.676,250.115z M260.026,299.063v25.802c0.003,0.14,0.003,0.279,0,0.418
	v54.753c0,4.97-4.029,9-9,9H138.008c-4.971,0-9-4.03-9-9v-54.754c-0.003-0.138-0.003-0.277,0-0.416v-25.802c0-4.971,4.029-9,9-9
	h113.018C255.996,290.063,260.026,294.093,260.026,299.063z M242.026,337.556l-44.969,14.976c-1.857,0.618-3.862,0.615-5.716-0.009
	l-44.333-14.924v33.437h95.018V337.556z M242.026,308.063h-95.018v10.542l47.22,15.896l47.797-15.918V308.063z M211.666,279.965
	c4.971,0,9-4.03,9-9s-4.029-9-9-9H177.37c-4.971,0-9,4.03-9,9s4.029,9,9,9H211.666z M89.485,64.952
	c1.757,1.758,4.061,2.636,6.364,2.636c2.303,0,4.606-0.878,6.363-2.635c3.515-3.514,3.516-9.213,0.001-12.728L96.2,46.209
	c-3.515-3.514-9.213-3.515-12.728-0.001s-3.516,9.213-0.001,12.728L89.485,64.952z M46.263,166.763h8.506c4.971,0,9-4.029,9-9
	s-4.029-9-9-9h-8.506c-4.971,0-9,4.029-9,9S41.293,166.763,46.263,166.763z"/>
<g>
</g>
<g>
</g>
<g>
</g>
<g>
</g>
<g>
</g>
<g>
</g>
<g>
</g>
<g>
</g>
<g>
</g>
<g>
</g>
<g>
</g>
<g>
</g>
<g>
</g>
<g>
</g>
<g>
</g>
</svg>
