<?xml version="1.0" encoding="iso-8859-1"?>
<!-- Generator: Adobe Illustrator 17.1.0, SVG Export Plug-In . SVG Version: 6.00 Build 0)  -->
<!DOCTYPE svg PUBLIC "-//W3C//DTD SVG 1.1//EN" "http://www.w3.org/Graphics/SVG/1.1/DTD/svg11.dtd">
<svg version="1.1" id="Capa_1" xmlns="http://www.w3.org/2000/svg" xmlns:xlink="http://www.w3.org/1999/xlink" x="0px" y="0px"
	 viewBox="0 0 394.69 394.69" style="enable-background:new 0 0 394.69 394.69;" xml:space="preserve">
<path id="XMLID_1952_" d="M176.66,99.402V10.457c0-4.971,4.029-9,9-9s9,4.029,9,9v88.945c0,22.002,17.899,39.901,39.901,39.901
	s39.901-17.899,39.901-39.901V10.457c0-4.971,4.029-9,9-9s9,4.029,9,9v88.945c0,28.865-21.234,52.866-48.901,57.203v36.313
	c0,4.971-4.029,9-9,9s-9-4.029-9-9v-36.313C197.895,152.269,176.66,128.268,176.66,99.402z M218.253,108.402c4.971,0,9-4.029,9-9
	V10.457c0-4.971-4.029-9-9-9s-9,4.029-9,9v88.945C209.253,104.373,213.283,108.402,218.253,108.402z M250.87,108.402
	c4.971,0,9-4.029,9-9V10.457c0-4.971-4.029-9-9-9s-9,4.029-9,9v88.945C241.87,104.373,245.9,108.402,250.87,108.402z
	 M107.404,156.605v52.763c11.196,3.768,19.282,14.364,19.282,26.813v117.89c0,15.595-12.688,28.281-28.282,28.281
	c-15.594,0-28.28-12.687-28.28-28.281v-117.89c0-12.449,8.085-23.046,19.28-26.813v-52.763
	c-27.667-4.337-48.901-28.338-48.901-57.203V57.901C40.502,25.975,66.476,0,98.403,0c31.928,0,57.902,25.975,57.902,57.901v41.501
	C156.305,128.268,135.071,152.269,107.404,156.605z M98.404,225.9c-5.669,0-10.28,4.612-10.28,10.281v117.89
	c0,5.669,4.611,10.281,10.28,10.281c5.67,0,10.282-4.612,10.282-10.281v-117.89C108.686,230.513,104.074,225.9,98.404,225.9z
	 M138.305,99.402V57.901C138.305,35.899,120.406,18,98.404,18h-0.001c-22.001,0-39.9,17.899-39.9,39.901v41.501
	c0,22.002,17.899,39.901,39.9,39.901C120.405,139.304,138.305,121.404,138.305,99.402z M99.673,32.021
	c-15.659,0-28.5,12.246-29.233,27.879c-0.232,4.966,3.604,9.179,8.568,9.412c0.144,0.007,0.287,0.01,0.429,0.01
	c4.777,0,8.757-3.757,8.983-8.578c0.282-6.013,5.225-10.723,11.253-10.723c4.971,0,9-4.029,9-9S104.644,32.021,99.673,32.021z
	 M354.103,315.411c-4.892,35.288-35.883,65.771-77.117,75.853c-9.413,2.301-18.864,3.427-28.102,3.427
	c-21.763,0-42.333-6.251-58.409-18.127c-8.156,0.5-16.244-0.141-24.046-1.999l-4.13,4.972c-3.176,3.825-8.85,4.35-12.674,1.174
	c-3.824-3.177-4.35-8.851-1.174-12.674l4.126-4.968c-14.366-32.229-6.549-74.297,20.399-106.742
	c28.53-34.35,71.612-49.62,107.203-37.999c2.176,0.711,3.999,2.224,5.1,4.231c8.538,15.585,11.425,33.947,9.05,52.609
	c8.834,1.392,17.251,3.859,25.124,7.372c13.729,6.123,25.167,15.264,33.078,26.434C353.856,310.842,354.417,313.144,354.103,315.411
	z M193.552,358.272c18.283-2.161,36.962-11.395,52.332-26.334c0.194-0.209,0.398-0.409,0.612-0.601
	c2.531-2.499,4.97-5.154,7.299-7.959c10.474-12.61,17.565-26.822,21.001-41.035c0.07-0.893,0.269-1.745,0.575-2.541
	c3.38-16.011,2.098-31.9-4.239-45.372c-27.63-7.093-61.771,6.264-84.309,33.396c-20.163,24.276-27.79,54.495-20.933,79.214
	l52.612-63.346c3.177-3.824,8.852-4.349,12.674-1.174c3.824,3.176,4.35,8.851,1.174,12.674l-52.603,63.332
	c3.705,0.317,7.467,0.313,11.25,0.002C191.833,358.322,192.689,358.236,193.552,358.272z M335.654,316.502
	c-5.921-7.248-13.987-13.266-23.533-17.523c-6.714-2.995-13.948-5.064-21.585-6.18c-3.139,10.335-7.864,20.528-14.106,30.147
	l17.203-4.205c4.831-1.188,9.698,1.777,10.879,6.605c0.176,0.716,0.26,1.434,0.26,2.141c0.002,4.052-2.753,7.733-6.865,8.738
	l-40.939,10.009c-11.902,11.18-25.5,19.534-39.609,24.644c16.439,6.38,36.188,7.585,55.354,2.9
	C304.857,365.919,330.174,342.676,335.654,316.502z"/>
<g>
</g>
<g>
</g>
<g>
</g>
<g>
</g>
<g>
</g>
<g>
</g>
<g>
</g>
<g>
</g>
<g>
</g>
<g>
</g>
<g>
</g>
<g>
</g>
<g>
</g>
<g>
</g>
<g>
</g>
</svg>
