<?xml version="1.0" encoding="iso-8859-1"?>
<!-- Generator: Adobe Illustrator 17.1.0, SVG Export Plug-In . SVG Version: 6.00 Build 0)  -->
<!DOCTYPE svg PUBLIC "-//W3C//DTD SVG 1.1//EN" "http://www.w3.org/Graphics/SVG/1.1/DTD/svg11.dtd">
<svg version="1.1" id="Capa_1" xmlns="http://www.w3.org/2000/svg" xmlns:xlink="http://www.w3.org/1999/xlink" x="0px" y="0px"
	 viewBox="0 0 381.268 381.268" style="enable-background:new 0 0 381.268 381.268;" xml:space="preserve">
<path id="XMLID_1068_" d="M159.359,226.527c7.683,0,10.684-3.268,15.655-8.682c5.625-6.126,13.33-14.517,28.941-14.517
	c15.598,0,23.296,8.389,28.917,14.514c4.97,5.416,7.97,8.685,15.655,8.685c5.932,0,11.392-2.862,14.981-7.854
	c2.902-4.036,8.524-4.956,12.562-2.052c4.035,2.902,4.954,8.526,2.052,12.562c-6.909,9.608-17.974,15.344-29.595,15.344
	c-15.598,0-23.296-8.389-28.917-14.514c-4.97-5.416-7.97-8.685-15.655-8.685c-7.703,0-10.707,3.271-15.684,8.691
	c-5.622,6.122-13.321,14.507-28.913,14.507c-11.62,0-22.683-5.736-29.593-15.344c-2.902-4.036-1.983-9.659,2.052-12.562
	c4.035-2.904,9.658-1.983,12.562,2.052C147.97,223.665,153.429,226.527,159.359,226.527z M381.219,224.079
	c-0.03-11.076-0.062-22.528-0.043-33.784c0-0.168-0.004-0.337-0.014-0.506c-2.014-36.864-32.516-65.74-69.438-65.74h-121.76
	c-4.971,0-9,4.029-9,9s4.029,9,9,9h121.76c13.979,0,26.716,5.584,36.031,14.689c-0.394-0.012-0.787-0.018-1.182-0.018
	c-15.599,0-23.296,8.389-28.917,14.515c-4.969,5.416-7.969,8.684-15.654,8.684c-7.702,0-10.707-3.271-15.684-8.692
	c-5.622-6.122-13.321-14.507-28.911-14.507c-11.623,0-22.687,5.736-29.596,15.345c-2.901,4.036-1.982,9.659,2.054,12.561
	c4.036,2.903,9.66,1.982,12.562-2.053c3.588-4.991,9.049-7.853,14.98-7.853c7.682,0,10.682,3.268,15.652,8.681
	c5.626,6.127,13.331,14.518,28.942,14.518c15.599,0,23.296-8.389,28.917-14.515c4.97-5.416,7.969-8.684,15.654-8.684
	c5.824,0,11.731,2.549,15.184,6.452c0.746,3.019,1.229,6.147,1.419,9.356c-0.019,11.21,0.013,22.59,0.043,33.599
	c0.024,8.899,0.049,17.798,0.049,26.697c0,28.421-23.122,51.544-51.544,51.544H69.546c-15.017,0-28.553-6.454-37.982-16.731
	c0.475,0.019,0.95,0.029,1.427,0.029c15.589,0,23.289-8.384,28.911-14.506c4.978-5.42,7.981-8.692,15.685-8.692
	c7.687,0,10.686,3.269,15.655,8.684c5.621,6.125,13.32,14.514,28.918,14.514c11.625,0,22.688-5.737,29.593-15.347
	c2.9-4.037,1.979-9.66-2.057-12.561c-4.037-2.901-9.66-1.979-12.561,2.057c-3.585,4.99-9.044,7.851-14.976,7.851
	c-7.687,0-10.686-3.269-15.655-8.684c-5.621-6.125-13.319-14.514-28.918-14.514c-15.611,0-23.316,8.39-28.942,14.517
	c-4.972,5.414-7.973,8.681-15.653,8.681c-5.396,0-10.401-2.368-13.961-6.553C18.354,257.792,18,254.356,18,250.838l0.092-60.295
	c1.608-27.211,24.165-48.494,51.454-48.494c4.971,0,9-4.029,9-9s-4.029-9-9-9c-36.922,0-67.424,28.876-69.44,65.74
	c-0.009,0.159-0.014,0.319-0.014,0.478L0,250.825c0,38.347,31.198,69.544,69.546,69.544h242.178
	c38.347,0,69.544-31.197,69.544-69.544C381.268,241.909,381.243,232.994,381.219,224.079z M74.621,69.899c0-4.971,4.029-9,9-9
	c13.316,0,24.149,10.833,24.149,24.149v2.198h42.543v-2.198c0-3.333-2.815-6.149-6.147-6.149c-4.971,0-9-4.029-9-9s4.029-9,9-9
	c13.315,0,24.147,10.833,24.147,24.149v105.94c0,4.971-4.029,9-9,9s-9-4.029-9-9V178.85h-42.543v12.138c0,4.971-4.029,9-9,9
	s-9-4.029-9-9V85.048c0-3.333-2.816-6.149-6.149-6.149C78.65,78.899,74.621,74.87,74.621,69.899z M107.771,124.049h42.543v-18.803
	h-42.543V124.049z M107.771,160.85h42.543v-18.801h-42.543V160.85z"/>
<g>
</g>
<g>
</g>
<g>
</g>
<g>
</g>
<g>
</g>
<g>
</g>
<g>
</g>
<g>
</g>
<g>
</g>
<g>
</g>
<g>
</g>
<g>
</g>
<g>
</g>
<g>
</g>
<g>
</g>
</svg>
