<?xml version="1.0" encoding="iso-8859-1"?>
<!-- Generator: Adobe Illustrator 17.1.0, SVG Export Plug-In . SVG Version: 6.00 Build 0)  -->
<!DOCTYPE svg PUBLIC "-//W3C//DTD SVG 1.1//EN" "http://www.w3.org/Graphics/SVG/1.1/DTD/svg11.dtd">
<svg version="1.1" id="Capa_1" xmlns="http://www.w3.org/2000/svg" xmlns:xlink="http://www.w3.org/1999/xlink" x="0px" y="0px"
	 viewBox="0 0 386.192 386.192" style="enable-background:new 0 0 386.192 386.192;" xml:space="preserve">
<path id="XMLID_843_" d="M184.604,17.509V9c0-4.97,4.029-9,9-9s9,4.03,9,9v8.509c0,4.97-4.029,9-9,9S184.604,22.479,184.604,17.509z
	 M151.14,135.403c0-24.959,15.968-46.815,39.735-54.386c1.776-0.566,3.686-0.566,5.463,0c23.767,7.57,39.735,29.427,39.735,54.386
	c0,24.958-15.968,46.814-39.734,54.387c-0.889,0.283-1.811,0.425-2.732,0.425s-1.844-0.142-2.732-0.425
	C167.108,182.217,151.14,160.36,151.14,135.403z M169.14,135.403c0,16.114,9.718,30.338,24.467,36.255
	c14.749-5.917,24.466-20.142,24.466-36.255c0-16.114-9.718-30.338-24.466-36.254C178.858,105.064,169.14,119.288,169.14,135.403z
	 M292.781,67.588c2.303,0,4.606-0.879,6.364-2.636l6.016-6.016c3.515-3.515,3.515-9.213,0-12.728c-3.515-3.515-9.213-3.515-12.728,0
	l-6.016,6.016c-3.515,3.515-3.515,9.213,0,12.728C288.175,66.71,290.478,67.588,292.781,67.588z M333.861,166.763h8.508
	c4.971,0,9-4.03,9-9s-4.029-9-9-9h-8.508c-4.971,0-9,4.03-9,9S328.89,166.763,333.861,166.763z M88.064,64.952
	c1.757,1.758,4.061,2.636,6.364,2.636c2.303,0,4.606-0.878,6.363-2.635c3.515-3.514,3.516-9.213,0.001-12.728l-6.014-6.016
	c-3.515-3.514-9.213-3.515-12.728-0.001s-3.516,9.213-0.001,12.728L88.064,64.952z M266.221,271.206
	c2.551,2.397,3.48,6.055,2.383,9.379l-28.138,85.261c-0.862,2.613-2.873,4.688-5.458,5.633l-38.767,14.164
	c-1.019,0.372-2.063,0.549-3.087,0.549c-0.081,0-0.162-0.001-0.242-0.003c-0.998-0.014-1.998-0.194-2.96-0.546l-38.769-14.164
	c-2.585-0.945-4.596-3.02-5.458-5.633l-28.136-85.261c-1.097-3.324-0.167-6.982,2.383-9.379c2.55-2.396,6.259-3.098,9.509-1.796
	l63.617,25.474l63.615-25.474C259.961,268.11,263.669,268.809,266.221,271.206z M184.04,310.646l-43.298-17.338l20.71,62.759
	l22.588,8.252V310.646z M245.45,293.309l-43.411,17.384v53.669l22.699-8.293L245.45,293.309z M308.254,250.115
	c-30.89-20.51-71.787-31.805-115.158-31.805s-84.268,11.295-115.158,31.805c-32.023,21.263-49.66,49.906-49.66,80.654
	c0,4.97,4.029,9,9,9h65.167c2.99,0,5.785-1.485,7.458-3.963c1.673-2.478,2.007-5.625,0.89-8.399l-10.45-25.952
	c-1.856-4.611-7.098-6.844-11.71-4.987c-4.611,1.857-6.843,7.1-4.987,11.71l5.472,13.59H46.947
	c3.156-21.184,17.417-41.034,40.949-56.658c27.971-18.572,65.332-28.8,105.201-28.8s77.229,10.228,105.201,28.8
	c23.532,15.624,37.792,35.474,40.949,56.658h-42.172l5.472-13.59c1.856-4.611-0.376-9.854-4.987-11.71
	c-4.612-1.856-9.854,0.376-11.71,4.987l-10.45,25.952c-1.117,2.774-0.783,5.921,0.89,8.399c1.674,2.478,4.468,3.963,7.458,3.963
	h65.167c4.971,0,9-4.03,9-9C357.914,300.021,340.277,271.378,308.254,250.115z M44.841,166.763h8.509c4.971,0,9-4.03,9-9
	s-4.029-9-9-9h-8.509c-4.971,0-9,4.03-9,9S39.87,166.763,44.841,166.763z"/>
<g>
</g>
<g>
</g>
<g>
</g>
<g>
</g>
<g>
</g>
<g>
</g>
<g>
</g>
<g>
</g>
<g>
</g>
<g>
</g>
<g>
</g>
<g>
</g>
<g>
</g>
<g>
</g>
<g>
</g>
</svg>
