<?xml version="1.0" encoding="iso-8859-1"?>
<!-- Generator: Adobe Illustrator 17.1.0, SVG Export Plug-In . SVG Version: 6.00 Build 0)  -->
<!DOCTYPE svg PUBLIC "-//W3C//DTD SVG 1.1//EN" "http://www.w3.org/Graphics/SVG/1.1/DTD/svg11.dtd">
<svg version="1.1" id="Capa_1" xmlns="http://www.w3.org/2000/svg" xmlns:xlink="http://www.w3.org/1999/xlink" x="0px" y="0px"
	 viewBox="0 0 418.944 418.944" style="enable-background:new 0 0 418.944 418.944;" xml:space="preserve">
<path id="XMLID_1773_" d="M66.456,351.004v1.813c0,4.971-4.029,9-9,9s-9-4.029-9-9v-1.813c0-4.971,4.029-9,9-9
	S66.456,346.034,66.456,351.004z M74.13,205.859c0-21.669,13.863-40.645,34.497-47.218c1.777-0.566,3.686-0.566,5.463,0
	c20.636,6.573,34.5,25.548,34.5,47.218c0,21.668-13.864,40.643-34.5,47.217c-0.889,0.283-1.811,0.425-2.732,0.425
	c-0.922,0-1.844-0.142-2.732-0.425C87.993,246.501,74.13,227.527,74.13,205.859z M92.13,205.859
	c0,12.818,7.617,24.156,19.229,29.058c11.614-4.901,19.231-16.239,19.231-29.058c0-12.82-7.617-24.158-19.231-29.059
	C99.746,181.702,92.13,193.039,92.13,205.859z M261.377,77.365c4.306,2.491,9.808,1.018,12.297-3.283
	c8.407-14.533,21.808-24.533,36.329-27.286c10.536,8.237,17.527,21.266,19.351,36.273c0.555,4.565,4.438,7.915,8.923,7.915
	c0.362,0,0.729-0.021,1.098-0.066c4.934-0.6,8.448-5.086,7.849-10.021c-2.609-21.473-13.519-40.072-29.93-51.028
	c-1.766-1.179-3.891-1.697-6.001-1.458c-21.424,2.404-41.312,16.107-53.198,36.657C255.605,69.371,257.075,74.876,261.377,77.365z
	 M106.63,136.159c1.482,0.926,3.13,1.367,4.758,1.367c3.001,0,5.936-1.5,7.643-4.233c2.633-4.217,1.35-9.769-2.867-12.401
	c-12.702-7.933-8.477-21.546,3.441-48.599c5.332-12.102,10.844-24.615,12.298-36.307c1.899-15.264-3.396-26.911-15.739-34.619
	c-4.214-2.631-9.767-1.35-12.401,2.866c-2.633,4.217-1.35,9.769,2.867,12.401c12.6,7.869,8.382,21.435-3.497,48.401
	c-5.343,12.129-10.869,24.671-12.32,36.4C88.919,116.739,94.24,128.421,106.63,136.159z M243.712,233.647l-2.979,7.936
	c-1.747,4.653,0.608,9.842,5.263,11.589c1.042,0.392,2.11,0.576,3.162,0.576c3.642,0,7.071-2.228,8.427-5.839l2.979-7.936
	c1.747-4.653-0.608-9.842-5.263-11.589C250.652,226.637,245.459,228.993,243.712,233.647z M214.194,247.743v135.014
	c0.003,0.089,0.004,0.178,0.004,0.268c0,28.354-64.644,35.92-102.84,35.92S8.52,411.378,8.52,383.024c0-0.063,0-0.128,0.002-0.191
	V247.634c-0.001-0.089-0.002-0.182-0.002-0.271c0-13.646,14.817-23.807,44.041-30.203c4.854-1.062,9.653,2.012,10.716,6.868
	c1.063,4.855-2.012,9.653-6.868,10.716c-21.795,4.771-28.753,10.802-29.804,12.623c0.975,1.755,6.765,6.72,23.794,11.179
	c16.594,4.345,38.243,6.737,60.959,6.737c22.717,0,44.367-2.393,60.961-6.737c17.028-4.458,22.818-9.423,23.793-11.178
	c-1.052-1.822-8.011-7.854-29.805-12.624c-4.855-1.063-7.93-5.861-6.867-10.717c1.063-4.855,5.861-7.928,10.717-6.867
	c29.223,6.397,44.041,16.56,44.041,30.203C214.198,247.489,214.197,247.618,214.194,247.743z M196.194,269.195
	c-21.96,10.708-59.306,14.088-84.836,14.088c-13.085,0-29.271-0.888-44.902-3.195v42.209c0,4.971-4.029,9-9,9s-9-4.029-9-9v-45.632
	c-8.143-1.954-15.666-4.414-21.935-7.471V382.86c0.676,1.584,6.266,6.736,23.876,11.347c16.594,4.345,38.243,6.737,60.96,6.737
	c22.718,0,44.368-2.393,60.962-6.737c17.593-4.606,23.189-9.753,23.874-11.342V269.195z M387.674,287.825
	c-4.414,2.285-6.14,7.716-3.854,12.13c7.876,15.213,9.011,32.177,3.226,46.074c-11.598,3.896-25.165,3.112-37.763-2.276
	c-4.565-1.954-9.859,0.165-11.814,4.734s0.164,9.859,4.734,11.814c9.578,4.099,19.658,6.154,29.496,6.154
	c8.876,0,17.555-1.675,25.485-5.034c1.955-0.828,3.554-2.32,4.515-4.214c9.93-19.562,9.222-44.059-1.895-65.528
	C397.519,287.265,392.089,285.539,387.674,287.825z M270.631,222.334c-1.747,4.653,0.608,9.843,5.262,11.59l6.84,2.568
	c1.043,0.392,2.111,0.576,3.163,0.576c3.642,0,7.07-2.228,8.427-5.838c1.747-4.653-0.608-9.843-5.262-11.59l-6.84-2.568
	C277.568,215.327,272.38,217.681,270.631,222.334z M350.107,319.631c3.562,3.466,9.261,3.386,12.727-0.176
	c3.466-3.563,3.387-9.261-0.176-12.727l-22.104-21.501c1.154,0.033,2.309,0.05,3.467,0.05c24.494-0.002,49.431-7.495,64.438-26.3
	c1.636-2.049,2.296-4.709,1.81-7.285c-5.462-28.91-31.972-49.82-59.494-60.028c17.856-23.341,29.194-55.157,18.505-82.428
	c-0.956-2.441-2.93-4.344-5.404-5.21c-21.142-7.405-44.41-1.884-64.302,9.457l8.125-19.571c1.905-4.591-0.271-9.857-4.861-11.764
	c-4.597-1.904-9.858,0.271-11.764,4.862l-12.606,30.366c-11.975-23.944-32.289-45.127-58.458-49.082
	c-2.591-0.389-5.227,0.366-7.214,2.076c-22.202,19.098-27.075,52.483-22.223,81.446c-11.045-1.516-21.98-1.464-32.653,0.167
	c-4.914,0.75-8.288,5.342-7.538,10.256c0.751,4.914,5.344,8.286,10.256,7.537c12.779-1.952,26.082-1.197,39.539,2.245
	c3.131,0.804,6.454-0.14,8.701-2.463c2.247-2.324,3.075-5.676,2.169-8.779c-6.927-23.715-6.326-56.045,10.427-73.835
	c23.735,6.166,41.376,33.164,48.036,56.893c0.064,0.238,0.139,0.474,0.223,0.706c0.001,0.003,0.002,0.006,0.003,0.009
	c0,0.002,0.001,0.004,0.002,0.007c0.132,0.364,0.287,0.718,0.462,1.059c0.001,0.001,0.001,0.002,0.002,0.003
	c0.002,0.004,0.004,0.008,0.006,0.011c0.875,1.693,2.289,3.119,4.125,3.99c0.239,0.114,0.485,0.219,0.735,0.312
	c0.003,0.001,0.004,0.001,0.007,0.002c2.098,0.779,4.316,0.724,6.277-0.01c0.003-0.001,0.005-0.001,0.008-0.002
	c0.003-0.002,0.007-0.003,0.01-0.004c0.3-0.113,0.594-0.241,0.88-0.386c0.003-0.002,0.007-0.003,0.01-0.005
	c0.002-0.001,0.004-0.002,0.007-0.004c0.964-0.487,1.844-1.149,2.586-1.963c17.05-17.807,45.243-33.353,69.006-27.736
	c6.474,23.548-8.119,52.407-25.331,70.136c-2.252,2.319-3.087,5.668-2.188,8.772c0.899,3.104,3.394,5.489,6.536,6.246
	c23.98,5.782,51.666,22.437,58.704,45.938c-17.22,17.486-49.48,19.251-73.373,13.134c-3.127-0.802-6.454,0.138-8.701,2.463
	c-2.248,2.324-3.076,5.676-2.169,8.779c0.099,0.34,0.197,0.684,0.293,1.026c0.057,0.243,0.123,0.484,0.199,0.723
	c6.395,23.533,5.424,54.73-10.921,72.086c-23.757-6.174-41.411-33.228-48.058-56.977c-1.339-4.786-6.301-7.577-11.093-6.241
	c-4.786,1.34-7.581,6.306-6.241,11.093c8.825,31.532,32.919,65.646,66.854,70.775c0.449,0.068,0.898,0.102,1.346,0.102
	c2.139,0,4.226-0.763,5.869-2.177c18.384-15.813,24.888-41.424,23.827-66.207L350.107,319.631z M272.375,182.905
	c-4.651-1.747-9.842,0.611-11.587,5.267l-2.13,5.68c-1.745,4.654,0.612,9.842,5.267,11.587c1.041,0.391,2.108,0.575,3.159,0.575
	c3.644,0,7.073-2.229,8.428-5.842l2.13-5.68C279.387,189.837,277.029,184.65,272.375,182.905z M239.32,219.581
	c3.642,0,7.07-2.228,8.427-5.839c1.747-4.652-0.608-9.842-5.262-11.59l-6.841-2.569c-4.648-1.747-9.841,0.608-11.59,5.262
	c-1.747,4.652,0.608,9.842,5.262,11.589l6.841,2.57C237.199,219.396,238.269,219.581,239.32,219.581z"/>
<g>
</g>
<g>
</g>
<g>
</g>
<g>
</g>
<g>
</g>
<g>
</g>
<g>
</g>
<g>
</g>
<g>
</g>
<g>
</g>
<g>
</g>
<g>
</g>
<g>
</g>
<g>
</g>
<g>
</g>
</svg>
