<?xml version="1.0" encoding="iso-8859-1"?>
<!-- Generator: Adobe Illustrator 17.1.0, SVG Export Plug-In . SVG Version: 6.00 Build 0)  -->
<!DOCTYPE svg PUBLIC "-//W3C//DTD SVG 1.1//EN" "http://www.w3.org/Graphics/SVG/1.1/DTD/svg11.dtd">
<svg version="1.1" id="Capa_1" xmlns="http://www.w3.org/2000/svg" xmlns:xlink="http://www.w3.org/1999/xlink" x="0px" y="0px"
	 viewBox="0 0 392.999 392.999" style="enable-background:new 0 0 392.999 392.999;" xml:space="preserve">
<path id="XMLID_120_" d="M163.762,82.28c-18.263,5.817-30.533,22.609-30.533,41.785c0,19.177,12.271,35.97,30.533,41.786
	c0.889,0.283,1.81,0.425,2.731,0.425s1.843-0.142,2.731-0.425c18.261-5.816,30.529-22.609,30.529-41.786
	s-12.269-35.969-30.529-41.785C167.448,81.713,165.539,81.713,163.762,82.28z M181.755,124.065c0,10.321-6.024,19.471-15.261,23.595
	c-9.238-4.124-15.265-13.273-15.265-23.595c0-10.32,6.026-19.47,15.265-23.594C175.73,104.595,181.755,113.744,181.755,124.065z
	 M134.293,245.576c-14.463,12.281-32.707,18.819-51.266,18.819c-6.616,0-13.271-0.83-19.811-2.527
	c-20.439-5.304-37.59-18.25-48.293-36.453C4.222,207.211,1.249,185.93,6.553,165.491c6.129-23.619,22.952-43.015,45.026-52.647
	c-6.915-16.035-8.306-33.787-3.842-50.99c5.304-20.44,18.25-37.591,36.454-48.292c18.203-10.702,39.483-13.674,59.925-8.37
	c10.833,2.812,20.915,7.877,29.575,14.815c7.396-6.213,15.928-11.076,25.061-14.246c4.696-1.631,9.824,0.855,11.454,5.551
	c1.63,4.695-0.855,9.823-5.551,11.453c-9.195,3.192-17.601,8.603-24.307,15.646c-1.674,1.758-3.987,2.765-6.415,2.792
	c-0.034,0.001-0.068,0.001-0.103,0.001c-2.391,0-4.685-0.951-6.374-2.646c-7.664-7.687-17.298-13.2-27.862-15.941
	c-15.787-4.099-32.223-1.803-46.281,6.463C79.255,37.342,69.257,50.588,65.16,66.375c-4.156,16.019-1.739,32.654,6.806,46.841
	c1.45,2.407,1.692,5.353,0.655,7.964c-1.037,2.612-3.233,4.59-5.939,5.347c-20.899,5.849-37.263,22.512-42.706,43.486
	c-4.097,15.785-1.801,32.221,6.465,46.279s21.511,24.057,37.297,28.152c19.222,4.989,39.746,0.283,54.905-12.589
	c3.79-3.219,9.468-2.754,12.686,1.035S138.082,242.359,134.293,245.576z M217.082,374.996h-6.378v-52.979c0-4.971-4.029-9-9-9
	h-61.369c-4.971,0-9,4.029-9,9v52.979h-6.384c-4.971,0-9,4.029-9,9s4.029,9,9,9h15.154c0.153,0.004,0.309,0.004,0.461,0h60.908
	c0.077,0.002,0.153,0.003,0.23,0.003s0.154-0.001,0.23-0.003h15.148c4.971,0,9-4.029,9-9S222.053,374.996,217.082,374.996z
	 M192.704,374.996h-43.369v-43.979h43.369V374.996z M283.272,383.996c0,4.971-4.029,9-9,9h-20.031c-4.659,0-8.548-3.556-8.964-8.197
	c-1.443-16.104-8.106-72.927-11.118-81.812c-4.061-11.971-14.684-13.451-37.955-13.975c-19.324-0.434-30.58-8.515-35.421-25.43
	c-4.061-14.188-3.744-34.41-3.265-65.021c0.071-4.515,0.145-9.247,0.208-14.204c0.05-3.923,2.636-7.361,6.391-8.498
	c3.753-1.142,7.813,0.288,10.032,3.524c30.667,44.739,55.768,62.235,71.424,69.034c4.559,1.979,6.65,7.28,4.67,11.84
	c-1.98,4.56-7.281,6.655-11.84,4.67c-20.375-8.848-41.888-27.201-63.045-53.64c-0.468,52.844,2.687,59.312,21.25,59.728
	c20.523,0.462,46.064,1.037,54.597,26.189c3.583,10.568,9.048,58.116,11.156,77.79h11.911
	C279.243,374.996,283.272,379.025,283.272,383.996z M381.144,222.413c-9.162,19.024-25.185,33.343-45.117,40.318
	c-10.561,3.697-21.755,5.105-32.814,4.162c-2.686,9.281-7.065,18.071-12.886,25.788c-1.769,2.345-4.464,3.58-7.192,3.581
	c-1.888,0-3.79-0.592-5.413-1.815c-3.968-2.994-4.758-8.637-1.765-12.605c5.86-7.768,9.83-16.941,11.48-26.529
	c0.412-2.393,1.773-4.517,3.774-5.891c2.001-1.375,4.474-1.878,6.853-1.409c10.647,2.118,21.719,1.335,32.017-2.271
	c15.396-5.388,27.771-16.446,34.846-31.139c7.076-14.692,8.006-31.262,2.619-46.655c-5.466-15.62-16.736-28.093-31.733-35.12
	c-2.544-1.191-4.386-3.504-4.979-6.25c-0.593-2.747,0.131-5.612,1.957-7.748c14.102-16.493,18.416-39.445,11.258-59.899
	c-5.387-15.394-16.445-27.768-31.139-34.843c-14.693-7.076-31.262-8.008-46.654-2.619c-18.745,6.56-33.174,21.897-38.598,41.03
	c-1.355,4.781-6.329,7.558-11.114,6.204c-4.782-1.356-7.56-6.332-6.204-11.114c7.021-24.763,25.701-44.617,49.97-53.11
	c19.931-6.975,41.385-5.771,60.409,3.392c19.025,9.161,33.344,25.184,40.319,45.115c8.06,23.032,4.887,48.51-8.085,68.802
	c14.674,9.469,25.712,23.44,31.582,40.216C391.509,181.934,390.305,203.388,381.144,222.413z M252.947,146.964
	c5.389,10.856,10.96,22.082,12.455,32.741c1.969,14.052-3.606,25.146-16.124,32.085c-1.382,0.766-2.879,1.13-4.355,1.13
	c-3.166,0-6.236-1.674-7.88-4.639c-2.41-4.348-0.839-9.825,3.508-12.235c11.179-6.195,8.875-15.691-3.727-41.079
	c-5.401-10.881-10.985-22.133-12.477-32.827c-1.964-14.086,3.639-25.212,16.204-32.177c4.345-2.409,9.825-0.839,12.234,3.509
	s0.839,9.825-3.509,12.235C238.001,111.958,240.303,121.491,252.947,146.964z"/>
<g>
</g>
<g>
</g>
<g>
</g>
<g>
</g>
<g>
</g>
<g>
</g>
<g>
</g>
<g>
</g>
<g>
</g>
<g>
</g>
<g>
</g>
<g>
</g>
<g>
</g>
<g>
</g>
<g>
</g>
</svg>
