<?xml version="1.0" encoding="iso-8859-1"?>
<!-- Generator: Adobe Illustrator 17.1.0, SVG Export Plug-In . SVG Version: 6.00 Build 0)  -->
<!DOCTYPE svg PUBLIC "-//W3C//DTD SVG 1.1//EN" "http://www.w3.org/Graphics/SVG/1.1/DTD/svg11.dtd">
<svg version="1.1" id="Capa_1" xmlns="http://www.w3.org/2000/svg" xmlns:xlink="http://www.w3.org/1999/xlink" x="0px" y="0px"
	 viewBox="0 0 375.188 375.188" style="enable-background:new 0 0 375.188 375.188;" xml:space="preserve">
<path id="XMLID_1699_" d="M138.393,270.212c0,4.971-4.029,9-9,9h-22.819c-4.971,0-9-4.029-9-9v-41.464c0-4.971,4.029-9,9-9
	s9,4.029,9,9v32.464h13.819C134.363,261.212,138.393,265.242,138.393,270.212z M204.334,184.962
	c3.516,3.515,3.516,9.213,0.001,12.728c-3.516,3.515-9.214,3.515-12.728,0l-1.705-1.705l-10.628,10.628
	c14.896,17.007,23.936,39.268,23.936,63.599c0,2.534-0.104,5.126-0.308,7.706c-1.909,24.163-12.775,46.582-30.597,63.127
	c-0.884,0.82-1.781,1.623-2.691,2.407l16.371,16.372c3.515,3.515,3.515,9.213,0,12.728c-1.758,1.757-4.062,2.636-6.364,2.636
	c-2.304,0-4.606-0.878-6.364-2.636l-18.534-18.535c-14.525,8.361-31.063,12.829-48.149,12.829c-17.507,0-33.945-4.682-48.122-12.855
	L39.89,372.552c-3.517,3.514-9.214,3.515-12.729,0c-3.515-3.515-3.515-9.213,0-12.728l16.402-16.401
	c-20.579-17.734-33.625-43.976-33.625-73.209c0-23.11,8.289-45.476,23.339-62.976c13.893-16.153,32.716-27.262,53.397-31.602
	c-0.331-0.937-0.511-1.945-0.511-2.995c0-4.971,4.029-9,9-9h22.818c4.971,0,9,4.029,9,9c0,1.05-0.18,2.059-0.511,2.996
	c14.758,3.102,28.287,9.58,39.739,18.587l10.963-10.964l-1.703-1.704c-3.516-3.515-3.516-9.213-0.001-12.728
	c3.516-3.515,9.214-3.515,12.728,0l8.016,8.015c0.018,0.018,0.035,0.035,0.054,0.053c0.018,0.018,0.035,0.036,0.053,0.054
	L204.334,184.962z M106.573,191.576c-4.197,0-8.428,0.338-12.576,1.004c-38.277,6.148-66.059,38.797-66.059,77.632
	c0,43.358,35.275,78.633,78.635,78.633c40.748,0,75.18-31.778,78.386-72.346c0.166-2.109,0.251-4.225,0.251-6.287
	C185.21,226.852,149.934,191.576,106.573,191.576z M286.719,267.567c-15.976-5.125-33.891-10.261-56.604-13.104
	c-4.93-0.622-9.431,2.88-10.049,7.813c-0.617,4.932,2.881,9.431,7.813,10.048c21.251,2.66,38.196,7.523,53.343,12.383
	c0.914,0.293,1.84,0.433,2.751,0.433c3.807,0,7.343-2.434,8.567-6.253C294.058,274.154,291.452,269.086,286.719,267.567z
	 M292.539,62.684c-1.518-4.732-6.588-7.335-11.318-5.82c-23.313,7.48-49.942,14.401-86.61,14.401
	c-22.914,0-43.669-2.595-65.317-8.167c-4.813-1.242-9.721,1.659-10.959,6.472c-1.239,4.814,1.659,9.721,6.473,10.959
	c23.153,5.959,45.334,8.735,69.804,8.735c39.144,0,67.402-7.335,92.108-15.262C291.452,72.485,294.058,67.417,292.539,62.684z
	 M337.587,170.639c0-42.829,9.522-71.821,17.174-95.117c5.628-17.134,10.488-31.931,10.488-47.781
	C365.249,12.444,352.804,0,337.507,0c-15.85,0-30.646,4.86-47.78,10.487c-23.296,7.651-52.288,17.173-95.116,17.173
	c-42.83,0-71.823-9.522-95.119-17.173C82.357,4.86,67.561,0,51.71,0C36.413,0,23.968,12.444,23.968,27.741
	c0,15.851,4.86,30.648,10.488,47.782c6.897,20.998,14.714,44.797,16.704,78.781c0.291,4.962,4.536,8.761,9.511,8.458
	c4.962-0.29,8.749-4.548,8.458-9.51c-2.126-36.323-10.69-62.396-17.571-83.346c-5.358-16.311-9.59-29.194-9.59-42.165
	c0-5.371,4.37-9.741,9.742-9.741c12.97,0,25.854,4.231,42.165,9.588C118.39,35.64,148.899,45.66,194.61,45.66
	c45.708,0,76.218-10.02,100.732-18.071C311.654,22.231,324.538,18,337.507,18c5.372,0,9.742,4.37,9.742,9.741
	c0,12.97-4.231,25.853-9.589,42.164c-8.052,24.515-18.073,55.024-18.073,100.734c0,45.71,10.021,76.22,18.073,100.735
	c5.357,16.311,9.589,29.194,9.589,42.163c0,5.372-4.37,9.742-9.742,9.742c-12.97,0-25.854-4.231-42.165-9.589
	c-18.102-5.946-40.631-13.346-70.207-16.491c-4.943-0.521-9.375,3.056-9.901,7.998s3.055,9.375,7.997,9.901
	c27.678,2.943,48.3,9.717,66.495,15.693c17.134,5.627,31.931,10.488,47.781,10.488c15.297,0,27.742-12.445,27.742-27.742
	c0-15.85-4.86-30.646-10.487-47.78C347.109,242.461,337.587,213.468,337.587,170.639z"/>
<g>
</g>
<g>
</g>
<g>
</g>
<g>
</g>
<g>
</g>
<g>
</g>
<g>
</g>
<g>
</g>
<g>
</g>
<g>
</g>
<g>
</g>
<g>
</g>
<g>
</g>
<g>
</g>
<g>
</g>
</svg>
