<?xml version="1.0" encoding="iso-8859-1"?>
<!-- Generator: Adobe Illustrator 17.1.0, SVG Export Plug-In . SVG Version: 6.00 Build 0)  -->
<!DOCTYPE svg PUBLIC "-//W3C//DTD SVG 1.1//EN" "http://www.w3.org/Graphics/SVG/1.1/DTD/svg11.dtd">
<svg version="1.1" id="Capa_1" xmlns="http://www.w3.org/2000/svg" xmlns:xlink="http://www.w3.org/1999/xlink" x="0px" y="0px"
	 viewBox="0 0 373.861 373.861" style="enable-background:new 0 0 373.861 373.861;" xml:space="preserve">
<path id="XMLID_1953_" d="M140.436,143.278c0-4.971,4.029-9,9-9s9,4.029,9,9v2.983c0,4.971-4.029,9-9,9s-9-4.029-9-9V143.278z
	 M140.436,184.303c0,4.971,4.029,9,9,9s9-4.029,9-9v-2.983c0-4.971-4.029-9-9-9s-9,4.029-9,9V184.303z M149.436,117.222
	c4.971,0,9-4.029,9-9v-2.983c0-4.971-4.029-9-9-9s-9,4.029-9,9v2.983C140.436,113.192,144.466,117.222,149.436,117.222z
	 M175.866,131.503c0,4.971,4.029,9,9,9c4.97,0,9-4.029,9-9v-2.983c0-4.971-4.03-9-9-9c-4.971,0-9,4.029-9,9V131.503z
	 M184.866,106.49c4.97,0,9-4.029,9-9V44.631c0-4.971-4.03-9-9-9c-4.971,0-9,4.029-9,9V97.49
	C175.866,102.461,179.895,106.49,184.866,106.49z M222.361,117.222c4.971,0,9-4.029,9-9v-2.983c0-4.971-4.029-9-9-9s-9,4.029-9,9
	v2.983C213.361,113.192,217.39,117.222,222.361,117.222z M149.009,18h71.712c4.971,0,9-4.029,9-9s-4.029-9-9-9h-71.712
	c-4.971,0-9,4.029-9,9S144.038,18,149.009,18z M218.126,241.205c0,19.176-12.269,35.969-30.528,41.786
	c-0.889,0.283-1.81,0.425-2.732,0.425c-0.921,0-1.843-0.142-2.731-0.425c-18.262-5.816-30.531-22.609-30.531-41.786
	c0-19.178,12.27-35.971,30.531-41.787c1.777-0.566,3.687-0.566,5.463,0C205.858,205.235,218.126,222.028,218.126,241.205z
	 M200.126,241.205c0-10.321-6.024-19.471-15.261-23.596c-9.237,4.125-15.262,13.273-15.262,23.596
	c0,10.321,6.025,19.471,15.262,23.595C194.102,260.675,200.126,251.526,200.126,241.205z M213.361,146.262c0,4.971,4.029,9,9,9
	s9-4.029,9-9v-2.983c0-4.971-4.029-9-9-9s-9,4.029-9,9V146.262z M175.866,164.371c0,4.971,4.029,9,9,9c4.97,0,9-4.029,9-9v-2.982
	c0-4.971-4.03-9-9-9c-4.971,0-9,4.029-9,9V164.371z M213.361,184.303c0,4.971,4.029,9,9,9s9-4.029,9-9v-2.983c0-4.971-4.029-9-9-9
	s-9,4.029-9,9V184.303z M123.007,205.92c0-4.971-4.029-9-9-9s-9,4.029-9,9v2.983c0,4.971,4.029,9,9,9s9-4.029,9-9V205.92z
	 M259.856,196.92c-4.971,0-9,4.029-9,9v2.983c0,4.971,4.029,9,9,9s9-4.029,9-9v-2.983
	C268.856,200.949,264.826,196.92,259.856,196.92z M259.856,274.32c-4.971,0-9,4.029-9,9v2.982c0,4.971,4.029,9,9,9s9-4.029,9-9
	v-2.982C268.856,278.35,264.826,274.32,259.856,274.32z M114.001,106.49c4.971,0,9-4.029,9-9v-1.084
	c0-17.393,12.955-34.093,33.809-43.584c4.524-2.059,6.522-7.396,4.463-11.92c-2.059-4.523-7.398-6.52-11.919-4.463
	c-27.358,12.451-44.353,35.43-44.353,59.967v1.084C105.001,102.461,109.03,106.49,114.001,106.49z M259.856,235.619
	c-4.971,0-9,4.029-9,9v2.983c0,4.971,4.029,9,9,9s9-4.029,9-9v-2.983C268.856,239.648,264.826,235.619,259.856,235.619z
	 M224.511,36.439c-4.524-2.059-9.86-0.059-11.92,4.463c-2.06,4.524-0.062,9.86,4.463,11.92
	c20.853,9.491,33.807,26.192,33.807,43.584v1.084c0,4.971,4.029,9,9,9s9-4.029,9-9v-1.084
	C268.861,71.869,251.866,48.891,224.511,36.439z M259.856,119.52c-4.971,0-9,4.029-9,9v2.983c0,4.971,4.029,9,9,9s9-4.029,9-9
	v-2.983C268.856,123.549,264.826,119.52,259.856,119.52z M259.856,158.22c-4.971,0-9,4.029-9,9v2.982c0,4.971,4.029,9,9,9
	s9-4.029,9-9v-2.982C268.856,162.249,264.826,158.22,259.856,158.22z M114.007,235.619c-4.971,0-9,4.029-9,9v2.983
	c0,4.971,4.029,9,9,9s9-4.029,9-9v-2.983C123.007,239.648,118.977,235.619,114.007,235.619z M123.007,167.22c0-4.971-4.029-9-9-9
	s-9,4.029-9,9v2.982c0,4.971,4.029,9,9,9s9-4.029,9-9V167.22z M123.007,128.52c0-4.971-4.029-9-9-9s-9,4.029-9,9v2.983
	c0,4.971,4.029,9,9,9s9-4.029,9-9V128.52z M246.807,350.289c-7.204-33.371-28.584-54.102-55.796-54.102H178.72
	c-27.21,0-48.59,20.73-55.796,54.103l-2.735,12.671c-1.049,4.858,2.04,9.647,6.898,10.696c4.858,1.045,9.647-2.041,10.696-6.899
	l2.735-12.67c2.021-9.36,10.749-39.9,38.201-39.9h12.291c27.454,0,36.181,30.54,38.202,39.901l2.737,12.671
	c0.911,4.219,4.641,7.102,8.788,7.102c0.63,0,1.269-0.066,1.909-0.205c4.858-1.05,7.946-5.839,6.896-10.697L246.807,350.289z
	 M123.007,286.303v-2.982c0-4.971-4.029-9-9-9s-9,4.029-9,9v2.982c0,4.971,4.029,9,9,9S123.007,291.273,123.007,286.303z"/>
<g>
</g>
<g>
</g>
<g>
</g>
<g>
</g>
<g>
</g>
<g>
</g>
<g>
</g>
<g>
</g>
<g>
</g>
<g>
</g>
<g>
</g>
<g>
</g>
<g>
</g>
<g>
</g>
<g>
</g>
</svg>
