<?xml version="1.0" encoding="iso-8859-1"?>
<!-- Generator: Adobe Illustrator 17.1.0, SVG Export Plug-In . SVG Version: 6.00 Build 0)  -->
<!DOCTYPE svg PUBLIC "-//W3C//DTD SVG 1.1//EN" "http://www.w3.org/Graphics/SVG/1.1/DTD/svg11.dtd">
<svg version="1.1" id="Capa_1" xmlns="http://www.w3.org/2000/svg" xmlns:xlink="http://www.w3.org/1999/xlink" x="0px" y="0px"
	 viewBox="0 0 393.247 393.247" style="enable-background:new 0 0 393.247 393.247;" xml:space="preserve">
<path id="XMLID_1172_" d="M216.462,262.237h-39.678c-22.756,0-41.269,18.512-41.269,41.267v19.902
	c0,22.754,18.513,41.266,41.269,41.266h7.099v19.574c0,3.397,1.913,6.505,4.946,8.035c1.281,0.646,2.67,0.965,4.053,0.965
	c1.891,0,3.771-0.595,5.349-1.761l28.038-20.712c1.521-1.123,3.011-2.197,4.462-3.243c13.885-10.005,26.999-19.455,26.999-44.124
	v-19.902C257.73,280.75,239.217,262.237,216.462,262.237z M239.73,323.406c0,15.453-6.934,20.45-19.521,29.521
	c-1.508,1.086-3.055,2.201-4.635,3.368l-13.69,10.114v-10.736c0-4.97-4.029-9-9-9h-16.099c-12.83,0-23.269-10.437-23.269-23.266
	v-19.902c0-12.83,10.438-23.267,23.269-23.267h39.678c12.83,0,23.268,10.438,23.268,23.267V323.406z M188.132,17.509V9
	c0-4.971,4.029-9,9-9s9,4.029,9,9v8.509c0,4.97-4.029,9-9,9S188.132,22.479,188.132,17.509z M328.388,157.763c0-4.97,4.029-9,9-9
	h8.507c4.971,0,9,4.03,9,9s-4.029,9-9,9h-8.507C332.417,166.763,328.388,162.734,328.388,157.763z M289.944,64.952
	c-3.515-3.515-3.515-9.214,0.001-12.728l6.017-6.016c3.515-3.514,9.215-3.513,12.728,0.001c3.515,3.515,3.515,9.214-0.001,12.728
	l-6.017,6.016c-1.757,1.757-4.061,2.635-6.363,2.635C294.004,67.588,291.701,66.709,289.944,64.952z M39.368,157.763
	c0-4.97,4.029-9,9-9h8.51c4.971,0,9,4.03,9,9s-4.029,9-9,9h-8.51C43.397,166.763,39.368,162.734,39.368,157.763z M361.441,330.769
	c0,4.97-4.029,9-9,9h-65.166c-2.99,0-5.785-1.485-7.458-3.963c-1.674-2.478-2.008-5.625-0.891-8.399l10.449-25.952
	c1.856-4.611,7.101-6.843,11.71-4.987c4.611,1.856,6.844,7.099,4.987,11.71l-5.472,13.59h42.172
	c-3.156-21.184-17.417-41.034-40.948-56.658c-27.972-18.572-65.332-28.8-105.2-28.8c-39.869,0-77.23,10.228-105.202,28.8
	c-23.531,15.624-37.792,35.474-40.948,56.658h42.172l-5.472-13.59c-1.856-4.611,0.376-9.854,4.987-11.71
	c4.61-1.856,9.853,0.376,11.71,4.987l10.449,25.952c1.117,2.774,0.783,5.921-0.891,8.399c-1.673,2.478-4.468,3.963-7.458,3.963
	H40.806c-4.971,0-9-4.03-9-9c0-30.748,17.636-59.391,49.66-80.654c30.889-20.51,71.786-31.805,115.158-31.805
	c43.37,0,84.268,11.295,115.156,31.805C343.804,271.378,361.441,300.021,361.441,330.769z M85.576,58.935
	c-3.514-3.516-3.513-9.214,0.003-12.728c3.515-3.513,9.215-3.513,12.728,0.003l6.013,6.016c3.515,3.516,3.513,9.214-0.003,12.728
	c-1.757,1.756-4.06,2.635-6.362,2.635c-2.304,0-4.608-0.879-6.365-2.638L85.576,58.935z M194.4,189.79
	c0.889,0.283,1.811,0.425,2.732,0.425s1.844-0.142,2.732-0.425c23.767-7.573,39.734-29.43,39.734-54.387
	c0-24.959-15.969-46.815-39.735-54.386c-1.777-0.566-3.686-0.566-5.463,0c-23.767,7.57-39.734,29.426-39.734,54.386
	C154.666,160.361,170.634,182.218,194.4,189.79z M197.132,99.149c14.748,5.915,24.467,20.14,24.467,36.254
	c0,16.113-9.718,30.338-24.467,36.255c-14.748-5.917-24.466-20.142-24.466-36.255C172.666,119.288,182.384,105.064,197.132,99.149z"
	/>
<g>
</g>
<g>
</g>
<g>
</g>
<g>
</g>
<g>
</g>
<g>
</g>
<g>
</g>
<g>
</g>
<g>
</g>
<g>
</g>
<g>
</g>
<g>
</g>
<g>
</g>
<g>
</g>
<g>
</g>
</svg>
