<?xml version="1.0" encoding="iso-8859-1"?>
<!-- Generator: Adobe Illustrator 17.1.0, SVG Export Plug-In . SVG Version: 6.00 Build 0)  -->
<!DOCTYPE svg PUBLIC "-//W3C//DTD SVG 1.1//EN" "http://www.w3.org/Graphics/SVG/1.1/DTD/svg11.dtd">
<svg version="1.1" id="Capa_1" xmlns="http://www.w3.org/2000/svg" xmlns:xlink="http://www.w3.org/1999/xlink" x="0px" y="0px"
	 viewBox="0 0 392.347 392.347" style="enable-background:new 0 0 392.347 392.347;" xml:space="preserve">
<path id="XMLID_670_" d="M169.381,100.025c-3.517-3.513-3.52-9.211-0.007-12.728c3.513-3.518,9.21-3.522,12.728-0.007l0.856,0.855
	c3.517,3.513,3.52,9.211,0.007,12.728c-1.758,1.76-4.063,2.64-6.368,2.64c-2.302,0-4.603-0.877-6.36-2.633L169.381,100.025z
	 M210.246,51.798c1.758,1.757,4.061,2.636,6.364,2.636s4.606-0.879,6.364-2.636c3.515-3.515,3.515-9.214,0-12.729l-0.856-0.856
	c-3.516-3.514-9.213-3.514-12.729,0c-3.515,3.515-3.515,9.214,0,12.729L210.246,51.798z M221.498,286.75
	c1.758,1.758,4.062,2.637,6.365,2.637c2.303,0,4.605-0.879,6.363-2.635c3.515-3.515,3.516-9.213,0.002-12.729l-3.442-3.443
	c-3.516-3.515-9.213-3.515-12.729-0.002c-3.515,3.515-3.516,9.213-0.002,12.729L221.498,286.75z M164.484,289.386
	c2.303,0,4.606-0.879,6.364-2.636l3.443-3.443c3.515-3.515,3.515-9.214,0-12.729c-3.515-3.514-9.213-3.514-12.728,0l-3.443,3.443
	c-3.515,3.515-3.515,9.214,0,12.729C159.877,288.507,162.181,289.386,164.484,289.386z M386.807,345.89v37.457c0,4.971-4.029,9-9,9
	H14.539c-4.971,0-9-4.029-9-9V345.89c0-4.971,4.029-9,9-9h21.273V180.441H14.539c-3.874,0-7.313-2.479-8.538-6.154
	c-1.225-3.675,0.039-7.722,3.138-10.046l117.78-88.333c-0.191-2.095-0.289-4.217-0.289-6.36c0-38.259,31.052-69.401,69.275-69.546
	c0.137-0.002,0.273-0.002,0.409,0c38.282,0.076,69.401,31.245,69.401,69.546c0,2.144-0.098,4.266-0.288,6.36l117.779,88.333
	c3.099,2.324,4.363,6.371,3.138,10.046c-1.225,3.676-4.664,6.154-8.538,6.154h-21.274V336.89h21.274
	C382.778,336.89,386.807,340.919,386.807,345.89z M204.007,65.035c9.502,16.896,19.312,34.339,15.894,50.265
	c16.514-8.6,27.816-25.881,27.816-45.752c0-27.727-22.003-50.411-49.465-51.505c-4.334,2.434-6.94,5.199-7.941,8.415
	C187.46,35.615,195.872,50.571,204.007,65.035z M144.631,69.547c0,27.695,21.957,50.359,49.375,51.5
	c4.382-2.458,7.015-5.251,8.027-8.501c2.865-9.206-5.564-24.193-13.715-38.688c-9.465-16.828-19.234-34.198-15.896-50.05
	C155.922,32.412,144.631,49.686,144.631,69.547z M41.54,162.441h305.993h3.274l-89.916-67.436
	c-10.162,25.747-35.263,44.022-64.562,44.087c-0.136,0.003-0.272,0.002-0.407,0c-29.258-0.105-54.316-18.368-64.467-44.087
	L41.54,162.441z M282.946,211.436V336.89h55.587V180.441H53.813V336.89h55.59V211.436c0-4.971,4.029-9,9-9h155.543
	C278.917,202.436,282.946,206.465,282.946,211.436z M205.174,220.436V336.89h59.772V220.436H205.174z M127.403,220.436V336.89
	h59.771V220.436H127.403z M368.807,354.89H23.539v19.457h345.268V354.89z"/>
<g>
</g>
<g>
</g>
<g>
</g>
<g>
</g>
<g>
</g>
<g>
</g>
<g>
</g>
<g>
</g>
<g>
</g>
<g>
</g>
<g>
</g>
<g>
</g>
<g>
</g>
<g>
</g>
<g>
</g>
</svg>
