<?xml version="1.0" encoding="iso-8859-1"?>
<!-- Generator: Adobe Illustrator 17.1.0, SVG Export Plug-In . SVG Version: 6.00 Build 0)  -->
<!DOCTYPE svg PUBLIC "-//W3C//DTD SVG 1.1//EN" "http://www.w3.org/Graphics/SVG/1.1/DTD/svg11.dtd">
<svg version="1.1" id="Capa_1" xmlns="http://www.w3.org/2000/svg" xmlns:xlink="http://www.w3.org/1999/xlink" x="0px" y="0px"
	 viewBox="0 0 395.984 395.984" style="enable-background:new 0 0 395.984 395.984;" xml:space="preserve">
<path id="XMLID_1192_" d="M129.229,360.575c0,4.971-4.029,9-9,9c-38.196,0-102.84-7.565-102.84-35.92
	c0-0.09,0.001-0.179,0.004-0.268V89.526c-0.003-0.125-0.004-0.254-0.004-0.38c0-13.645,14.817-23.807,44.04-30.204
	c4.853-1.061,9.653,2.012,10.717,6.867c1.063,4.855-2.012,9.653-6.867,10.717C43.483,81.297,36.526,87.328,35.474,89.15
	c0.975,1.755,6.766,6.721,23.795,11.179c16.594,4.345,38.243,6.737,60.96,6.737s44.366-2.393,60.961-6.737
	c17.028-4.458,22.818-9.423,23.794-11.179c-1.053-1.821-8.011-7.854-29.804-12.624c-4.855-1.063-7.93-5.861-6.867-10.717
	s5.864-7.925,10.717-6.867c28.811,6.308,44.039,16.752,44.039,30.204c0,0.126-0.001,0.255-0.004,0.38v70.118c0,4.971-4.029,9-9,9
	s-9-4.029-9-9v-48.666c-21.961,10.708-59.306,14.088-84.836,14.088c-13.083,0-29.272-0.888-44.901-3.194v42.208c0,4.971-4.029,9-9,9
	s-9-4.029-9-9v-45.631c-8.144-1.954-15.666-4.414-21.935-7.471v222.518c0.685,1.589,6.282,6.736,23.875,11.342
	c16.594,4.345,38.243,6.737,60.961,6.737C125.2,351.575,129.229,355.604,129.229,360.575z M83.002,47.642
	c0-21.672,13.864-40.647,34.499-47.219c1.777-0.564,3.687-0.564,5.462,0.001c20.635,6.572,34.498,25.548,34.498,47.218
	c0,21.668-13.863,40.644-34.497,47.217c-0.889,0.283-1.811,0.425-2.732,0.425c-0.921,0-1.843-0.142-2.731-0.425
	C96.866,88.287,83.002,69.312,83.002,47.642z M101.002,47.642c0,12.819,7.617,24.157,19.229,29.058
	c11.613-4.9,19.229-16.238,19.229-29.058c0-12.82-7.616-24.159-19.229-29.059C108.618,23.482,101.002,34.821,101.002,47.642z
	 M314.437,334.479h-3.247c-4.971,0-9,4.029-9,9s4.029,9,9,9h3.247c4.971,0,9-4.029,9-9S319.408,334.479,314.437,334.479z
	 M257.925,152.478c-3.958,3.007-4.729,8.653-1.723,12.611c1.771,2.331,4.456,3.557,7.174,3.557c1.897,0,3.811-0.599,5.438-1.834
	c25.977-19.734,13.795-53.374,3.047-83.054c-11.093-30.633-17.298-51.521-3.047-62.35c3.958-3.007,4.729-8.652,1.722-12.61
	c-3.007-3.959-8.653-4.728-12.61-1.722c-25.862,19.648-13.71,53.204-2.989,82.811C266.064,120.614,272.284,141.571,257.925,152.478z
	 M378.594,386.981c0,4.971-4.029,9-9,9H256.98c-0.399,0.002-0.796,0.003-1.196,0.003c-59.067,0-103.609-21.162-103.609-49.226
	c0-17.805,17.927-32.83,46.121-41.438c-0.013-0.005-0.026-0.011-0.038-0.016c-17.959-7.636-27.849-18.732-27.849-31.245
	s9.89-23.609,27.849-31.245c2.451-1.042,5.023-2.01,7.706-2.901c-9.859-5.476-16.185-13.018-16.185-22.543
	c0-21.82,33.205-33.237,66.005-33.237c32.802,0,66.008,11.417,66.008,33.237c0,9.525-6.326,17.066-16.185,22.543
	c2.682,0.892,5.255,1.859,7.706,2.901c17.959,7.636,27.849,18.732,27.849,31.245s-9.89,23.609-27.849,31.245
	c-0.014,0.005-0.025,0.011-0.039,0.017c28.189,8.606,46.12,23.634,46.12,41.437c0,12.059-8.226,22.844-22.293,31.223h32.493
	C374.565,377.981,378.594,382.01,378.594,386.981z M207.779,217.37c0,4.334,16.159,14.811,46.164,15.225
	c0.613-0.006,1.226-0.009,1.841-0.009s1.229,0.003,1.842,0.009c30.006-0.414,46.166-10.891,46.166-15.225
	c0-4.422-16.823-15.237-48.008-15.237C224.601,202.133,207.779,212.949,207.779,217.37z M205.3,288.74
	c13.337,5.671,31.266,8.794,50.483,8.794c19.219,0,37.148-3.123,50.486-8.794c10.262-4.362,16.892-10.125,16.892-14.68
	s-6.63-10.317-16.892-14.68c-12.911-5.489-30.126-8.592-48.647-8.784c-1.227,0.016-2.451,0.016-3.678,0
	c-18.52,0.192-35.734,3.295-48.645,8.784c-10.262,4.362-16.892,10.125-16.892,14.68S195.039,284.377,205.3,288.74z M341.394,346.758
	c0-13.038-32.569-31.225-85.61-31.225s-85.609,18.187-85.609,31.225c0,12.979,32.271,31.062,84.888,31.225
	c0.06-0.001,0.119-0.002,0.18-0.002h1.7C309.297,377.718,341.394,359.702,341.394,346.758z M66.328,183.787c-4.971,0-9,4.029-9,9
	v1.813c0,4.971,4.029,9,9,9s9-4.029,9-9v-1.813C75.328,187.817,71.299,183.787,66.328,183.787z M298.401,283.059h3.244
	c4.971,0,9-4.029,9-9s-4.029-9-9-9h-3.244c-4.971,0-9,4.029-9,9S293.43,283.059,298.401,283.059z M270.618,226.284h3.247
	c4.971,0,9-4.029,9-9s-4.029-9-9-9h-3.247c-4.971,0-9,4.029-9,9S265.647,226.284,270.618,226.284z"/>
<g>
</g>
<g>
</g>
<g>
</g>
<g>
</g>
<g>
</g>
<g>
</g>
<g>
</g>
<g>
</g>
<g>
</g>
<g>
</g>
<g>
</g>
<g>
</g>
<g>
</g>
<g>
</g>
<g>
</g>
</svg>
