<?xml version="1.0" encoding="iso-8859-1"?>
<!-- Generator: Adobe Illustrator 17.1.0, SVG Export Plug-In . SVG Version: 6.00 Build 0)  -->
<!DOCTYPE svg PUBLIC "-//W3C//DTD SVG 1.1//EN" "http://www.w3.org/Graphics/SVG/1.1/DTD/svg11.dtd">
<svg version="1.1" id="Capa_1" xmlns="http://www.w3.org/2000/svg" xmlns:xlink="http://www.w3.org/1999/xlink" x="0px" y="0px"
	 viewBox="0 0 375.121 375.121" style="enable-background:new 0 0 375.121 375.121;" xml:space="preserve">
<path id="XMLID_93_" d="M291.719,366.121c0,4.971-4.029,9-9,9H91.4c-4.971,0-9-4.029-9-9s4.029-9,9-9h191.319
	C287.69,357.121,291.719,361.151,291.719,366.121z M153.726,68.602c0-19.222,12.298-36.055,30.604-41.885
	c1.777-0.566,3.687-0.566,5.463,0c18.305,5.831,30.603,22.664,30.603,41.885c0,17.722-10.553,33.625-26.886,40.514
	c-2.05,0.864-4.25,1.296-6.45,1.296c-2.199,0-4.398-0.432-6.446-1.295C164.279,102.228,153.726,86.325,153.726,68.602z
	 M171.726,68.602c0,10.269,5.999,19.503,15.335,23.691c9.335-4.188,15.335-13.423,15.335-23.691
	c0-10.367-6.054-19.556-15.335-23.694C177.78,49.046,171.726,58.235,171.726,68.602z M160.202,343.61
	c9.043,0,16.508-7.073,16.995-16.104l8.212-152.289c0.268-4.963-3.539-9.204-8.502-9.472c-4.944-0.28-9.203,3.539-9.471,8.502
	l-8.162,151.362h-11.563c-4.971,0-9,4.029-9,9s4.029,9,9,9H160.202z M213.918,343.61h12.491c4.971,0,9-4.029,9-9s-4.029-9-9-9
	h-11.563l-4.992-92.564c-0.268-4.963-4.503-8.769-9.472-8.502c-4.963,0.268-8.77,4.508-8.502,9.472l5.042,93.491
	C197.409,336.537,204.875,343.61,213.918,343.61z M292.845,35.008H242.84c-2.756,0-5.361,1.263-7.068,3.428
	c-1.707,2.165-2.327,4.992-1.684,7.673l5.548,23.118c1.161,4.833,6.017,7.812,10.852,6.651c4.833-1.16,7.811-6.019,6.651-10.852
	l-2.884-12.017h38.589c0.417,0,0.89,0.626,0.981,0.751c0.642,0.888,1.177,2.574,0.573,4.4
	c-14.406,43.548-56.503,71.708-107.249,71.741c-0.031,0-0.059,0-0.09,0c-50.723,0-92.83-28.101-107.285-71.606
	c-0.618-1.86-0.071-3.582,0.585-4.491c0.096-0.133,0.598-0.796,1.059-0.796h38.453l-2.885,12.017
	c-1.16,4.833,1.817,9.692,6.65,10.853c4.829,1.159,9.691-1.817,10.853-6.65l5.55-23.118c0.644-2.681,0.023-5.508-1.684-7.673
	s-4.311-3.428-7.068-3.428H81.42c-6.161,0-11.867,3.012-15.656,8.264c-4.265,5.911-5.412,13.648-3.07,20.698
	c16.944,50.997,65.75,83.933,124.366,83.931c0.032,0,0.071,0,0.103,0c58.64-0.039,107.44-33.045,124.326-84.088
	c2.322-7.02,1.173-14.719-3.072-20.595C304.647,38,298.971,35.008,292.845,35.008z M42.058,4.502
	c-2.485-4.304-7.989-5.777-12.294-3.294c-4.305,2.485-5.779,7.99-3.294,12.294l2.747,4.758c1.667,2.887,4.692,4.501,7.803,4.501
	c1.527,0,3.074-0.389,4.492-1.207c4.305-2.485,5.779-7.99,3.294-12.294L42.058,4.502z M30.154,45.007c0-4.971-4.029-9-9-9h-5.495
	c-4.971,0-9,4.029-9,9s4.029,9,9,9h5.495C26.125,54.007,30.154,49.977,30.154,45.007z M27.921,73.357l-4.666,2.901
	c-4.221,2.624-5.516,8.174-2.891,12.395c1.705,2.742,4.644,4.249,7.652,4.249c1.622,0,3.264-0.438,4.743-1.358l4.666-2.901
	c4.221-2.624,5.516-8.174,2.891-12.395C37.692,72.028,32.143,70.732,27.921,73.357z M338.102,22.761c3.11,0,6.136-1.614,7.803-4.501
	l2.747-4.758c2.485-4.305,1.01-9.809-3.294-12.294c-4.304-2.485-9.809-1.01-12.294,3.294l-2.747,4.758
	c-2.485,4.305-1.01,9.809,3.294,12.294C335.028,22.373,336.575,22.761,338.102,22.761z M359.462,36.007h-5.495c-4.971,0-9,4.029-9,9
	s4.029,9,9,9h5.495c4.971,0,9-4.029,9-9S364.433,36.007,359.462,36.007z M351.866,76.258l-4.666-2.901
	c-4.222-2.626-9.771-1.33-12.395,2.891c-2.625,4.221-1.33,9.771,2.891,12.395l4.666,2.901c1.479,0.92,3.121,1.358,4.743,1.358
	c3.008,0,5.947-1.507,7.652-4.249C357.382,84.432,356.088,78.882,351.866,76.258z"/>
<g>
</g>
<g>
</g>
<g>
</g>
<g>
</g>
<g>
</g>
<g>
</g>
<g>
</g>
<g>
</g>
<g>
</g>
<g>
</g>
<g>
</g>
<g>
</g>
<g>
</g>
<g>
</g>
<g>
</g>
</svg>
