<?xml version="1.0" encoding="iso-8859-1"?>
<!-- Generator: Adobe Illustrator 17.1.0, SVG Export Plug-In . SVG Version: 6.00 Build 0)  -->
<!DOCTYPE svg PUBLIC "-//W3C//DTD SVG 1.1//EN" "http://www.w3.org/Graphics/SVG/1.1/DTD/svg11.dtd">
<svg version="1.1" id="Capa_1" xmlns="http://www.w3.org/2000/svg" xmlns:xlink="http://www.w3.org/1999/xlink" x="0px" y="0px"
	 viewBox="0 0 379.718 379.718" style="enable-background:new 0 0 379.718 379.718;" xml:space="preserve">
<path id="XMLID_1589_" d="M305.915,232.806c1.295,0.679,2.73,1.03,4.18,1.03c0.4,0,0.802-0.027,1.202-0.081
	c18.994-2.559,33.993-16.965,37.323-35.85c3.33-18.884-5.836-37.553-22.809-46.454c-1.652-0.866-3.533-1.196-5.381-0.949
	c-18.994,2.559-33.993,16.966-37.323,35.85C279.777,205.236,288.943,223.904,305.915,232.806z M300.833,189.478
	c1.792-10.165,9.314-18.128,19.128-20.586c8.38,5.667,12.725,15.723,10.932,25.887c-1.792,10.164-9.315,18.128-19.127,20.586
	C303.386,209.698,299.041,199.642,300.833,189.478z M102.236,24.38v-8.717c0-4.971,4.029-9,9-9s9,4.029,9,9v8.717
	c0,4.971-4.029,9-9,9S102.236,29.351,102.236,24.38z M189.891,183.821c3.515,3.514,3.516,9.213,0.001,12.728
	c-1.757,1.758-4.061,2.637-6.365,2.637c-2.303,0-4.606-0.878-6.363-2.635l-6.165-6.164c-3.515-3.514-3.516-9.213-0.001-12.728
	s9.213-3.516,12.728-0.001L189.891,183.821z M170.998,58.133c-3.515-3.515-3.514-9.213,0.001-12.728l6.165-6.164
	c3.515-3.515,9.213-3.514,12.728,0.001c3.515,3.515,3.514,9.213-0.001,12.728l-6.165,6.164c-1.757,1.757-4.06,2.636-6.363,2.636
	C175.059,60.77,172.756,59.891,170.998,58.133z M195.751,117.895c0-4.971,4.029-9,9-9h8.718c4.971,0,9,4.029,9,9s-4.029,9-9,9
	h-8.718C199.78,126.895,195.751,122.866,195.751,117.895z M51.474,177.658c3.515,3.515,3.515,9.213,0,12.728l-6.164,6.164
	c-1.757,1.757-4.061,2.636-6.364,2.636s-4.606-0.879-6.364-2.636c-3.515-3.515-3.515-9.213,0-12.728l6.164-6.164
	C42.261,174.144,47.959,174.144,51.474,177.658z M0.002,117.895c0-4.971,4.029-9,9-9h8.718c4.971,0,9,4.029,9,9s-4.029,9-9,9H9.002
	C4.031,126.895,0.002,122.866,0.002,117.895z M377.408,227.241l-26.402,29.342l-19.597,41.255
	c-9.069,19.092-26.998,35.397-46.493,44.008c1.508,1.862,2.803,3.881,3.814,6.01l5.86,12.337c2.132,4.49,0.221,9.858-4.269,11.991
	c-4.492,2.132-9.859,0.221-11.991-4.269l-5.858-12.335c-1.822-3.833-6.751-7.265-9.672-7.563c-2.185,0.242-4.354,0.367-6.5,0.367
	H33.056c-2.992,0-8.224,3.32-10.065,7.196l-5.859,12.335c-1.541,3.243-4.769,5.14-8.136,5.14c-1.294,0-2.608-0.28-3.855-0.873
	c-4.49-2.133-6.4-7.501-4.268-11.991l5.859-12.335c4.731-9.961,16.048-17.473,26.324-17.473h223.246
	c1.538,0,3.102-0.094,4.687-0.276c0.208-0.033,0.417-0.059,0.63-0.077c20.463-2.649,44.002-19.852,53.533-39.917l20.159-42.438
	c0.373-0.785,0.857-1.512,1.439-2.158l27.278-30.316c3.326-3.694,9.015-3.996,12.71-0.67
	C380.433,217.855,380.733,223.545,377.408,227.241z M111.237,180.796c34.682,0,62.898-28.216,62.898-62.898
	c0-34.683-28.216-62.9-62.898-62.9c-34.683,0-62.899,28.217-62.899,62.9C48.338,152.58,76.554,180.796,111.237,180.796z
	 M111.237,72.998c24.757,0,44.898,20.142,44.898,44.9c0,24.757-20.141,44.898-44.898,44.898c-24.758,0-44.899-20.142-44.899-44.898
	C66.338,93.14,86.479,72.998,111.237,72.998z M30.851,286.379l17.332,6.308h198.444c8.164,0,20.716-4.521,24.059-10.136
	l9.115-15.309c-33.976,9.489-63.244,11.84-85.57,6.769c-4.847-1.101-7.884-5.923-6.783-10.77c1.102-4.848,5.928-7.884,10.77-6.783
	c16.647,3.781,47.234,4.527,98.423-13.397c3.574-1.251,7.547-0.133,9.943,2.798c2.396,2.931,2.702,7.048,0.765,10.301
	l-21.196,35.599c-7.771,13.055-27.792,18.928-39.525,18.928H46.596c-1.05,0-2.091-0.184-3.078-0.542l-18.823-6.851
	c-4.671-1.7-7.079-6.865-5.379-11.536C21.016,287.087,26.181,284.681,30.851,286.379z M111.236,202.413c4.971,0,9,4.029,9,9v8.717
	c0,4.971-4.029,9-9,9s-9-4.029-9-9v-8.717C102.236,206.442,106.265,202.413,111.236,202.413z M32.582,51.969
	c-3.515-3.515-3.514-9.213,0-12.728c3.516-3.514,9.214-3.513,12.728,0l6.164,6.165c3.515,3.515,3.514,9.213,0,12.728
	c-1.757,1.757-4.061,2.636-6.364,2.636c-2.304,0-4.606-0.878-6.364-2.636L32.582,51.969z"/>
<g>
</g>
<g>
</g>
<g>
</g>
<g>
</g>
<g>
</g>
<g>
</g>
<g>
</g>
<g>
</g>
<g>
</g>
<g>
</g>
<g>
</g>
<g>
</g>
<g>
</g>
<g>
</g>
<g>
</g>
</svg>
