<?xml version="1.0" encoding="iso-8859-1"?>
<!-- Generator: Adobe Illustrator 17.1.0, SVG Export Plug-In . SVG Version: 6.00 Build 0)  -->
<!DOCTYPE svg PUBLIC "-//W3C//DTD SVG 1.1//EN" "http://www.w3.org/Graphics/SVG/1.1/DTD/svg11.dtd">
<svg version="1.1" id="Capa_1" xmlns="http://www.w3.org/2000/svg" xmlns:xlink="http://www.w3.org/1999/xlink" x="0px" y="0px"
	 viewBox="0 0 381.268 381.268" style="enable-background:new 0 0 381.268 381.268;" xml:space="preserve">
<path id="XMLID_1340_" d="M190.775,97.141c-0.136-0.002-0.272-0.002-0.409,0c-38.226,0.145-69.276,31.287-69.276,69.546
	c0,38.263,31.063,69.408,69.294,69.545c0.069,0.001,0.139,0.002,0.208,0.002c0.065,0,0.13-0.001,0.195-0.002
	c38.276-0.084,69.393-31.249,69.393-69.545C260.179,128.386,229.057,97.217,190.775,97.141z M196.493,209.685
	c-1.012,3.251-3.645,6.044-8.027,8.502c-27.42-1.142-49.376-23.805-49.376-51.5c0-19.861,11.292-37.136,27.793-45.739
	c-3.337,15.852,6.432,33.222,15.896,50.05C190.93,185.491,199.359,200.479,196.493,209.685z M214.361,212.439
	c3.419-15.927-6.391-33.368-15.894-50.266c-8.134-14.464-16.546-29.421-13.695-38.578c1.001-3.216,3.606-5.98,7.94-8.414
	c27.462,1.094,49.467,23.778,49.467,51.505C242.179,186.558,230.875,203.84,214.361,212.439z M378.016,56.882
	c-9.422-7.821-18.672-15.537-27.153-22.61c-14.141-11.796-26.354-21.982-33.484-27.749c-1.602-1.295-3.6-2.002-5.66-2.002h-61.971
	c-2.672,0-5.206,1.188-6.916,3.241c-9.268,11.129-29.757,18.32-52.2,18.32c-22.44,0-42.93-7.191-52.2-18.321
	c-1.71-2.053-4.244-3.24-6.916-3.24H69.547c-2.06,0-4.058,0.707-5.66,2.003C56.752,12.294,44.526,22.491,30.37,34.3
	C21.898,41.366,12.66,49.071,3.251,56.882C1.192,58.592,0,61.13,0,63.807v80.372c0,4.971,4.029,9,9,9h40.453
	c2.104,0,4.141-0.737,5.758-2.083L73.6,135.789v231.958c0,4.971,4.029,9,9,9h216.068c4.971,0,9-4.029,9-9V135.789l18.389,15.307
	c1.617,1.346,3.654,2.083,5.758,2.083h40.452c4.971,0,9-4.029,9-9V63.807C381.268,61.13,380.076,58.592,378.016,56.882z
	 M363.268,135.179h-28.197l-30.645-25.508c-2.684-2.234-6.416-2.714-9.578-1.232c-3.161,1.481-5.18,4.658-5.18,8.149v242.159H91.6
	V116.588c0-3.491-2.019-6.668-5.18-8.149c-3.16-1.481-6.895-1.002-9.578,1.232l-30.645,25.508H18V68.031
	c8.292-6.89,16.396-13.65,23.899-19.908c12.572-10.487,23.616-19.699,30.845-25.603h54.829c13.46,13.389,37.105,21.562,63.06,21.562
	c25.957,0,49.602-8.173,63.061-21.562h54.829c7.223,5.898,18.253,15.099,30.811,25.573c7.513,6.267,15.629,13.037,23.934,19.938
	V135.179z M177.421,185.288c3.515,3.515,3.515,9.214,0,12.729c-1.757,1.757-4.061,2.636-6.364,2.636s-4.606-0.879-6.364-2.636
	l-0.855-0.855c-3.515-3.515-3.515-9.214,0-12.729c3.515-3.514,9.213-3.514,12.728,0L177.421,185.288z M217.438,136.215
	c3.512,3.518,3.507,9.216-0.011,12.728c-1.757,1.754-4.058,2.631-6.358,2.631c-2.306,0-4.611-0.881-6.369-2.642l-0.855-0.856
	c-3.512-3.518-3.507-9.216,0.011-12.728c3.519-3.512,9.216-3.506,12.728,0.011L217.438,136.215z"/>
<g>
</g>
<g>
</g>
<g>
</g>
<g>
</g>
<g>
</g>
<g>
</g>
<g>
</g>
<g>
</g>
<g>
</g>
<g>
</g>
<g>
</g>
<g>
</g>
<g>
</g>
<g>
</g>
<g>
</g>
</svg>
