<?xml version="1.0" encoding="iso-8859-1"?>
<!-- Generator: Adobe Illustrator 17.1.0, SVG Export Plug-In . SVG Version: 6.00 Build 0)  -->
<!DOCTYPE svg PUBLIC "-//W3C//DTD SVG 1.1//EN" "http://www.w3.org/Graphics/SVG/1.1/DTD/svg11.dtd">
<svg version="1.1" id="Capa_1" xmlns="http://www.w3.org/2000/svg" xmlns:xlink="http://www.w3.org/1999/xlink" x="0px" y="0px"
	 viewBox="0 0 366.135 366.135" style="enable-background:new 0 0 366.135 366.135;" xml:space="preserve">
<path id="XMLID_1814_" d="M180.31,56.855c-1.97-14.052,3.605-25.146,16.124-32.085c4.348-2.408,9.825-0.839,12.235,3.509
	c2.409,4.348,0.839,9.825-3.509,12.235c-11.179,6.195-8.874,15.69,3.727,41.078c5.401,10.881,10.986,22.133,12.478,32.827
	c1.964,14.086-3.64,25.213-16.204,32.178c-1.383,0.766-2.88,1.13-4.355,1.13c-3.166,0-6.236-1.674-7.88-4.639
	c-2.409-4.348-0.839-9.825,3.509-12.235c11.277-6.25,8.975-15.783-3.67-41.258C187.376,78.74,181.804,67.514,180.31,56.855z
	 M335.096,239.236v85.258h11.265c4.971,0,9,4.029,9,9s-4.029,9-9,9h-25.648c-4.971,0-9-4.029-9-9c0-3.685,2.214-6.852,5.384-8.244
	v-86.014H49.041v86.015c3.169,1.393,5.382,4.56,5.382,8.243c0,4.971-4.029,9-9,9h-25.65c-4.971,0-9-4.029-9-9s4.029-9,9-9h11.269
	v-85.258h-1.212C13.381,239.236,0,225.856,0,209.409c0-16.451,13.381-29.832,29.829-29.832h4.768
	c-1.573-3.629-2.446-7.629-2.446-11.829c0-16.448,13.381-29.83,29.828-29.83c16.449,0,29.831,13.382,29.831,29.83
	c0,4.2-0.873,8.2-2.446,11.829h148.065c-0.247-0.82-0.379-1.69-0.379-2.591c0-4.971,4.029-9,9-9h51.402c4.971,0,9,4.029,9,9
	c0,0.9-0.132,1.771-0.379,2.591h30.234c16.446,0,29.827,13.381,29.827,29.829c0,16.45-13.381,29.83-29.827,29.83H335.096z
	 M50.15,167.748c0,6.522,5.306,11.829,11.828,11.829c6.523,0,11.831-5.307,11.831-11.829c0-6.523-5.308-11.83-11.831-11.83
	C55.456,155.918,50.15,161.224,50.15,167.748z M336.308,221.236c6.521,0,11.827-5.306,11.827-11.827
	c0-6.525-5.306-11.832-11.827-11.832H29.829c-6.522,0-11.829,5.307-11.829,11.829c0,6.524,5.307,11.83,11.829,11.83H336.308z
	 M157.229,89.597c12.645,25.473,14.947,35.006,3.671,41.256c-4.348,2.41-5.918,7.888-3.509,12.235
	c1.644,2.965,4.714,4.639,7.88,4.639c1.477,0,2.974-0.364,4.355-1.13c12.564-6.965,18.167-18.091,16.203-32.177
	c-1.491-10.694-7.076-21.945-12.478-32.826c-12.602-25.389-14.906-34.884-3.727-41.08c4.348-2.41,5.919-7.888,3.51-12.235
	c-2.41-4.347-7.887-5.918-12.235-3.509c-12.519,6.938-18.096,18.033-16.126,32.085C146.268,67.514,151.84,78.741,157.229,89.597z"/>
<g>
</g>
<g>
</g>
<g>
</g>
<g>
</g>
<g>
</g>
<g>
</g>
<g>
</g>
<g>
</g>
<g>
</g>
<g>
</g>
<g>
</g>
<g>
</g>
<g>
</g>
<g>
</g>
<g>
</g>
</svg>
