<?xml version="1.0" encoding="iso-8859-1"?>
<!-- Generator: Adobe Illustrator 17.1.0, SVG Export Plug-In . SVG Version: 6.00 Build 0)  -->
<!DOCTYPE svg PUBLIC "-//W3C//DTD SVG 1.1//EN" "http://www.w3.org/Graphics/SVG/1.1/DTD/svg11.dtd">
<svg version="1.1" id="Capa_1" xmlns="http://www.w3.org/2000/svg" xmlns:xlink="http://www.w3.org/1999/xlink" x="0px" y="0px"
	 viewBox="0 0 426.922 426.922" style="enable-background:new 0 0 426.922 426.922;" xml:space="preserve">
<path id="XMLID_1081_" d="M170.265,113.315c0-4.971,4.029-9,9-9h114.411c4.971,0,9,4.029,9,9s-4.029,9-9,9H179.265
	C174.295,122.315,170.265,118.286,170.265,113.315z M179.265,81.665h114.411c4.971,0,9-4.029,9-9s-4.029-9-9-9H179.265
	c-4.971,0-9,4.029-9,9S174.295,81.665,179.265,81.665z M326.574,392.108c2.806,2.476,3.787,6.431,2.463,9.932
	c-1.323,3.5-4.676,5.817-8.418,5.817h-11.462v10.065c0,4.971-4.029,9-9,9s-9-4.029-9-9v-10.065h-17.436v10.065c0,4.971-4.029,9-9,9
	s-9-4.029-9-9v-10.065h-17.437v10.065c0,4.971-4.029,9-9,9s-9-4.029-9-9v-10.065h-17.438v10.065c0,4.971-4.029,9-9,9s-9-4.029-9-9
	v-10.065H167.41v10.065c0,4.971-4.029,9-9,9s-9-4.029-9-9v-10.065h-17.436v10.065c0,4.971-4.029,9-9,9s-9-4.029-9-9v-10.065h-7.496
	c-2.192,0-4.311-0.801-5.955-2.251c-49.83-43.968-25.87-120.815-2.7-195.131c10.989-35.245,22.352-71.689,25.103-102.93
	c2.952-33.526-4.166-56.636-22.402-72.728c-2.806-2.476-3.787-6.431-2.463-9.931c1.323-3.5,4.676-5.817,8.418-5.817h9.908V9
	c0-4.971,4.029-9,9-9c4.971,0,9,4.029,9,9v10.068h17.438V9c0-4.971,4.029-9,9-9s9,4.029,9,9v10.068h17.437V9c0-4.971,4.029-9,9-9
	s9,4.029,9,9v10.068h17.438V9c0-4.971,4.029-9,9-9s9,4.029,9,9v10.068h17.436V9c0-4.971,4.029-9,9-9s9,4.029,9,9v10.068h17.438V9
	c0-4.971,4.029-9,9-9s9,4.029,9,9v10.068h9.048c2.193,0,4.311,0.801,5.955,2.251c49.578,43.75,25.683,120.392,2.574,194.511
	c-11.015,35.326-22.403,71.854-25.149,103.204C301.05,352.698,308.224,375.917,326.574,392.108z M300.737,389.856
	c-30.614-45.188-9.382-113.286,11.227-179.383c10.988-35.245,22.352-71.689,25.103-102.93c2.816-31.993-3.536-54.5-19.971-70.475
	H126.337c30.376,44.997,9.213,112.877-11.329,178.763c-11.014,35.326-22.403,71.854-25.148,103.204
	c-2.814,32.132,3.594,54.75,20.141,70.821h190.157H300.737z M246.376,345.256H131.965c-4.971,0-9,4.029-9,9s4.029,9,9,9h114.411
	c4.971,0,9-4.029,9-9S251.346,345.256,246.376,345.256z M246.376,304.605H131.965c-4.971,0-9,4.029-9,9s4.029,9,9,9h114.411
	c4.971,0,9-4.029,9-9S251.346,304.605,246.376,304.605z"/>
<g>
</g>
<g>
</g>
<g>
</g>
<g>
</g>
<g>
</g>
<g>
</g>
<g>
</g>
<g>
</g>
<g>
</g>
<g>
</g>
<g>
</g>
<g>
</g>
<g>
</g>
<g>
</g>
<g>
</g>
</svg>
