<?xml version="1.0" encoding="iso-8859-1"?>
<!-- Generator: Adobe Illustrator 17.1.0, SVG Export Plug-In . SVG Version: 6.00 Build 0)  -->
<!DOCTYPE svg PUBLIC "-//W3C//DTD SVG 1.1//EN" "http://www.w3.org/Graphics/SVG/1.1/DTD/svg11.dtd">
<svg version="1.1" id="Capa_1" xmlns="http://www.w3.org/2000/svg" xmlns:xlink="http://www.w3.org/1999/xlink" x="0px" y="0px"
	 viewBox="0 0 435.943 435.943" style="enable-background:new 0 0 435.943 435.943;" xml:space="preserve">
<path id="XMLID_1275_" d="M60.272,158.208c0-4.971,4.029-9,9-9h8.535c4.971,0,9,4.029,9,9s-4.029,9-9,9h-8.535
	C64.302,167.208,60.272,163.179,60.272,158.208z M175.915,135.779c0-25.021,16.009-46.932,39.835-54.522
	c1.777-0.566,3.688-0.566,5.465,0c23.826,7.591,39.834,29.501,39.834,54.522s-16.008,46.933-39.834,54.523
	c-0.889,0.283-1.811,0.425-2.732,0.425s-1.844-0.142-2.732-0.425C191.924,182.712,175.915,160.801,175.915,135.779z
	 M193.915,135.779c0,16.178,9.758,30.457,24.567,36.392c14.809-5.935,24.566-20.214,24.566-36.392
	c0-16.177-9.758-30.456-24.566-36.391C203.673,105.323,193.915,119.603,193.915,135.779z M112.644,65.1
	c1.758,1.758,4.062,2.637,6.365,2.637c2.303,0,4.605-0.878,6.363-2.635c3.515-3.515,3.516-9.213,0.002-12.729l-6.032-6.034
	c-3.515-3.515-9.212-3.517-12.729-0.002c-3.515,3.515-3.516,9.213-0.002,12.729L112.644,65.1z M359.156,167.208h8.532
	c4.971,0,9-4.029,9-9s-4.029-9-9-9h-8.532c-4.971,0-9,4.029-9,9S354.186,167.208,359.156,167.208z M317.952,67.736
	c2.304,0,4.606-0.879,6.364-2.636l6.034-6.034c3.515-3.515,3.515-9.214,0-12.729c-3.516-3.514-9.213-3.514-12.729,0l-6.034,6.034
	c-3.515,3.515-3.515,9.214,0,12.729C313.346,66.857,315.648,67.736,317.952,67.736z M218.48,26.534c4.971,0,9-4.029,9-9V9
	c0-4.971-4.029-9-9-9s-9,4.029-9,9v8.534C209.48,22.505,213.51,26.534,218.48,26.534z M217.971,412.449c-4.971,0-9,4.029-9,9v5.494
	c0,4.971,4.029,9,9,9s9-4.029,9-9v-5.494C226.971,416.479,222.941,412.449,217.971,412.449z M292.476,374.457l-4.756-2.747
	c-4.306-2.488-9.81-1.012-12.295,3.291c-2.486,4.305-1.013,9.81,3.291,12.295l4.756,2.747c1.418,0.819,2.966,1.209,4.493,1.209
	c3.11,0,6.135-1.614,7.802-4.5C298.253,382.447,296.779,376.942,292.476,374.457z M267.094,405.874
	c-2.486-4.305-7.991-5.778-12.295-3.292c-4.305,2.485-5.778,7.99-3.292,12.294l2.747,4.758c1.668,2.887,4.692,4.501,7.803,4.501
	c1.527,0,3.075-0.39,4.492-1.208c4.305-2.486,5.778-7.991,3.292-12.295L267.094,405.874z M148.226,371.709l-4.758,2.747
	c-4.305,2.485-5.779,7.989-3.294,12.294c1.667,2.888,4.691,4.502,7.803,4.502c1.526,0,3.074-0.39,4.491-1.208l4.758-2.747
	c4.305-2.485,5.779-7.989,3.294-12.294C158.035,370.699,152.531,369.223,148.226,371.709z M333.458,250.856
	c-30.978-20.567-71.991-31.895-115.487-31.895c-43.495,0-84.51,11.327-115.486,31.895c-32.111,21.32-49.796,50.041-49.796,80.871
	c0,4.971,4.029,9,9,9h65.36c2.99,0,5.785-1.485,7.458-3.963c1.674-2.478,2.008-5.625,0.891-8.398l-10.479-26.027
	c-1.856-4.611-7.101-6.842-11.71-4.987c-4.611,1.856-6.844,7.1-4.987,11.71l5.502,13.666H71.354
	c3.158-21.265,17.469-41.194,41.087-56.876c28.059-18.63,65.536-28.89,105.529-28.89s77.472,10.26,105.531,28.89
	c23.618,15.682,37.929,35.611,41.087,56.876H322.22l5.503-13.665c1.856-4.611-0.376-9.854-4.986-11.711
	c-4.612-1.855-9.854,0.375-11.711,4.986l-10.481,26.027c-1.117,2.774-0.783,5.921,0.89,8.399c1.674,2.478,4.469,3.963,7.459,3.963
	h65.362c4.971,0,9-4.029,9-9C383.255,300.897,365.57,272.177,333.458,250.856z M181.141,402.58
	c-4.307-2.486-9.81-1.009-12.294,3.296l-2.746,4.758c-2.484,4.305-1.009,9.81,3.296,12.294c1.417,0.818,2.964,1.207,4.49,1.207
	c3.111,0,6.137-1.615,7.804-4.503l2.746-4.758C186.921,410.569,185.445,405.064,181.141,402.58z M263.65,347.598
	c0,34.123-22.979,51.977-45.68,51.977s-45.68-17.854-45.68-51.977c0-25.791,17.54-60.552,39.932-79.137
	c3.332-2.766,8.164-2.766,11.496,0C246.11,287.046,263.65,321.807,263.65,347.598z M245.65,347.598
	c0-18.154-12.185-43.909-27.68-59.933c-15.495,16.023-27.68,41.778-27.68,59.933c0,23.471,13.902,33.977,27.68,33.977
	S245.65,371.068,245.65,347.598z M215.649,354.456c-4.971,0.019-8.984,4.063-8.966,9.034c0.019,4.959,4.045,8.966,8.999,8.966
	c0.012,0,0.023,0,0.035,0c10.836-0.041,21.805-8.875,21.805-25.678c0-4.971-4.029-9-9-9s-9,4.029-9,9
	C219.522,351.81,217.574,354.449,215.649,354.456z"/>
<g>
</g>
<g>
</g>
<g>
</g>
<g>
</g>
<g>
</g>
<g>
</g>
<g>
</g>
<g>
</g>
<g>
</g>
<g>
</g>
<g>
</g>
<g>
</g>
<g>
</g>
<g>
</g>
<g>
</g>
</svg>
