<?xml version="1.0" encoding="iso-8859-1"?>
<!-- Generator: Adobe Illustrator 17.1.0, SVG Export Plug-In . SVG Version: 6.00 Build 0)  -->
<!DOCTYPE svg PUBLIC "-//W3C//DTD SVG 1.1//EN" "http://www.w3.org/Graphics/SVG/1.1/DTD/svg11.dtd">
<svg version="1.1" id="Capa_1" xmlns="http://www.w3.org/2000/svg" xmlns:xlink="http://www.w3.org/1999/xlink" x="0px" y="0px"
	 viewBox="0 0 399.346 399.346" style="enable-background:new 0 0 399.346 399.346;" xml:space="preserve">
<path id="XMLID_1650_" d="M189.519,189.97c4.963,0.268,8.77,4.508,8.502,9.471l-8.62,159.877c-0.257,4.775-4.205,8.516-8.987,8.516
	h-20.092c-4.971,0-9-4.029-9-9s4.029-9,9-9h11.564l8.161-151.362C180.315,193.509,184.571,189.691,189.519,189.97z M227.46,349.834
	l-4.993-92.564c-0.268-4.963-4.504-8.769-9.472-8.502c-4.963,0.268-8.77,4.508-8.502,9.472l5.452,101.079
	c0.257,4.775,4.205,8.515,8.987,8.515h20.09c4.971,0,9-4.029,9-9s-4.029-9-9-9H227.46z M196.941,134.713
	c-18.305-5.832-30.604-22.665-30.604-41.886c0-19.222,12.299-36.054,30.604-41.886c1.778-0.565,3.687-0.566,5.464,0
	c18.304,5.831,30.602,22.664,30.602,41.885c0,19.221-12.298,36.054-30.602,41.886c-0.889,0.283-1.811,0.425-2.732,0.425
	S197.83,134.996,196.941,134.713z M199.673,116.522c9.279-4.14,15.334-13.329,15.334-23.695c0-10.367-6.054-19.556-15.334-23.694
	c-9.281,4.139-15.336,13.328-15.336,23.694C184.337,103.193,190.392,112.383,199.673,116.522z M330.383,73.388
	c1.017-4.865-2.103-9.634-6.968-10.651c-4.861-1.015-9.634,2.102-10.651,6.968c-12.192,58.316-65.584,84.42-113.09,84.42
	S98.775,128.02,86.583,69.704c-1.017-4.866-5.788-7.986-10.651-6.968c-4.865,1.017-7.985,5.786-6.968,10.651
	c6.454,30.873,23.385,56.545,48.962,74.243c22.827,15.795,51.859,24.494,81.748,24.494s58.92-8.699,81.748-24.494
	C306.998,129.933,323.928,104.26,330.383,73.388z M27.544,65.752c0.959-0.026,1.88-0.203,2.74-0.505l0.155,5.612
	c0.135,4.884,4.137,8.751,8.992,8.751c0.084,0,0.169-0.001,0.254-0.003c4.969-0.138,8.885-4.277,8.748-9.246l-0.668-24.127
	c43.323-6.892,96.814-10.645,152.741-10.645c55.143,0,108.047,3.66,151.083,10.383l-0.675,24.389
	c-0.138,4.969,3.779,9.108,8.748,9.246c4.998,0.146,9.108-3.779,9.246-8.748l0.155-5.612c0.86,0.303,1.78,0.479,2.74,0.505
	c5.004,0.131,9.108-3.779,9.246-8.748l0.938-33.9c0.138-4.969-3.779-9.108-8.748-9.246c-0.959-0.026-1.889,0.098-2.763,0.353
	l0.137-4.962c0.138-4.969-3.779-9.108-8.748-9.246c-4.961-0.152-9.108,3.779-9.246,8.748l-0.528,19.085
	c-43.538-6.639-96.522-10.248-151.585-10.248c-55.836,0-109.402,3.7-153.243,10.504L46.725,8.752
	c-0.137-4.969-4.285-8.894-9.246-8.748c-4.969,0.138-8.885,4.277-8.748,9.246l0.137,4.961c-0.875-0.254-1.81-0.379-2.762-0.352
	c-4.969,0.138-8.885,4.277-8.748,9.246l0.938,33.9C18.436,61.973,22.569,65.893,27.544,65.752z M331.051,166.396
	c-1.031-4.862-5.806-7.971-10.67-6.939c-4.863,1.031-7.969,5.808-6.938,10.67l1.139,5.373c0.897,4.234,4.634,7.136,8.795,7.136
	c0.618,0,1.246-0.064,1.875-0.197c4.863-1.031,7.969-5.808,6.939-10.67L331.051,166.396z M40.344,120.714
	c1.189-4.826-1.759-9.703-6.585-10.892l-5.336-1.315c-4.827-1.19-9.703,1.759-10.892,6.585s1.759,9.703,6.585,10.892l5.336,1.315
	c0.723,0.178,1.447,0.263,2.16,0.263C35.657,127.563,39.333,124.817,40.344,120.714z M362.679,145.408
	c-3.443-3.587-9.141-3.702-12.725-0.259c-3.585,3.442-3.702,9.14-0.259,12.725l3.804,3.962c1.767,1.841,4.128,2.767,6.493,2.767
	c2.242,0,4.487-0.833,6.232-2.508c3.586-3.442,3.702-9.14,0.259-12.725L362.679,145.408z M381.815,115.092
	c-1.189-4.825-6.063-7.772-10.893-6.584l-5.334,1.315c-4.826,1.189-7.774,6.066-6.584,10.893c1.011,4.103,4.687,6.848,8.731,6.848
	c0.713,0,1.438-0.085,2.161-0.264l5.334-1.315C380.057,124.795,383.005,119.918,381.815,115.092z M295.331,381.346H104.013
	c-4.971,0-9,4.029-9,9s4.029,9,9,9h191.317c4.971,0,9-4.029,9-9S300.301,381.346,295.331,381.346z M78.97,159.458
	c-4.859-1.034-9.64,2.072-10.672,6.935l-1.141,5.373c-1.032,4.862,2.073,9.641,6.935,10.673c0.63,0.134,1.258,0.198,1.878,0.198
	c4.159,0,7.896-2.901,8.794-7.133l1.141-5.373C86.938,165.268,83.833,160.49,78.97,159.458z M36.669,145.407l-3.805,3.962
	c-3.443,3.585-3.327,9.283,0.258,12.725c1.745,1.676,3.99,2.508,6.232,2.508c2.364,0,4.726-0.926,6.493-2.767l3.805-3.962
	c3.443-3.585,3.327-9.283-0.258-12.725C45.809,141.706,40.111,141.821,36.669,145.407z"/>
<g>
</g>
<g>
</g>
<g>
</g>
<g>
</g>
<g>
</g>
<g>
</g>
<g>
</g>
<g>
</g>
<g>
</g>
<g>
</g>
<g>
</g>
<g>
</g>
<g>
</g>
<g>
</g>
<g>
</g>
</svg>
