<?xml version="1.0" encoding="iso-8859-1"?>
<!-- Generator: Adobe Illustrator 17.1.0, SVG Export Plug-In . SVG Version: 6.00 Build 0)  -->
<!DOCTYPE svg PUBLIC "-//W3C//DTD SVG 1.1//EN" "http://www.w3.org/Graphics/SVG/1.1/DTD/svg11.dtd">
<svg version="1.1" id="Capa_1" xmlns="http://www.w3.org/2000/svg" xmlns:xlink="http://www.w3.org/1999/xlink" x="0px" y="0px"
	 viewBox="0 0 382.479 382.479" style="enable-background:new 0 0 382.479 382.479;" xml:space="preserve">
<path id="XMLID_75_" d="M237.204,19.401c-3.514-3.516-3.512-9.214,0.003-12.728l0.912-0.911c3.516-3.514,9.214-3.512,12.728,0.003
	s3.512,9.214-0.003,12.728l-0.912,0.911c-1.757,1.756-4.06,2.634-6.362,2.634C241.265,22.039,238.962,21.159,237.204,19.401z
	 M381.874,336.023v37.456c0,4.971-4.029,9-9,9H9.605c-4.971,0-9-4.029-9-9v-37.456c0-4.971,4.029-9,9-9h14.409V113.402
	c0-4.971,4.029-9,9-9h29.769c4.971,0,9,4.029,9,9s-4.029,9-9,9H42.014v204.621h44.164V70.756c0-4.971,4.029-9,9-9h19.976
	c-1.319-4.597-1.818-9.195-1.432-13.582c0.229-2.611,1.586-4.993,3.716-6.522c11.362-8.158,28.243-9.327,44.656-3.695
	c3.131-17.061,12.423-31.208,25.104-37.115c2.376-1.107,5.117-1.123,7.507-0.043c12.747,5.761,22.201,19.799,25.527,36.83
	c16.36-5.826,33.246-4.847,44.697,3.179c2.147,1.505,3.531,3.871,3.79,6.479c0.464,4.668-0.067,9.572-1.523,14.469H287.3
	c4.971,0,9,4.029,9,9v256.267h44.165V122.402h-20.771c-4.971,0-9-4.029-9-9s4.029-9,9-9h29.771c4.971,0,9,4.029,9,9v213.621h14.408
	C377.844,327.023,381.874,331.052,381.874,336.023z M131.842,54.158c0.596,3.675,2.247,7.618,4.836,11.464
	c0.043,0.062,0.085,0.124,0.127,0.187c0.226,0.332,0.457,0.662,0.696,0.989c3.284,4.517,7.689,8.616,12.832,11.958h81.408
	c5.585-3.594,10.295-8.053,13.711-12.999c0.04-0.06,0.08-0.118,0.121-0.177c2.777-4.068,4.518-8.234,5.098-12.102
	c-8.819-3.404-21.788-1.482-33.355,5.285l-0.203,0.12c-2.772,1.638-6.208,1.67-9.012,0.084c-2.802-1.586-4.544-4.549-4.567-7.769
	l-0.001-0.276c-0.077-13.419-5.043-25.565-12.475-31.41c-7.364,5.93-12.191,18.132-12.115,31.542l0.001,0.294
	c0.011,3.235-1.714,6.228-4.521,7.838c-2.807,1.609-6.262,1.59-9.048-0.052l-0.177-0.104
	C153.569,52.423,140.606,50.661,131.842,54.158z M104.178,327.023h21.162V200.525c0-36.337,29.563-65.899,65.899-65.899
	s65.899,29.562,65.899,65.899v126.499H278.3V79.756h-20.87c-4.987,6.123-11.341,11.518-18.607,15.769
	c-1.379,0.806-2.947,1.231-4.544,1.231h-86.503c-1.608,0-3.188-0.431-4.573-1.248c-7.195-4.244-13.518-9.652-18.442-15.752h-20.583
	V327.023z M191.239,152.626c-26.412,0-47.899,21.487-47.899,47.899v126.499h95.799V200.525
	C239.139,174.113,217.651,152.626,191.239,152.626z M363.874,345.023H18.605v19.456h345.269V345.023z M132.545,19.401
	c1.758,1.758,4.062,2.638,6.366,2.638c2.303,0,4.605-0.878,6.362-2.634c3.516-3.514,3.517-9.212,0.003-12.728l-0.911-0.911
	c-3.515-3.516-9.212-3.517-12.728-0.003s-3.517,9.212-0.003,12.728L132.545,19.401z M328.698,245.76v-42.097c0-4.971-4.029-9-9-9
	s-9,4.029-9,9v42.097c0,4.971,4.029,9,9,9S328.698,250.731,328.698,245.76z M62.781,194.663c-4.971,0-9,4.029-9,9v42.097
	c0,4.971,4.029,9,9,9s9-4.029,9-9v-42.097C71.781,198.693,67.752,194.663,62.781,194.663z"/>
<g>
</g>
<g>
</g>
<g>
</g>
<g>
</g>
<g>
</g>
<g>
</g>
<g>
</g>
<g>
</g>
<g>
</g>
<g>
</g>
<g>
</g>
<g>
</g>
<g>
</g>
<g>
</g>
<g>
</g>
</svg>
